<svg xmlns="http://www.w3.org/2000/svg" version="1.1" xmlns:xlink="http://www.w3.org/1999/xlink" xmlns:svgjs="http://svgjs.com/svgjs" width="1440" height="560" preserveAspectRatio="none" viewBox="0 0 1440 560"><g mask="url(&quot;#SvgjsMask1730&quot;)" fill="none"><rect width="1440" height="560" x="0" y="0" fill="url(#SvgjsLinearGradient1731)"></rect><path d="M-51.39 337.61L-51.39 337.61" stroke="rgba(40, 41, 104, 1)" stroke-width="1.5"></path><path d="M-51.39 337.61L53.44 398.84" stroke="rgba(40, 41, 104, 1)" stroke-width="1.5"></path><path d="M-51.39 337.61L-82.8 494.08" stroke="rgba(40, 41, 104, 1)" stroke-width="1.5"></path><path d="M-51.39 337.61L50.35 501.09" stroke="rgba(40, 41, 104, 1)" stroke-width="1.5"></path><path d="M-51.39 337.61L247.85 349.97" stroke="rgba(40, 41, 104, 1)" stroke-width="1.5"></path><path d="M-51.39 337.61L-89.65 683.03" stroke="rgba(40, 41, 104, 1)" stroke-width="1.5"></path><path d="M-51.39 337.61L231.84 549.7" stroke="rgba(40, 41, 104, 1)" stroke-width="1.5"></path><path d="M-82.8 494.08L-82.8 494.08" stroke="rgba(40, 41, 104, 1)" stroke-width="1.5"></path><path d="M-82.8 494.08L50.35 501.09" stroke="rgba(40, 41, 104, 1)" stroke-width="1.5"></path><path d="M-89.65 683.03L-89.65 683.03" stroke="rgba(40, 41, 104, 1)" stroke-width="1.5"></path><path d="M-89.65 683.03L59.42 693.63" stroke="rgba(40, 41, 104, 1)" stroke-width="1.5"></path><path d="M-89.65 683.03L-82.8 494.08" stroke="rgba(40, 41, 104, 1)" stroke-width="1.5"></path><path d="M-89.65 683.03L50.35 501.09" stroke="rgba(40, 41, 104, 1)" stroke-width="1.5"></path><path d="M-89.65 683.03L53.44 398.84" stroke="rgba(40, 41, 104, 1)" stroke-width="1.5"></path><path d="M-89.65 683.03L231.84 549.7" stroke="rgba(40, 41, 104, 1)" stroke-width="1.5"></path><path d="M53.44 398.84L53.44 398.84" stroke="rgba(40, 41, 104, 1)" stroke-width="1.5"></path><path d="M53.44 398.84L50.35 501.09" stroke="rgba(40, 41, 104, 1)" stroke-width="1.5"></path><path d="M53.44 398.84L-82.8 494.08" stroke="rgba(40, 41, 104, 1)" stroke-width="1.5"></path><path d="M53.44 398.84L247.85 349.97" stroke="rgba(40, 41, 104, 1)" stroke-width="1.5"></path><path d="M53.44 398.84L231.84 549.7" stroke="rgba(40, 41, 104, 1)" stroke-width="1.5"></path><path d="M53.44 398.84L59.42 693.63" stroke="rgba(40, 41, 104, 1)" stroke-width="1.5"></path><path d="M50.35 501.09L50.35 501.09" stroke="rgba(40, 41, 104, 1)" stroke-width="1.5"></path><path d="M50.35 501.09L231.84 549.7" stroke="rgba(40, 41, 104, 1)" stroke-width="1.5"></path><path d="M59.42 693.63L59.42 693.63" stroke="rgba(40, 41, 104, 1)" stroke-width="1.5"></path><path d="M59.42 693.63L50.35 501.09" stroke="rgba(40, 41, 104, 1)" stroke-width="1.5"></path><path d="M59.42 693.63L231.84 549.7" stroke="rgba(40, 41, 104, 1)" stroke-width="1.5"></path><path d="M59.42 693.63L-82.8 494.08" stroke="rgba(40, 41, 104, 1)" stroke-width="1.5"></path><path d="M59.42 693.63L350.22 654.66" stroke="rgba(40, 41, 104, 1)" stroke-width="1.5"></path><path d="M247.85 349.97L247.85 349.97" stroke="rgba(40, 41, 104, 1)" stroke-width="1.5"></path><path d="M247.85 349.97L408.23 395.38" stroke="rgba(40, 41, 104, 1)" stroke-width="1.5"></path><path d="M247.85 349.97L341.57 521.31" stroke="rgba(40, 41, 104, 1)" stroke-width="1.5"></path><path d="M247.85 349.97L231.84 549.7" stroke="rgba(40, 41, 104, 1)" stroke-width="1.5"></path><path d="M231.84 549.7L231.84 549.7" stroke="rgba(40, 41, 104, 1)" stroke-width="1.5"></path><path d="M231.84 549.7L341.57 521.31" stroke="rgba(40, 41, 104, 1)" stroke-width="1.5"></path><path d="M231.84 549.7L350.22 654.66" stroke="rgba(40, 41, 104, 1)" stroke-width="1.5"></path><path d="M408.23 395.38L408.23 395.38" stroke="rgba(40, 41, 104, 1)" stroke-width="1.5"></path><path d="M408.23 395.38L500.67 369.26" stroke="rgba(40, 41, 104, 1)" stroke-width="1.5"></path><path d="M408.23 395.38L341.57 521.31" stroke="rgba(40, 41, 104, 1)" stroke-width="1.5"></path><path d="M408.23 395.38L518.4 532.28" stroke="rgba(40, 41, 104, 1)" stroke-width="1.5"></path><path d="M408.23 395.38L231.84 549.7" stroke="rgba(40, 41, 104, 1)" stroke-width="1.5"></path><path d="M408.23 395.38L350.22 654.66" stroke="rgba(40, 41, 104, 1)" stroke-width="1.5"></path><path d="M341.57 521.31L341.57 521.31" stroke="rgba(40, 41, 104, 1)" stroke-width="1.5"></path><path d="M341.57 521.31L350.22 654.66" stroke="rgba(40, 41, 104, 1)" stroke-width="1.5"></path><path d="M350.22 654.66L350.22 654.66" stroke="rgba(40, 41, 104, 1)" stroke-width="1.5"></path><path d="M350.22 654.66L519.42 701.85" stroke="rgba(40, 41, 104, 1)" stroke-width="1.5"></path><path d="M350.22 654.66L518.4 532.28" stroke="rgba(40, 41, 104, 1)" stroke-width="1.5"></path><path d="M500.67 369.26L500.67 369.26" stroke="rgba(40, 41, 104, 1)" stroke-width="1.5"></path><path d="M500.67 369.26L518.4 532.28" stroke="rgba(40, 41, 104, 1)" stroke-width="1.5"></path><path d="M500.67 369.26L681.43 409.28" stroke="rgba(40, 41, 104, 1)" stroke-width="1.5"></path><path d="M500.67 369.26L341.57 521.31" stroke="rgba(40, 41, 104, 1)" stroke-width="1.5"></path><path d="M500.67 369.26L696.03 523.57" stroke="rgba(40, 41, 104, 1)" stroke-width="1.5"></path><path d="M500.67 369.26L247.85 349.97" stroke="rgba(40, 41, 104, 1)" stroke-width="1.5"></path><path d="M518.4 532.28L518.4 532.28" stroke="rgba(40, 41, 104, 1)" stroke-width="1.5"></path><path d="M518.4 532.28L519.42 701.85" stroke="rgba(40, 41, 104, 1)" stroke-width="1.5"></path><path d="M518.4 532.28L341.57 521.31" stroke="rgba(40, 41, 104, 1)" stroke-width="1.5"></path><path d="M518.4 532.28L696.03 523.57" stroke="rgba(40, 41, 104, 1)" stroke-width="1.5"></path><path d="M519.42 701.85L519.42 701.85" stroke="rgba(40, 41, 104, 1)" stroke-width="1.5"></path><path d="M519.42 701.85L691.83 698.36" stroke="rgba(40, 41, 104, 1)" stroke-width="1.5"></path><path d="M681.43 409.28L681.43 409.28" stroke="rgba(40, 41, 104, 1)" stroke-width="1.5"></path><path d="M681.43 409.28L696.03 523.57" stroke="rgba(40, 41, 104, 1)" stroke-width="1.5"></path><path d="M681.43 409.28L839.37 339.21" stroke="rgba(40, 41, 104, 1)" stroke-width="1.5"></path><path d="M696.03 523.57L696.03 523.57" stroke="rgba(40, 41, 104, 1)" stroke-width="1.5"></path><path d="M696.03 523.57L839.58 489.27" stroke="rgba(40, 41, 104, 1)" stroke-width="1.5"></path><path d="M696.03 523.57L691.83 698.36" stroke="rgba(40, 41, 104, 1)" stroke-width="1.5"></path><path d="M691.83 698.36L691.83 698.36" stroke="rgba(40, 41, 104, 1)" stroke-width="1.5"></path><path d="M691.83 698.36L801.15 697.54" stroke="rgba(40, 41, 104, 1)" stroke-width="1.5"></path><path d="M691.83 698.36L518.4 532.28" stroke="rgba(40, 41, 104, 1)" stroke-width="1.5"></path><path d="M844.38 225.77L844.38 225.77" stroke="rgba(40, 41, 104, 1)" stroke-width="1.5"></path><path d="M844.38 225.77L839.37 339.21" stroke="rgba(40, 41, 104, 1)" stroke-width="1.5"></path><path d="M844.38 225.77L964.96 261.73" stroke="rgba(40, 41, 104, 1)" stroke-width="1.5"></path><path d="M844.38 225.77L972.44 83.91" stroke="rgba(40, 41, 104, 1)" stroke-width="1.5"></path><path d="M844.38 225.77L681.43 409.28" stroke="rgba(40, 41, 104, 1)" stroke-width="1.5"></path><path d="M844.38 225.77L839.58 489.27" stroke="rgba(40, 41, 104, 1)" stroke-width="1.5"></path><path d="M839.37 339.21L839.37 339.21" stroke="rgba(40, 41, 104, 1)" stroke-width="1.5"></path><path d="M839.37 339.21L964.96 261.73" stroke="rgba(40, 41, 104, 1)" stroke-width="1.5"></path><path d="M839.37 339.21L839.58 489.27" stroke="rgba(40, 41, 104, 1)" stroke-width="1.5"></path><path d="M839.37 339.21L1003.59 500.95" stroke="rgba(40, 41, 104, 1)" stroke-width="1.5"></path><path d="M839.58 489.27L839.58 489.27" stroke="rgba(40, 41, 104, 1)" stroke-width="1.5"></path><path d="M839.58 489.27L1003.59 500.95" stroke="rgba(40, 41, 104, 1)" stroke-width="1.5"></path><path d="M801.15 697.54L801.15 697.54" stroke="rgba(40, 41, 104, 1)" stroke-width="1.5"></path><path d="M801.15 697.54L696.03 523.57" stroke="rgba(40, 41, 104, 1)" stroke-width="1.5"></path><path d="M801.15 697.54L839.58 489.27" stroke="rgba(40, 41, 104, 1)" stroke-width="1.5"></path><path d="M801.15 697.54L519.42 701.85" stroke="rgba(40, 41, 104, 1)" stroke-width="1.5"></path><path d="M801.15 697.54L1003.59 500.95" stroke="rgba(40, 41, 104, 1)" stroke-width="1.5"></path><path d="M801.15 697.54L681.43 409.28" stroke="rgba(40, 41, 104, 1)" stroke-width="1.5"></path><path d="M960.44 -97.41L960.44 -97.41" stroke="rgba(40, 41, 104, 1)" stroke-width="1.5"></path><path d="M960.44 -97.41L1103.23 -71.67" stroke="rgba(40, 41, 104, 1)" stroke-width="1.5"></path><path d="M960.44 -97.41L972.44 83.91" stroke="rgba(40, 41, 104, 1)" stroke-width="1.5"></path><path d="M960.44 -97.41L1147.64 189.29" stroke="rgba(40, 41, 104, 1)" stroke-width="1.5"></path><path d="M960.44 -97.41L844.38 225.77" stroke="rgba(40, 41, 104, 1)" stroke-width="1.5"></path><path d="M960.44 -97.41L1309.24 -39.31" stroke="rgba(40, 41, 104, 1)" stroke-width="1.5"></path><path d="M972.44 83.91L972.44 83.91" stroke="rgba(40, 41, 104, 1)" stroke-width="1.5"></path><path d="M972.44 83.91L964.96 261.73" stroke="rgba(40, 41, 104, 1)" stroke-width="1.5"></path><path d="M972.44 83.91L1103.23 -71.67" stroke="rgba(40, 41, 104, 1)" stroke-width="1.5"></path><path d="M964.96 261.73L964.96 261.73" stroke="rgba(40, 41, 104, 1)" stroke-width="1.5"></path><path d="M1003.59 500.95L1003.59 500.95" stroke="rgba(40, 41, 104, 1)" stroke-width="1.5"></path><path d="M1003.59 500.95L1125.59 508.2" stroke="rgba(40, 41, 104, 1)" stroke-width="1.5"></path><path d="M1003.59 500.95L1112.88 349.87" stroke="rgba(40, 41, 104, 1)" stroke-width="1.5"></path><path d="M1103.23 -71.67L1103.23 -71.67" stroke="rgba(40, 41, 104, 1)" stroke-width="1.5"></path><path d="M1103.23 -71.67L1309.24 -39.31" stroke="rgba(40, 41, 104, 1)" stroke-width="1.5"></path><path d="M1103.23 -71.67L1296.14 102.4" stroke="rgba(40, 41, 104, 1)" stroke-width="1.5"></path><path d="M1103.23 -71.67L1147.64 189.29" stroke="rgba(40, 41, 104, 1)" stroke-width="1.5"></path><path d="M1147.64 189.29L1147.64 189.29" stroke="rgba(40, 41, 104, 1)" stroke-width="1.5"></path><path d="M1147.64 189.29L1285.6 227.3" stroke="rgba(40, 41, 104, 1)" stroke-width="1.5"></path><path d="M1147.64 189.29L1112.88 349.87" stroke="rgba(40, 41, 104, 1)" stroke-width="1.5"></path><path d="M1147.64 189.29L1296.14 102.4" stroke="rgba(40, 41, 104, 1)" stroke-width="1.5"></path><path d="M1147.64 189.29L964.96 261.73" stroke="rgba(40, 41, 104, 1)" stroke-width="1.5"></path><path d="M1112.88 349.87L1112.88 349.87" stroke="rgba(40, 41, 104, 1)" stroke-width="1.5"></path><path d="M1112.88 349.87L1125.59 508.2" stroke="rgba(40, 41, 104, 1)" stroke-width="1.5"></path><path d="M1112.88 349.87L1277.77 361.82" stroke="rgba(40, 41, 104, 1)" stroke-width="1.5"></path><path d="M1112.88 349.87L964.96 261.73" stroke="rgba(40, 41, 104, 1)" stroke-width="1.5"></path><path d="M1125.59 508.2L1125.59 508.2" stroke="rgba(40, 41, 104, 1)" stroke-width="1.5"></path><path d="M1125.59 508.2L1287.6 534.8" stroke="rgba(40, 41, 104, 1)" stroke-width="1.5"></path><path d="M1309.24 -39.31L1309.24 -39.31" stroke="rgba(40, 41, 104, 1)" stroke-width="1.5"></path><path d="M1309.24 -39.31L1411.5 -102" stroke="rgba(40, 41, 104, 1)" stroke-width="1.5"></path><path d="M1309.24 -39.31L1296.14 102.4" stroke="rgba(40, 41, 104, 1)" stroke-width="1.5"></path><path d="M1296.14 102.4L1296.14 102.4" stroke="rgba(40, 41, 104, 1)" stroke-width="1.5"></path><path d="M1296.14 102.4L1285.6 227.3" stroke="rgba(40, 41, 104, 1)" stroke-width="1.5"></path><path d="M1296.14 102.4L1394.04 216.6" stroke="rgba(40, 41, 104, 1)" stroke-width="1.5"></path><path d="M1296.14 102.4L1439.03 49.89" stroke="rgba(40, 41, 104, 1)" stroke-width="1.5"></path><path d="M1285.6 227.3L1285.6 227.3" stroke="rgba(40, 41, 104, 1)" stroke-width="1.5"></path><path d="M1285.6 227.3L1394.04 216.6" stroke="rgba(40, 41, 104, 1)" stroke-width="1.5"></path><path d="M1285.6 227.3L1277.77 361.82" stroke="rgba(40, 41, 104, 1)" stroke-width="1.5"></path><path d="M1285.6 227.3L1112.88 349.87" stroke="rgba(40, 41, 104, 1)" stroke-width="1.5"></path><path d="M1285.6 227.3L1439.03 49.89" stroke="rgba(40, 41, 104, 1)" stroke-width="1.5"></path><path d="M1277.77 361.82L1277.77 361.82" stroke="rgba(40, 41, 104, 1)" stroke-width="1.5"></path><path d="M1287.6 534.8L1287.6 534.8" stroke="rgba(40, 41, 104, 1)" stroke-width="1.5"></path><path d="M1287.6 534.8L1397.8 532.38" stroke="rgba(40, 41, 104, 1)" stroke-width="1.5"></path><path d="M1287.6 534.8L1308.63 685.72" stroke="rgba(40, 41, 104, 1)" stroke-width="1.5"></path><path d="M1287.6 534.8L1277.77 361.82" stroke="rgba(40, 41, 104, 1)" stroke-width="1.5"></path><path d="M1287.6 534.8L1424.08 645.81" stroke="rgba(40, 41, 104, 1)" stroke-width="1.5"></path><path d="M1287.6 534.8L1449.33 403.47" stroke="rgba(40, 41, 104, 1)" stroke-width="1.5"></path><path d="M1308.63 685.72L1308.63 685.72" stroke="rgba(40, 41, 104, 1)" stroke-width="1.5"></path><path d="M1308.63 685.72L1424.08 645.81" stroke="rgba(40, 41, 104, 1)" stroke-width="1.5"></path><path d="M1308.63 685.72L1397.8 532.38" stroke="rgba(40, 41, 104, 1)" stroke-width="1.5"></path><path d="M1308.63 685.72L1550 652.13" stroke="rgba(40, 41, 104, 1)" stroke-width="1.5"></path><path d="M1308.63 685.72L1125.59 508.2" stroke="rgba(40, 41, 104, 1)" stroke-width="1.5"></path><path d="M1411.5 -102L1411.5 -102" stroke="rgba(40, 41, 104, 1)" stroke-width="1.5"></path><path d="M1411.5 -102L1439.03 49.89" stroke="rgba(40, 41, 104, 1)" stroke-width="1.5"></path><path d="M1439.03 49.89L1439.03 49.89" stroke="rgba(40, 41, 104, 1)" stroke-width="1.5"></path><path d="M1439.03 49.89L1567.13 65.86" stroke="rgba(40, 41, 104, 1)" stroke-width="1.5"></path><path d="M1439.03 49.89L1309.24 -39.31" stroke="rgba(40, 41, 104, 1)" stroke-width="1.5"></path><path d="M1439.03 49.89L1578.95 -38.99" stroke="rgba(40, 41, 104, 1)" stroke-width="1.5"></path><path d="M1439.03 49.89L1394.04 216.6" stroke="rgba(40, 41, 104, 1)" stroke-width="1.5"></path><path d="M1394.04 216.6L1394.04 216.6" stroke="rgba(40, 41, 104, 1)" stroke-width="1.5"></path><path d="M1394.04 216.6L1578.56 211.21" stroke="rgba(40, 41, 104, 1)" stroke-width="1.5"></path><path d="M1394.04 216.6L1277.77 361.82" stroke="rgba(40, 41, 104, 1)" stroke-width="1.5"></path><path d="M1394.04 216.6L1449.33 403.47" stroke="rgba(40, 41, 104, 1)" stroke-width="1.5"></path><path d="M1449.33 403.47L1449.33 403.47" stroke="rgba(40, 41, 104, 1)" stroke-width="1.5"></path><path d="M1449.33 403.47L1397.8 532.38" stroke="rgba(40, 41, 104, 1)" stroke-width="1.5"></path><path d="M1449.33 403.47L1554.93 521.79" stroke="rgba(40, 41, 104, 1)" stroke-width="1.5"></path><path d="M1449.33 403.47L1277.77 361.82" stroke="rgba(40, 41, 104, 1)" stroke-width="1.5"></path><path d="M1397.8 532.38L1397.8 532.38" stroke="rgba(40, 41, 104, 1)" stroke-width="1.5"></path><path d="M1397.8 532.38L1424.08 645.81" stroke="rgba(40, 41, 104, 1)" stroke-width="1.5"></path><path d="M1424.08 645.81L1424.08 645.81" stroke="rgba(40, 41, 104, 1)" stroke-width="1.5"></path><path d="M1424.08 645.81L1550 652.13" stroke="rgba(40, 41, 104, 1)" stroke-width="1.5"></path><path d="M1424.08 645.81L1554.93 521.79" stroke="rgba(40, 41, 104, 1)" stroke-width="1.5"></path><path d="M1578.95 -38.99L1578.95 -38.99" stroke="rgba(40, 41, 104, 1)" stroke-width="1.5"></path><path d="M1578.95 -38.99L1567.13 65.86" stroke="rgba(40, 41, 104, 1)" stroke-width="1.5"></path><path d="M1567.13 65.86L1567.13 65.86" stroke="rgba(40, 41, 104, 1)" stroke-width="1.5"></path><path d="M1567.13 65.86L1578.56 211.21" stroke="rgba(40, 41, 104, 1)" stroke-width="1.5"></path><path d="M1567.13 65.86L1411.5 -102" stroke="rgba(40, 41, 104, 1)" stroke-width="1.5"></path><path d="M1578.56 211.21L1578.56 211.21" stroke="rgba(40, 41, 104, 1)" stroke-width="1.5"></path><path d="M1578.56 211.21L1439.03 49.89" stroke="rgba(40, 41, 104, 1)" stroke-width="1.5"></path><path d="M1578.56 211.21L1449.33 403.47" stroke="rgba(40, 41, 104, 1)" stroke-width="1.5"></path><path d="M1578.56 211.21L1578.95 -38.99" stroke="rgba(40, 41, 104, 1)" stroke-width="1.5"></path><path d="M1554.93 521.79L1554.93 521.79" stroke="rgba(40, 41, 104, 1)" stroke-width="1.5"></path><path d="M1554.93 521.79L1550 652.13" stroke="rgba(40, 41, 104, 1)" stroke-width="1.5"></path><path d="M1554.93 521.79L1397.8 532.38" stroke="rgba(40, 41, 104, 1)" stroke-width="1.5"></path><path d="M1554.93 521.79L1287.6 534.8" stroke="rgba(40, 41, 104, 1)" stroke-width="1.5"></path><path d="M1554.93 521.79L1308.63 685.72" stroke="rgba(40, 41, 104, 1)" stroke-width="1.5"></path><path d="M1550 652.13L1550 652.13" stroke="rgba(40, 41, 104, 1)" stroke-width="1.5"></path><circle r="5" cx="-51.39" cy="337.61" fill="rgba(40, 41, 104, 1)"></circle><circle r="5" cx="-82.8" cy="494.08" fill="rgba(40, 41, 104, 1)"></circle><circle r="5" cx="-89.65" cy="683.03" fill="rgba(40, 41, 104, 1)"></circle><circle r="5" cx="53.44" cy="398.84" fill="rgba(40, 41, 104, 1)"></circle><circle r="5" cx="50.35" cy="501.09" fill="rgba(40, 41, 104, 1)"></circle><circle r="5" cx="59.42" cy="693.63" fill="rgba(40, 41, 104, 1)"></circle><circle r="5" cx="247.85" cy="349.97" fill="rgba(40, 41, 104, 1)"></circle><circle r="5" cx="231.84" cy="549.7" fill="rgba(40, 41, 104, 1)"></circle><circle r="5" cx="408.23" cy="395.38" fill="rgba(40, 41, 104, 1)"></circle><circle r="5" cx="341.57" cy="521.31" fill="rgba(40, 41, 104, 1)"></circle><circle r="5" cx="350.22" cy="654.66" fill="rgba(40, 41, 104, 1)"></circle><circle r="5" cx="500.67" cy="369.26" fill="rgba(40, 41, 104, 1)"></circle><circle r="5" cx="518.4" cy="532.28" fill="rgba(40, 41, 104, 1)"></circle><circle r="5" cx="519.42" cy="701.85" fill="rgba(40, 41, 104, 1)"></circle><circle r="5" cx="681.43" cy="409.28" fill="rgba(40, 41, 104, 1)"></circle><circle r="5" cx="696.03" cy="523.57" fill="rgba(40, 41, 104, 1)"></circle><circle r="5" cx="691.83" cy="698.36" fill="rgba(40, 41, 104, 1)"></circle><circle r="5" cx="844.38" cy="225.77" fill="rgba(40, 41, 104, 1)"></circle><circle r="5" cx="839.37" cy="339.21" fill="rgba(40, 41, 104, 1)"></circle><circle r="5" cx="839.58" cy="489.27" fill="rgba(40, 41, 104, 1)"></circle><circle r="5" cx="801.15" cy="697.54" fill="rgba(40, 41, 104, 1)"></circle><circle r="5" cx="960.44" cy="-97.41" fill="rgba(40, 41, 104, 1)"></circle><circle r="5" cx="972.44" cy="83.91" fill="rgba(40, 41, 104, 1)"></circle><circle r="5" cx="964.96" cy="261.73" fill="rgba(40, 41, 104, 1)"></circle><circle r="5" cx="1003.59" cy="500.95" fill="rgba(40, 41, 104, 1)"></circle><circle r="5" cx="1103.23" cy="-71.67" fill="rgba(40, 41, 104, 1)"></circle><circle r="5" cx="1147.64" cy="189.29" fill="rgba(40, 41, 104, 1)"></circle><circle r="5" cx="1112.88" cy="349.87" fill="rgba(40, 41, 104, 1)"></circle><circle r="5" cx="1125.59" cy="508.2" fill="rgba(40, 41, 104, 1)"></circle><circle r="5" cx="1309.24" cy="-39.31" fill="rgba(40, 41, 104, 1)"></circle><circle r="5" cx="1296.14" cy="102.4" fill="rgba(40, 41, 104, 1)"></circle><circle r="5" cx="1285.6" cy="227.3" fill="rgba(40, 41, 104, 1)"></circle><circle r="5" cx="1277.77" cy="361.82" fill="rgba(40, 41, 104, 1)"></circle><circle r="5" cx="1287.6" cy="534.8" fill="rgba(40, 41, 104, 1)"></circle><circle r="5" cx="1308.63" cy="685.72" fill="rgba(40, 41, 104, 1)"></circle><circle r="5" cx="1411.5" cy="-102" fill="rgba(40, 41, 104, 1)"></circle><circle r="5" cx="1439.03" cy="49.89" fill="rgba(40, 41, 104, 1)"></circle><circle r="5" cx="1394.04" cy="216.6" fill="rgba(40, 41, 104, 1)"></circle><circle r="5" cx="1449.33" cy="403.47" fill="rgba(40, 41, 104, 1)"></circle><circle r="5" cx="1397.8" cy="532.38" fill="rgba(40, 41, 104, 1)"></circle><circle r="5" cx="1424.08" cy="645.81" fill="rgba(40, 41, 104, 1)"></circle><circle r="5" cx="1578.95" cy="-38.99" fill="rgba(40, 41, 104, 1)"></circle><circle r="5" cx="1567.13" cy="65.86" fill="rgba(40, 41, 104, 1)"></circle><circle r="5" cx="1578.56" cy="211.21" fill="rgba(40, 41, 104, 1)"></circle><circle r="5" cx="1554.93" cy="521.79" fill="rgba(40, 41, 104, 1)"></circle><circle r="5" cx="1550" cy="652.13" fill="rgba(40, 41, 104, 1)"></circle><path d="M850.93 340.08L850.93 340.08" stroke="hsl(232.20000000000005, 60.4%, 48.9%)" stroke-width="1.5"></path><path d="M850.93 340.08L970.41 371.73" stroke="hsl(232.20000000000005, 60.4%, 48.9%)" stroke-width="1.5"></path><path d="M850.93 340.08L667.32 405.82" stroke="hsl(232.20000000000005, 60.4%, 48.9%)" stroke-width="1.5"></path><path d="M818.06 649.36L818.06 649.36" stroke="hsl(232.20000000000005, 60.4%, 48.9%)" stroke-width="1.5"></path><path d="M818.06 649.36L810.3 549.11" stroke="hsl(232.20000000000005, 60.4%, 48.9%)" stroke-width="1.5"></path><path d="M818.06 649.36L692.89 709.13" stroke="hsl(232.20000000000005, 60.4%, 48.9%)" stroke-width="1.5"></path><path d="M818.06 649.36L987.18 657.99" stroke="hsl(232.20000000000005, 60.4%, 48.9%)" stroke-width="1.5"></path><path d="M818.06 649.36L954.22 539.86" stroke="hsl(232.20000000000005, 60.4%, 48.9%)" stroke-width="1.5"></path><path d="M970.41 371.73L970.41 371.73" stroke="hsl(232.20000000000005, 60.4%, 48.9%)" stroke-width="1.5"></path><path d="M1102.8 501.24L1102.8 501.24" stroke="hsl(232.20000000000005, 60.4%, 48.9%)" stroke-width="1.5"></path><path d="M1102.8 501.24L1146.47 373.43" stroke="hsl(232.20000000000005, 60.4%, 48.9%)" stroke-width="1.5"></path><path d="M1102.8 501.24L954.22 539.86" stroke="hsl(232.20000000000005, 60.4%, 48.9%)" stroke-width="1.5"></path><path d="M1102.8 501.24L1256.04 538.54" stroke="hsl(232.20000000000005, 60.4%, 48.9%)" stroke-width="1.5"></path><path d="M1102.8 501.24L970.41 371.73" stroke="hsl(232.20000000000005, 60.4%, 48.9%)" stroke-width="1.5"></path><path d="M1102.8 501.24L987.18 657.99" stroke="hsl(232.20000000000005, 60.4%, 48.9%)" stroke-width="1.5"></path><path d="M1102.8 501.24L1291.53 394.9" stroke="hsl(232.20000000000005, 60.4%, 48.9%)" stroke-width="1.5"></path><path d="M1556.91 47.71L1556.91 47.71" stroke="hsl(232.20000000000005, 60.4%, 48.9%)" stroke-width="1.5"></path><path d="M1556.91 47.71L1459.26 74.2" stroke="hsl(232.20000000000005, 60.4%, 48.9%)" stroke-width="1.5"></path><path d="M1556.91 47.71L1448.97 -43.72" stroke="hsl(232.20000000000005, 60.4%, 48.9%)" stroke-width="1.5"></path><path d="M1556.91 47.71L1585.14 -106.64" stroke="hsl(232.20000000000005, 60.4%, 48.9%)" stroke-width="1.5"></path><path d="M1556.91 47.71L1285.51 60.81" stroke="hsl(232.20000000000005, 60.4%, 48.9%)" stroke-width="1.5"></path><path d="M1556.91 47.71L1434.51 345.13" stroke="hsl(232.20000000000005, 60.4%, 48.9%)" stroke-width="1.5"></path><path d="M1556.91 47.71L1252.95 -85.3" stroke="hsl(232.20000000000005, 60.4%, 48.9%)" stroke-width="1.5"></path><path d="M-52.14 551.53L-52.14 551.53" stroke="hsl(232.20000000000005, 60.4%, 48.9%)" stroke-width="1.5"></path><path d="M-52.14 551.53L-65.1 654.41" stroke="hsl(232.20000000000005, 60.4%, 48.9%)" stroke-width="1.5"></path><path d="M-52.14 551.53L56.12 552" stroke="hsl(232.20000000000005, 60.4%, 48.9%)" stroke-width="1.5"></path><path d="M-52.14 551.53L46.34 680.62" stroke="hsl(232.20000000000005, 60.4%, 48.9%)" stroke-width="1.5"></path><path d="M-52.14 551.53L238.13 504.43" stroke="hsl(232.20000000000005, 60.4%, 48.9%)" stroke-width="1.5"></path><path d="M-65.1 654.41L-65.1 654.41" stroke="hsl(232.20000000000005, 60.4%, 48.9%)" stroke-width="1.5"></path><path d="M-65.1 654.41L46.34 680.62" stroke="hsl(232.20000000000005, 60.4%, 48.9%)" stroke-width="1.5"></path><path d="M-65.1 654.41L56.12 552" stroke="hsl(232.20000000000005, 60.4%, 48.9%)" stroke-width="1.5"></path><path d="M-65.1 654.41L200.12 709.24" stroke="hsl(232.20000000000005, 60.4%, 48.9%)" stroke-width="1.5"></path><path d="M-65.1 654.41L238.13 504.43" stroke="hsl(232.20000000000005, 60.4%, 48.9%)" stroke-width="1.5"></path><path d="M-65.1 654.41L347.39 664.43" stroke="hsl(232.20000000000005, 60.4%, 48.9%)" stroke-width="1.5"></path><path d="M56.12 552L56.12 552" stroke="hsl(232.20000000000005, 60.4%, 48.9%)" stroke-width="1.5"></path><path d="M56.12 552L46.34 680.62" stroke="hsl(232.20000000000005, 60.4%, 48.9%)" stroke-width="1.5"></path><path d="M46.34 680.62L46.34 680.62" stroke="hsl(232.20000000000005, 60.4%, 48.9%)" stroke-width="1.5"></path><path d="M46.34 680.62L200.12 709.24" stroke="hsl(232.20000000000005, 60.4%, 48.9%)" stroke-width="1.5"></path><path d="M46.34 680.62L238.13 504.43" stroke="hsl(232.20000000000005, 60.4%, 48.9%)" stroke-width="1.5"></path><path d="M238.13 504.43L238.13 504.43" stroke="hsl(232.20000000000005, 60.4%, 48.9%)" stroke-width="1.5"></path><path d="M238.13 504.43L399.2 545.71" stroke="hsl(232.20000000000005, 60.4%, 48.9%)" stroke-width="1.5"></path><path d="M238.13 504.43L56.12 552" stroke="hsl(232.20000000000005, 60.4%, 48.9%)" stroke-width="1.5"></path><path d="M238.13 504.43L347.39 664.43" stroke="hsl(232.20000000000005, 60.4%, 48.9%)" stroke-width="1.5"></path><path d="M238.13 504.43L200.12 709.24" stroke="hsl(232.20000000000005, 60.4%, 48.9%)" stroke-width="1.5"></path><path d="M200.12 709.24L200.12 709.24" stroke="hsl(232.20000000000005, 60.4%, 48.9%)" stroke-width="1.5"></path><path d="M200.12 709.24L347.39 664.43" stroke="hsl(232.20000000000005, 60.4%, 48.9%)" stroke-width="1.5"></path><path d="M200.12 709.24L56.12 552" stroke="hsl(232.20000000000005, 60.4%, 48.9%)" stroke-width="1.5"></path><path d="M200.12 709.24L399.2 545.71" stroke="hsl(232.20000000000005, 60.4%, 48.9%)" stroke-width="1.5"></path><path d="M399.2 545.71L399.2 545.71" stroke="hsl(232.20000000000005, 60.4%, 48.9%)" stroke-width="1.5"></path><path d="M399.2 545.71L347.39 664.43" stroke="hsl(232.20000000000005, 60.4%, 48.9%)" stroke-width="1.5"></path><path d="M399.2 545.71L561.61 553.29" stroke="hsl(232.20000000000005, 60.4%, 48.9%)" stroke-width="1.5"></path><path d="M399.2 545.71L488.65 709.89" stroke="hsl(232.20000000000005, 60.4%, 48.9%)" stroke-width="1.5"></path><path d="M347.39 664.43L347.39 664.43" stroke="hsl(232.20000000000005, 60.4%, 48.9%)" stroke-width="1.5"></path><path d="M347.39 664.43L488.65 709.89" stroke="hsl(232.20000000000005, 60.4%, 48.9%)" stroke-width="1.5"></path><path d="M347.39 664.43L561.61 553.29" stroke="hsl(232.20000000000005, 60.4%, 48.9%)" stroke-width="1.5"></path><path d="M347.39 664.43L46.34 680.62" stroke="hsl(232.20000000000005, 60.4%, 48.9%)" stroke-width="1.5"></path><path d="M561.61 553.29L561.61 553.29" stroke="hsl(232.20000000000005, 60.4%, 48.9%)" stroke-width="1.5"></path><path d="M561.61 553.29L654.44 490.33" stroke="hsl(232.20000000000005, 60.4%, 48.9%)" stroke-width="1.5"></path><path d="M561.61 553.29L488.65 709.89" stroke="hsl(232.20000000000005, 60.4%, 48.9%)" stroke-width="1.5"></path><path d="M561.61 553.29L667.32 405.82" stroke="hsl(232.20000000000005, 60.4%, 48.9%)" stroke-width="1.5"></path><path d="M561.61 553.29L692.89 709.13" stroke="hsl(232.20000000000005, 60.4%, 48.9%)" stroke-width="1.5"></path><path d="M488.65 709.89L488.65 709.89" stroke="hsl(232.20000000000005, 60.4%, 48.9%)" stroke-width="1.5"></path><path d="M667.32 405.82L667.32 405.82" stroke="hsl(232.20000000000005, 60.4%, 48.9%)" stroke-width="1.5"></path><path d="M667.32 405.82L654.44 490.33" stroke="hsl(232.20000000000005, 60.4%, 48.9%)" stroke-width="1.5"></path><path d="M654.44 490.33L654.44 490.33" stroke="hsl(232.20000000000005, 60.4%, 48.9%)" stroke-width="1.5"></path><path d="M654.44 490.33L810.3 549.11" stroke="hsl(232.20000000000005, 60.4%, 48.9%)" stroke-width="1.5"></path><path d="M654.44 490.33L692.89 709.13" stroke="hsl(232.20000000000005, 60.4%, 48.9%)" stroke-width="1.5"></path><path d="M654.44 490.33L818.06 649.36" stroke="hsl(232.20000000000005, 60.4%, 48.9%)" stroke-width="1.5"></path><path d="M654.44 490.33L850.93 340.08" stroke="hsl(232.20000000000005, 60.4%, 48.9%)" stroke-width="1.5"></path><path d="M692.89 709.13L692.89 709.13" stroke="hsl(232.20000000000005, 60.4%, 48.9%)" stroke-width="1.5"></path><path d="M692.89 709.13L810.3 549.11" stroke="hsl(232.20000000000005, 60.4%, 48.9%)" stroke-width="1.5"></path><path d="M692.89 709.13L488.65 709.89" stroke="hsl(232.20000000000005, 60.4%, 48.9%)" stroke-width="1.5"></path><path d="M810.3 549.11L810.3 549.11" stroke="hsl(232.20000000000005, 60.4%, 48.9%)" stroke-width="1.5"></path><path d="M810.3 549.11L954.22 539.86" stroke="hsl(232.20000000000005, 60.4%, 48.9%)" stroke-width="1.5"></path><path d="M810.3 549.11L667.32 405.82" stroke="hsl(232.20000000000005, 60.4%, 48.9%)" stroke-width="1.5"></path><path d="M810.3 549.11L987.18 657.99" stroke="hsl(232.20000000000005, 60.4%, 48.9%)" stroke-width="1.5"></path><path d="M954.22 539.86L954.22 539.86" stroke="hsl(232.20000000000005, 60.4%, 48.9%)" stroke-width="1.5"></path><path d="M954.22 539.86L987.18 657.99" stroke="hsl(232.20000000000005, 60.4%, 48.9%)" stroke-width="1.5"></path><path d="M987.18 657.99L987.18 657.99" stroke="hsl(232.20000000000005, 60.4%, 48.9%)" stroke-width="1.5"></path><path d="M987.18 657.99L970.41 371.73" stroke="hsl(232.20000000000005, 60.4%, 48.9%)" stroke-width="1.5"></path><path d="M987.18 657.99L1256.04 538.54" stroke="hsl(232.20000000000005, 60.4%, 48.9%)" stroke-width="1.5"></path><path d="M1150.95 249.59L1150.95 249.59" stroke="hsl(232.20000000000005, 60.4%, 48.9%)" stroke-width="1.5"></path><path d="M1150.95 249.59L1146.47 373.43" stroke="hsl(232.20000000000005, 60.4%, 48.9%)" stroke-width="1.5"></path><path d="M1150.95 249.59L1300.28 258.36" stroke="hsl(232.20000000000005, 60.4%, 48.9%)" stroke-width="1.5"></path><path d="M1146.47 373.43L1146.47 373.43" stroke="hsl(232.20000000000005, 60.4%, 48.9%)" stroke-width="1.5"></path><path d="M1146.47 373.43L1291.53 394.9" stroke="hsl(232.20000000000005, 60.4%, 48.9%)" stroke-width="1.5"></path><path d="M1146.47 373.43L970.41 371.73" stroke="hsl(232.20000000000005, 60.4%, 48.9%)" stroke-width="1.5"></path><path d="M1146.47 373.43L1300.28 258.36" stroke="hsl(232.20000000000005, 60.4%, 48.9%)" stroke-width="1.5"></path><path d="M1252.95 -85.3L1252.95 -85.3" stroke="hsl(232.20000000000005, 60.4%, 48.9%)" stroke-width="1.5"></path><path d="M1252.95 -85.3L1285.51 60.81" stroke="hsl(232.20000000000005, 60.4%, 48.9%)" stroke-width="1.5"></path><path d="M1252.95 -85.3L1448.97 -43.72" stroke="hsl(232.20000000000005, 60.4%, 48.9%)" stroke-width="1.5"></path><path d="M1252.95 -85.3L1459.26 74.2" stroke="hsl(232.20000000000005, 60.4%, 48.9%)" stroke-width="1.5"></path><path d="M1252.95 -85.3L1585.14 -106.64" stroke="hsl(232.20000000000005, 60.4%, 48.9%)" stroke-width="1.5"></path><path d="M1252.95 -85.3L1300.28 258.36" stroke="hsl(232.20000000000005, 60.4%, 48.9%)" stroke-width="1.5"></path><path d="M1285.51 60.81L1285.51 60.81" stroke="hsl(232.20000000000005, 60.4%, 48.9%)" stroke-width="1.5"></path><path d="M1285.51 60.81L1459.26 74.2" stroke="hsl(232.20000000000005, 60.4%, 48.9%)" stroke-width="1.5"></path><path d="M1300.28 258.36L1300.28 258.36" stroke="hsl(232.20000000000005, 60.4%, 48.9%)" stroke-width="1.5"></path><path d="M1300.28 258.36L1291.53 394.9" stroke="hsl(232.20000000000005, 60.4%, 48.9%)" stroke-width="1.5"></path><path d="M1300.28 258.36L1434.51 345.13" stroke="hsl(232.20000000000005, 60.4%, 48.9%)" stroke-width="1.5"></path><path d="M1291.53 394.9L1291.53 394.9" stroke="hsl(232.20000000000005, 60.4%, 48.9%)" stroke-width="1.5"></path><path d="M1291.53 394.9L1256.04 538.54" stroke="hsl(232.20000000000005, 60.4%, 48.9%)" stroke-width="1.5"></path><path d="M1291.53 394.9L1434.51 345.13" stroke="hsl(232.20000000000005, 60.4%, 48.9%)" stroke-width="1.5"></path><path d="M1291.53 394.9L1150.95 249.59" stroke="hsl(232.20000000000005, 60.4%, 48.9%)" stroke-width="1.5"></path><path d="M1256.04 538.54L1256.04 538.54" stroke="hsl(232.20000000000005, 60.4%, 48.9%)" stroke-width="1.5"></path><path d="M1256.04 538.54L1291.74 668.62" stroke="hsl(232.20000000000005, 60.4%, 48.9%)" stroke-width="1.5"></path><path d="M1291.74 668.62L1291.74 668.62" stroke="hsl(232.20000000000005, 60.4%, 48.9%)" stroke-width="1.5"></path><path d="M1291.74 668.62L1392.31 656.32" stroke="hsl(232.20000000000005, 60.4%, 48.9%)" stroke-width="1.5"></path><path d="M1291.74 668.62L1102.8 501.24" stroke="hsl(232.20000000000005, 60.4%, 48.9%)" stroke-width="1.5"></path><path d="M1291.74 668.62L1291.53 394.9" stroke="hsl(232.20000000000005, 60.4%, 48.9%)" stroke-width="1.5"></path><path d="M1448.97 -43.72L1448.97 -43.72" stroke="hsl(232.20000000000005, 60.4%, 48.9%)" stroke-width="1.5"></path><path d="M1448.97 -43.72L1459.26 74.2" stroke="hsl(232.20000000000005, 60.4%, 48.9%)" stroke-width="1.5"></path><path d="M1448.97 -43.72L1585.14 -106.64" stroke="hsl(232.20000000000005, 60.4%, 48.9%)" stroke-width="1.5"></path><path d="M1448.97 -43.72L1285.51 60.81" stroke="hsl(232.20000000000005, 60.4%, 48.9%)" stroke-width="1.5"></path><path d="M1448.97 -43.72L1300.28 258.36" stroke="hsl(232.20000000000005, 60.4%, 48.9%)" stroke-width="1.5"></path><path d="M1459.26 74.2L1459.26 74.2" stroke="hsl(232.20000000000005, 60.4%, 48.9%)" stroke-width="1.5"></path><path d="M1459.26 74.2L1585.14 -106.64" stroke="hsl(232.20000000000005, 60.4%, 48.9%)" stroke-width="1.5"></path><path d="M1459.26 74.2L1300.28 258.36" stroke="hsl(232.20000000000005, 60.4%, 48.9%)" stroke-width="1.5"></path><path d="M1434.51 345.13L1434.51 345.13" stroke="hsl(232.20000000000005, 60.4%, 48.9%)" stroke-width="1.5"></path><path d="M1434.51 345.13L1560.36 392.74" stroke="hsl(232.20000000000005, 60.4%, 48.9%)" stroke-width="1.5"></path><path d="M1434.51 345.13L1590.21 509.15" stroke="hsl(232.20000000000005, 60.4%, 48.9%)" stroke-width="1.5"></path><path d="M1434.51 345.13L1256.04 538.54" stroke="hsl(232.20000000000005, 60.4%, 48.9%)" stroke-width="1.5"></path><path d="M1434.51 345.13L1459.26 74.2" stroke="hsl(232.20000000000005, 60.4%, 48.9%)" stroke-width="1.5"></path><path d="M1392.31 656.32L1392.31 656.32" stroke="hsl(232.20000000000005, 60.4%, 48.9%)" stroke-width="1.5"></path><path d="M1392.31 656.32L1256.04 538.54" stroke="hsl(232.20000000000005, 60.4%, 48.9%)" stroke-width="1.5"></path><path d="M1585.14 -106.64L1585.14 -106.64" stroke="hsl(232.20000000000005, 60.4%, 48.9%)" stroke-width="1.5"></path><path d="M1560.36 392.74L1560.36 392.74" stroke="hsl(232.20000000000005, 60.4%, 48.9%)" stroke-width="1.5"></path><path d="M1560.36 392.74L1590.21 509.15" stroke="hsl(232.20000000000005, 60.4%, 48.9%)" stroke-width="1.5"></path><path d="M1560.36 392.74L1291.53 394.9" stroke="hsl(232.20000000000005, 60.4%, 48.9%)" stroke-width="1.5"></path><path d="M1590.21 509.15L1590.21 509.15" stroke="hsl(232.20000000000005, 60.4%, 48.9%)" stroke-width="1.5"></path><path d="M1590.21 509.15L1392.31 656.32" stroke="hsl(232.20000000000005, 60.4%, 48.9%)" stroke-width="1.5"></path><circle r="25" cx="850.93" cy="340.08" fill="url(#SvgjsRadialGradient1732)"></circle><circle r="25" cx="818.06" cy="649.36" fill="url(#SvgjsRadialGradient1732)"></circle><circle r="25" cx="970.41" cy="371.73" fill="url(#SvgjsRadialGradient1732)"></circle><circle r="25" cx="1102.8" cy="501.24" fill="url(#SvgjsRadialGradient1732)"></circle><circle r="25" cx="1556.91" cy="47.71" fill="url(#SvgjsRadialGradient1732)"></circle><circle r="5" cx="-52.14" cy="551.53" fill="#939acd"></circle><circle r="5" cx="-65.1" cy="654.41" fill="#939acd"></circle><circle r="5" cx="56.12" cy="552" fill="#939acd"></circle><circle r="5" cx="46.34" cy="680.62" fill="#939acd"></circle><circle r="5" cx="238.13" cy="504.43" fill="#939acd"></circle><circle r="5" cx="200.12" cy="709.24" fill="#939acd"></circle><circle r="5" cx="399.2" cy="545.71" fill="#939acd"></circle><circle r="5" cx="347.39" cy="664.43" fill="#939acd"></circle><circle r="5" cx="561.61" cy="553.29" fill="#939acd"></circle><circle r="5" cx="488.65" cy="709.89" fill="#939acd"></circle><circle r="5" cx="667.32" cy="405.82" fill="#939acd"></circle><circle r="5" cx="654.44" cy="490.33" fill="#939acd"></circle><circle r="5" cx="692.89" cy="709.13" fill="#939acd"></circle><circle r="5" cx="810.3" cy="549.11" fill="#939acd"></circle><circle r="5" cx="954.22" cy="539.86" fill="#939acd"></circle><circle r="5" cx="987.18" cy="657.99" fill="#939acd"></circle><circle r="5" cx="1150.95" cy="249.59" fill="#939acd"></circle><circle r="5" cx="1146.47" cy="373.43" fill="#939acd"></circle><circle r="5" cx="1252.95" cy="-85.3" fill="#939acd"></circle><circle r="5" cx="1285.51" cy="60.81" fill="#939acd"></circle><circle r="5" cx="1300.28" cy="258.36" fill="#939acd"></circle><circle r="5" cx="1291.53" cy="394.9" fill="#939acd"></circle><circle r="5" cx="1256.04" cy="538.54" fill="#939acd"></circle><circle r="5" cx="1291.74" cy="668.62" fill="#939acd"></circle><circle r="5" cx="1448.97" cy="-43.72" fill="#939acd"></circle><circle r="5" cx="1459.26" cy="74.2" fill="#939acd"></circle><circle r="5" cx="1434.51" cy="345.13" fill="#939acd"></circle><circle r="5" cx="1392.31" cy="656.32" fill="#939acd"></circle><circle r="5" cx="1585.14" cy="-106.64" fill="#939acd"></circle><circle r="5" cx="1560.36" cy="392.74" fill="#939acd"></circle><circle r="5" cx="1590.21" cy="509.15" fill="#939acd"></circle></g><defs><mask id="SvgjsMask1730"><rect width="1440" height="560" fill="#ffffff"></rect></mask><linearGradient x1="84.72%" y1="139.29%" x2="15.28%" y2="-39.29%" gradientUnits="userSpaceOnUse" id="SvgjsLinearGradient1731"><stop stop-color="rgba(14, 42, 71, 1)" offset="0"></stop><stop stop-color="rgba(154, 0, 63, 1)" offset="1"></stop></linearGradient><radialGradient id="SvgjsRadialGradient1732"><stop stop-color="#ffffff" offset="0.1"></stop><stop stop-color="rgba(38, 53, 154, 1)" offset="0.2"></stop><stop stop-color="rgba(38, 53, 154, 0)" offset="1"></stop></radialGradient></defs></svg>