<?xml version="1.0" encoding="UTF-8"?>
<svg id="Capa_2" data-name="Capa 2" xmlns="http://www.w3.org/2000/svg" viewBox="0 0 765.61 519.69">
  <defs>
    <style>
      .cls-1, .cls-2, .cls-3, .cls-4, .cls-5, .cls-6, .cls-7 {
        stroke: #1d1d1b;
        stroke-miterlimit: 10;
        stroke-width: .25px;
      }

      .cls-1, .cls-8 {
        fill: none;
      }

      .cls-2 {
        fill: #ef7f96;
      }

      .cls-3 {
        fill: #d2c98f;
      }

      .cls-4 {
        fill: #dbdbdb;
      }

      .cls-5 {
        fill: #e2b291;
      }

      .cls-6 {
        fill: #98bfd5;
      }

      .cls-9 {
        fill: #a3daf1;
      }

      .cls-7 {
        fill: #f3a5b8;
      }
    </style>
  </defs>
  <g id="trazos">
    <path class="cls-9" d="M30.27,444.81l29.07-14.43,31.99-6.67,27.59-15.89,30.88-9.5,27.63-23.82,27.94-29,11.65,1.53,31.95-3.51,30.24-12.37,15.94-3.24,13.36-2.85,2.23-.66,17.87-8.06,9.81-4.38,8.76-2.62,7.36-2.11,3.85-1.17,4.91-1.11,8.8-2.8,10.42-16.07,.39-9.81c9.99,.92,19.22,1.45,26.7,1.09l-.62-14.3c-.42-3.5-3.24-5.93-7.87-7.55-6.7-2.87-13.1-4.25-21.5-5.01l-4.53-.69-5.42-.82c-1.33-.27-2.7-.05-4.11,.82-1.35,.87-2.46,1.79-3.34,2.77-11.37,17.29-25.29,31.4-42.9,40.9-14.5,8.18-30.61,13.07-48.39,14.57-24.74,2.38-53.03,4.9-60.15,6.64l-18.34,11.03-11.88,10.71-2.95,3.61-16.36,20.04-23.91,15.96-25.72,8.73-33.17,6.15-25.78,15.86-25.88,1.91,3.47,36.13Z"/>
    <path class="cls-1" d="M400.22,311.04l-21.22-19.53,3.52-5.43,.39-9.81c9.31,.94,18.24,1.35,26.7,1.09l.38,11.04c.26,7.14-.79,12.91-4.17,16.25l-5.61,6.39"/>
    <polyline class="cls-1" points="386.66 326.56 400.22 311.04 379 291.5 372.11 302.14 363.3 304.95 386.66 326.56"/>
    <polygon class="cls-1" points="345.39 309.87 376.18 338.58 386.66 326.56 363.3 304.95 358.4 306.05 345.39 309.87"/>
    <polyline class="cls-1" points="366.02 350.26 376.18 338.58 345.39 309.87 338.43 311.95 329.05 316.14 366.02 350.26"/>
    <path class="cls-1" d="M215.62,443.08l-21.64,1.73-1.84-20.21c.73-3.85,1.84-6.53,5.34-8.5,4.16-2.07,9.64-4.32,15.74-6.65l2.39,33.63Z"/>
    <path class="cls-1" d="M231.13,441.72l-15.5,1.36-2.39-33.63c4.48-1.58,9.58-3.06,15.21-4.44l2.69,36.71Z"/>
    <path class="cls-1" d="M246.76,440.36l-15.64,1.36-2.69-36.71c4.69-1.17,9.89-2.25,15.51-3.24l2.81,38.6Z"/>
    <polygon class="cls-1" points="262.31 439.18 246.76 440.36 243.95 401.76 250.66 400.68 259.42 399.9 262.31 439.18"/>
    <polygon class="cls-1" points="277.9 437.82 262.31 439.18 259.42 399.9 275.1 398.49 277.9 437.82"/>
    <polygon class="cls-1" points="293.58 436.55 277.9 437.82 275.1 398.49 290.64 397.11 293.58 436.55"/>
    <polygon class="cls-1" points="309.13 435.28 293.58 436.55 290.64 397.11 306.19 395.75 309.13 435.28"/>
    <polygon class="cls-1" points="324.67 434.01 309.13 435.28 306.19 395.75 316.83 394.87 321.78 394.54 324.67 434.01"/>
    <path class="cls-1" d="M340.35,432.7l-15.68,1.31-2.9-39.47c4.94-.42,10.14-1.38,15.54-2.72l3.04,40.88Z"/>
    <path class="cls-1" d="M357.43,431.3l-17.08,1.4-3.04-40.88c5.39-1.62,10.97-3.95,16.67-6.71l3.45,46.18Z"/>
    <path class="cls-1" d="M378.72,429.54l-21.28,1.75-3.45-46.18c4.62-2.22,9.1-5.24,13.47-8.88l14.02,47.61-2.76,5.69Z"/>
    <path class="cls-1" d="M406.92,394.24l-3.15,8.45-22.29,21.15-14.02-47.61c3-2.62,6.08-5.92,9.24-9.72l30.23,27.73Z"/>
    <polygon class="cls-1" points="414.24 374.27 406.92 394.24 376.7 366.52 389.67 351.82 414.24 374.27"/>
    <polygon class="cls-1" points="422.78 351.41 414.24 374.27 389.67 351.82 404.65 334.87 422.78 351.41"/>
    <polygon class="cls-1" points="438.19 328.64 425.67 343.75 422.78 351.41 404.65 334.87 420.22 316.88 422.49 314.09 438.19 328.64"/>
    <path class="cls-1" d="M120.15,506.58l-84.26,12.96c-.63-25.1-2.43-50.02-5.62-74.73l29.07-14.43,31.99-6.67,21.41-12.33,7.41,95.2Z"/>
    <polygon class="cls-1" points="145.02 503.78 120.15 506.58 115.67 451.18 140.78 449.14 145.02 503.78"/>
    <polygon class="cls-1" points="169.9 501.5 145.02 503.78 140.78 449.14 166.02 447.08 169.9 501.5"/>
    <polygon class="cls-1" points="194.78 499.4 169.9 501.5 166.02 447.08 190.73 445.07 194.78 499.4"/>
    <polygon class="cls-1" points="219.65 497.3 194.78 499.4 190.73 445.07 215.62 443.08 219.65 497.3"/>
    <polygon class="cls-1" points="244.7 495.19 219.65 497.3 215.62 443.08 240.67 440.89 244.7 495.19"/>
    <polygon class="cls-1" points="269.75 493.27 244.7 495.19 240.67 440.89 265.73 439.18 269.75 493.27"/>
    <polygon class="cls-1" points="294.63 490.99 269.75 493.27 265.73 439.18 290.64 436.79 294.63 490.99"/>
    <polygon class="cls-1" points="319.68 488.71 294.63 490.99 290.64 436.79 315.43 434.77 319.68 488.71"/>
    <polygon class="cls-1" points="344.56 486.96 319.68 488.71 315.43 434.77 340.35 432.7 344.56 486.96"/>
    <polygon class="cls-1" points="369.61 484.51 344.56 486.96 340.35 432.7 378.72 429.54 367.46 453.5 369.61 484.51"/>
    <path class="cls-1" d="M645.42,1.15l-10.23,18.47-25.62,23.52-11.52,7.8-4.64,1.84-10.77,12.65c-.89,1.18-1.28,2.11-.08,2.98l2.8,2.63c-5.8,6.83-10.71,13.67-14.23,20.51-2.2,3.14-5.25,4.34-9.16,3.63-19.28-6.33-54.58-28.49-93.57-48.08-5.68-2.76-11.57-4.49-17.63-5.43l-.63-37.98,195.29-2.55Z"/>
  </g>
  <g id="trazos2">
    <path class="cls-8" d="M2.23,151.16l.72,14.72c5.63,4.47,11.56,7.45,17.8,8.93-11.89-7.95-11.5-24.64,1.06-31.26-7.07,.77-13.63,3.19-19.59,7.61"/>
    <path class="cls-8" d="M29.62,148.2c5.8,.87,9.46,4.19,10.45,10.58-.11,5.27-2.12,8.35-5.22,10.18-4.22,2.42-8.29,2.09-12.25-.46-4.3-3.38-4.68-7.73-4.01-12.35,1.66-4.68,5.12-7.55,11.04-7.95Z"/>
    <path class="cls-1" d="M3.08,170.14l-.15-4.61c7.37,6.64,16.29,10.19,27.21,9.8,3.81-.4,7.14-1.84,9.92-4.47l3.61-4.86c1.99-2.66,4.69-3.71,7.69-4.07l60.5-4.4c24.36-2.44,49.66-2.23,75.61,0l43.49,3.22c1.01,.13,1.33,.79,1.45,1.45l-.99,13.14c-.26,1.95-.7,2.39-1.56,3.24l-6.25,5.7c-.63,.78-.95,1.48-.85,2.1l.33,31.73c-.15,1.62,.27,2.85,1.38,3.61l4.86,4.53c.7,.57,1.05,1.23,1.05,1.97l.72,15.44c.15,1.95-.33,2.17-1.51,2.36l-64.45-3.15c-25.41-1.27-48.02-1.21-67.14,.53l-44.67,4.47c-1.45,.45-2.56-.17-3.48-1.38-1.94-2.86-4.92-4.89-9-6.04-12.34-1.41-22.7,.68-30.42,7.42l-.46-3.74c4.11-2.89,9.02-5.12,14.85-6.57,7.36-1.18,14.34-1.42,20.23,.92,2.19,.97,4.25,2.48,6.18,4.6,.84,1.15,1.92,1.6,3.15,1.58l30.61-3.28c19.73-2.1,41.82-3.19,69.11-2.04l53.67,2.56,13.27,.72-.85-79.36-32.06-2.56c-11.22-.91-22.86-1.39-34.82-1.51-17.83-.18-36.84,.85-56.69,2.76l-44.34,3.22c-2.75,.26-4.92,1.34-6.44,3.35-1.39,2.54-3.05,4.44-4.93,5.85-3.34,2.89-7.51,4.42-12.68,4.34-6.32,.02-12.35-1.34-18.07-4.2-2.76-1.12-4.64-2.69-7.09-4.34Z"/>
    <path class="cls-1" d="M18.06,208.77l-.21-31.39c-5.4-1.5-10.32-3.93-14.76-7.24l3.28,38.63h11.69Z"/>
    <path class="cls-8" d="M33.76,208.77l-.36-30.6c-5.3,.82-10.49,.61-15.56-.79l.21,31.39h15.7Z"/>
    <path class="cls-1" d="M48.84,166.06l.56,42.71h-15.64l-.36-30.6c5.26-1.48,9.09-4.39,11.75-8.49,.81-1.71,2.12-2.82,3.68-3.62Z"/>
    <path class="cls-1" d="M65.1,208.77l-.54-44.51c-8.84,.54-14.75,.96-15.72,1.8l.56,42.71h15.7Z"/>
    <polygon class="cls-8" points="80.67 202.4 80.14 163.13 64.56 164.26 65.02 202.4 80.67 202.4"/>
    <polygon class="cls-8" points="96.37 201.08 95.77 161.99 80.14 163.13 80.65 201.08 96.37 201.08"/>
    <polygon class="cls-8" points="111.87 200.03 111.46 160.66 95.77 161.99 96.35 200.03 111.87 200.03"/>
    <polygon class="cls-8" points="127.57 199.44 127.04 159.71 111.46 160.66 111.87 199.44 127.57 199.44"/>
    <polygon class="cls-8" points="143.08 198.98 142.62 159.21 127.04 159.71 127.57 198.98 143.08 198.98"/>
    <polygon class="cls-1" points="158.78 199.44 158.32 159.39 142.62 159.21 143.08 198.98 143.08 199.44 158.78 199.44"/>
    <polygon class="cls-8" points="174.28 200.03 173.89 159.71 158.32 159.39 158.78 200.03 174.28 200.03"/>
    <polygon class="cls-1" points="190.05 200.95 189.6 160.8 173.89 159.71 174.28 200.95 190.05 200.95"/>
    <polygon class="cls-8" points="205.44 162.07 205.75 201.89 190.05 201.89 189.6 160.8 205.44 162.07"/>
    <polygon class="cls-1" points="220.63 202.86 220.2 163.24 205.44 162.07 205.75 202.86 220.63 202.86"/>
    <polygon class="cls-8" points="221.05 242.6 220.63 202.86 205.75 202.86 206.14 241.8 221.05 242.6"/>
    <polygon class="cls-8" points="190.05 201.89 190.57 241.06 206.14 241.8 205.75 201.89 190.05 201.89"/>
    <polygon class="cls-1" points="174.28 200.95 174.94 240.31 190.57 241.06 190.05 200.95 174.28 200.95"/>
    <polygon class="cls-1" points="158.78 200.03 174.28 200.03 174.94 240.31 159.23 239.56 158.78 200.03"/>
    <polygon class="cls-1" points="143.08 199.44 143.6 238.98 159.23 239.56 158.78 199.44 143.08 199.44"/>
    <polygon class="cls-8" points="127.97 238.87 127.57 198.98 143.08 198.98 143.6 238.98 127.97 238.87"/>
    <polygon class="cls-1" points="111.87 199.44 112.33 239.29 127.97 238.87 127.57 199.44 111.87 199.44"/>
    <polygon class="cls-1" points="96.35 200.03 96.63 240.27 112.33 239.29 111.87 200.03 96.35 200.03"/>
    <polygon class="cls-8" points="81.06 241.78 80.65 201.08 96.37 201.08 96.63 240.27 81.06 241.78"/>
    <polygon class="cls-8" points="65.5 243.45 65.02 202.4 80.67 202.4 81.06 241.78 65.5 243.45"/>
    <path class="cls-8" d="M44.73,208.77l.33,29.69,6.18,4.6c.94,1.08,1.97,1.7,3.15,1.58l11.11-1.19-.4-34.68h-20.36Z"/>
    <path class="cls-8" d="M24.83,237.54l-.39-28.77h20.3l.33,29.69c-4.9-2.24-12.09-2.07-20.23-.92Z"/>
    <path class="cls-8" d="M6.37,208.77l3.61,35.34c4.69-3.16,9.63-5.37,14.85-6.57l-.39-28.77H6.37Z"/>
    <path class="cls-1" d="M30.09,240.16c-13.93,7.85-11.63,24.96-1.12,31.35-5.92-1.44-11.62-4.03-16.95-8.41l-1.58-15.24"/>
    <path class="cls-1" d="M37.97,244.8c6.44,.76,9.59,5.29,10.31,9.82,.36,4.38-1.27,7.97-4.89,10.77-4.37,2.5-8.74,2.63-13.3-1.08-3.42-2.92-4.67-8.58-2.43-13.43,2.21-3.92,5.42-6.08,10.31-6.08Z"/>
    <path class="cls-1" d="M12.38,267.43l-.26-4.37c6.67,5.5,14.04,8.39,22.03,8.91,8.55,.48,13.87-2.56,16.91-8.06,1.2-1.54,1.89-2.79,3.6-3.45l26.1-2.68c15.55-1.91,32.87-2.79,51.24-3.07,14.03-.04,32.15,.64,51.56,1.77l47.16,2.34c.89-.03,1.52,.46,1.82,1.58l2.33,33.56c.08,1.08-.5,1.65-1.61,1.83l-21.28,2.19c-3.91,.35-8.01,1.63-12.7,4.91l-28.55,17.08c-5.62,3.49-13.94,4.41-21.46,6.13-12.84,3.21-28.22,5.11-39.68,7.27-12.97,2.4-24.32,5.25-34.6,8.41l-10.87,3.36c-2.3,1.39-4.22,.91-6.91-1.08-6.03-3.97-13.64-3.65-21.9-1.58-5.69,1.4-10.22,4.15-14.36,7.36l-.53-4.03c6.54-4.61,13.83-7.51,22.25-7.8,6.05-.71,11.44,.76,16.47,3.42,1.74,1.24,3.39,1.6,4.91,.61,12.89-4.52,26.43-8.18,40.64-10.95l20.58-3.42,7.39-1.34,3.2-.58,22.42-4.82c6.08-1.02,10.86-3.88,16.47-7.09l26.19-15.64c2.09-1.37,2.93-1.72,5.68-2.46,3.24-.67,6.7-1.2,10.43-1.52l14.72-1.49-2.36-30.92-42.89-1.97c-17.48-.99-35.14-1.76-44.15-1.94-21.16-.53-40.96,.72-61.61,3.03l-19.71,2.01-3.77,.35c-1.29-.03-2.48,.6-3.54,2.18-2.69,4.61-6.25,7.72-13.1,9.38-5.95,.82-12.22,.19-19.01-2.45-4.31-1.6-7.21-3.92-9.24-4.98Z"/>
    <path class="cls-1" d="M16.22,305.21l16.09-.33-.38-29.97c-8.17-1.37-14.95-3.69-19.55-7.47l3.84,37.77Z"/>
    <path class="cls-8" d="M51.07,304.65l-18.76,.23-.38-29.97c7.74,.96,13.33-.44,18.67-5.25l.47,34.99Z"/>
    <path class="cls-1" d="M69.83,304.26l-18.76,.39-.47-34.99,3.81-5.03c.62-.74,1.46-1.17,2.48-1.31l12.44-1.21,.5,42.15Z"/>
    <polygon class="cls-8" points="85 260.48 85.4 298.05 69.83 298.24 69.33 262.11 85 260.48"/>
    <polygon class="cls-1" points="100.56 259.06 101 295.42 85.37 295.71 85 260.48 100.56 259.06"/>
    <polygon class="cls-8" points="116.21 258.3 116.6 293.51 101 293.78 100.56 259.06 116.21 258.3"/>
    <polygon class="cls-1" points="131.84 257.97 132.24 291.77 116.6 292 116.21 258.3 131.84 257.97"/>
    <path class="cls-1" d="M131.84,257.74l.39,34.03-15.64,.23-.39-33.93c5.08-.12,9.9-.23,15.64-.33Z"/>
    <polygon class="cls-8" points="147.51 258.04 147.84 289.8 132.21 290.13 131.84 257.97 147.51 258.04"/>
    <polygon class="cls-1" points="163.08 258.8 163.51 289.01 147.83 289.28 147.51 258.04 163.08 258.8"/>
    <polygon class="cls-8" points="182.29 286.95 182.23 259.61 163.08 258.8 163.48 287.14 182.29 286.95"/>
    <polygon class="cls-8" points="197.93 260.54 197.91 300.01 182.29 309.33 182.23 259.75 197.93 260.54"/>
    <polygon class="cls-8" points="229.41 262.08 230.62 277.97 197.93 278.54 197.93 260.54 229.41 262.08"/>
    <path class="cls-8" d="M231.54,292.76l-.92-14.79-32.69,.56-.02,21.47,4.39-2.65c4.25-3.16-6.43,1.33,3.15-1.29,4.63-1.36,15.29-2.34,26.09-3.31Z"/>
    <path class="cls-8" d="M163.81,319.4l-.33-32.26,18.81-.2v22.38l-11.82,6.91c-2.35,1.47-4.57,2.52-6.66,3.15Z"/>
    <polygon class="cls-8" points="147.83 289.28 148.25 323.09 163.81 319.4 163.51 289.01 147.83 289.28"/>
    <polygon class="cls-8" points="132.21 290.13 132.63 326.34 148.25 323.09 147.84 289.8 132.21 290.13"/>
    <polygon class="cls-1" points="117.04 328.81 116.6 292 132.24 291.77 132.63 326.34 128.28 327.13 117.04 328.81"/>
    <polygon class="cls-1" points="101 293.78 101.4 331.75 117.04 328.81 116.6 293.51 101 293.78"/>
    <path class="cls-8" d="M85.86,335.38l-.48-39.67,15.63-.29,.41,36.33c-5.09,1.19-10.27,2.4-15.55,3.64Z"/>
    <path class="cls-1" d="M70.22,340.03l-.39-41.78,15.57-.2,.46,37.34c-5.59,1.46-10.8,3.01-15.64,4.64Z"/>
    <path class="cls-8" d="M52.57,304.62l.44,34.05c1.81,.44,3.85,1.37,6.1,2.77,1.07,1.17,2.49,1.52,4.32,.82l6.79-2.23-.39-35.77-17.25,.36Z"/>
    <path class="cls-8" d="M34.22,339.37l-.31-34.49,18.66-.26,.44,34.05c-6.65-1.12-12.9-.85-18.79,.7Z"/>
    <path class="cls-1" d="M20.42,346.05l-4.2-40.84,17.69-.33,.31,34.49c-5.39,1.6-9.91,3.89-13.8,6.68Z"/>
    <path class="cls-1" d="M40.09,372.65c-15.5-11.74-6.83-27.68,1.12-31.33-.81-.65-16.47,3.42-20.29,8.53l1.22,13.87c5.66,4.62,11.67,7.45,17.96,8.93Z"/>
    <path class="cls-1" d="M47.8,346.24c5.91,0,8.87,2.49,10.77,6.7,1.29,4.51,1.1,8.49-1.66,11.56-3.37,3.74-7.05,5.04-13.18,2.76-5.08-3.07-6.63-7.05-5.91-12.66,1.39-4.52,4.47-7.97,9.99-8.36Z"/>
    <path class="cls-1" d="M22.57,368.06l-.44-4.34c6.53,5.48,14.14,8.61,22.69,9.64,11.82,1.05,15.02-4.96,17.12-7.84,0,0,1.35-2.47,1.58-3.85,.77-2.07,2.28-3.39,4.38-4.12,10.28-3.59,22.51-6.87,35.87-9.99,9.02-1.91,18.12-3.5,27.37-4.6l33.28-7.14c5.76-1.36,11.58-4.16,18.44-8.58l19.66-11.43,5.7-3.45c.52-.56,1.76-1.06,3.36-1.28l18.54-2.08,39.19-4.14c12.93-1.06,24.41-3.2,33.42-7.18,13.72-5.32,26.01-12.83,36.74-22.73,5.49-5.17,10.47-10.77,14.93-16.77l4.29-6.13c1.49-2.12,3.41-3.97,6-5.39,1.56-.93,3.34-1.17,5.3-.79l16.99,2.5c7.15,.84,13.99,3.24,20.58,6.92,2.6,1.39,4.11,4.41,4.73,8.76l.83,27.33c.08,7.34-1.97,12.83-5.96,16.64l-24.74,28.29-18.66,21.24c-5.29,5.54-10.9,10.15-16.99,13.4-7.27,4.43-15.33,6.67-23.96,7.31l-55.49,4.91-19.49,1.71c-12,2.12-22.93,4.39-32.06,6.92-7.57,2.31-14.92,5.2-22.12,8.5-4.88,2.46-9.88,3.33-15.11,1.09-3.89-1.6-7.75-1.69-11.56-.31-5.68,2.86-10.47,6.34-14.32,10.47l-8.41,11.04c-.53,.87-.87,1.73-.66,2.67l.44,1.4c.24,1.01,1.2,1.88,1.88,2.32,5.01,3.1,10.46,5.33,16.55,6.31,8.89,.88,14.71-.44,19.18-2.72,3.05-2.31,5.31-5.29,7.01-8.76,.95-3.29,2.33-6.25,4.6-8.5,1.21-1.59,16.44-8.73,23.26-10.34l20.72-5.21,11.69-2.01,21.59-2.06,45.11-3.99,8.19-.7c8.86-1.04,16.97-3.03,24-6.35,6.65-2.82,12.99-7.23,19.14-12.53l20.01-21.85,22.47-25.53,10.16-11.91c4.83-6.6,6.31-15.66,6.04-26.01l-1.31-60.53c7.91-13.4,17.98-27.77,30.04-44.67l10.16-14.28,11.65-21.11,5.76-10.22c.53-1.14,1.1-1.52,2.72-.6l.9,.83-17.26,30.83-7.71,11.3c-13.27,18.44-25.19,35.63-33.64,49.58l1.75,59.47c.15,6.28-.2,12.02-1.49,16.73-1.49,4.6-3.42,8.45-5.87,11.39l-14.28,16.55-33.81,38.28c-9.49,11.11-21.85,16.58-34.69,21.11-7.46,2-15.02,3.18-22.69,3.42l-33.02,2.89-32.23,2.89c-12.79,1.89-24.7,4.6-35.74,8.15-6.46,2.34-12.24,4.77-17.43,7.27-2.76,1.27-4.64,3.95-5.34,8.5-2.1,5.88-5.81,10.14-11.39,12.53-8.82,2.66-17.61,2.37-26.36-.44-4.81-1.8-9.18-4.09-13.14-6.83-1.63-1.23-2.04-3.15-1.31-5.69,3.67-7.45,8.97-14.25,16.55-20.15,3.91-3.19,7.9-5.45,12-6.48,4.37-.79,8.66-.19,12.88,1.49,4.27,.83,7.86,.18,10.95-1.58,6.55-3.18,13.17-5.79,19.88-7.62,7.93-2.56,16.38-4.98,26.15-6.57,5.91-.95,10.29-1.54,18.79-2.36l44.23-4.12,20.85-1.75c10.38-1.06,20.07-4.44,28.99-10.42,6.1-5.16,11.36-10.22,15.5-15.15l29.08-33.37,10.77-12.26c2.97-3.45,3.83-9.64,3.33-17.61l-.7-21.09c-.12-4.9-1.97-7.03-7.18-9.22-5.59-2.61-12.14-4.27-19.62-4.99l-12.7-1.93c-2.43-.59-4.92,.96-7.45,3.59-6.25,9.69-13.34,18.23-21.37,25.49-9.37,8.11-19.21,14.72-29.61,19.62-12.19,5.45-25.18,9.06-39.24,10.25l-54.57,5.52c-3.21,.32-5.72,.7-6.66,1.23l-29.2,17.46c-7.67,4.17-13.45,6.52-22.04,7.94l-27.72,5.96c-12.15,1.42-23.7,3.55-34.64,6.39-7.85,1.84-15.25,3.9-22.16,6.22l-6.66,2.19c-1.25,.4-1.97,1.65-2.36,3.42-2.28,5.43-6.88,11.25-15.5,12.18-6.64,.53-13.45-.85-20.41-3.77-2.89-1.76-5.35-3.27-7.53-4.6Z"/>
    <path class="cls-8" d="M167.91,408.81c6.07-3.52,11.31-2.82,15.64,2.56,2.33,4.17,2.75,8.48,0,13.01-4.11,4.11-8.75,5.57-14.12,3.35-3.47-2.26-5.42-5.41-5.85-9.46,.39-4.42,2-7.37,4.34-9.46Z"/>
    <path class="cls-1" d="M148.86,368.34l12.42-8.28,19.31-23.65,11.88-10.71c-12.44,7.55-21.08,12.63-32.9,14.37l-11.31,2.43,.6,25.84Z"/>
    <polygon class="cls-8" points="131.71 378 137.36 376.03 148.86 368.34 148.25 342.5 132.3 345.93 131.38 346.08 131.71 378"/>
    <polygon class="cls-8" points="116.14 383.19 115.67 348.4 131.38 346.08 131.71 378 116.14 383.19"/>
    <polygon class="cls-1" points="100.57 386.93 100.07 351.69 115.67 348.4 116.14 383.19 110.69 385.09 100.57 386.93"/>
    <path class="cls-1" d="M55.03,375.39l.28,29.67,15.64-9.39s-4.47-33.96-5.09-31.03c-2.66,5.25-6.02,9.26-10.82,10.75Z"/>
    <path class="cls-8" d="M38.65,375.45l.3,32.37,13.73-1.05,2.63-1.71-.28-29.67c-5.4,1.51-10.86,1.5-16.38,.06Z"/>
    <path class="cls-8" d="M26.8,408.68l-4.23-40.62c4.45,3.52,9.87,5.92,16.08,7.4l.3,32.37-12.15,.85Z"/>
    <path class="cls-1" d="M.92,65.62v4.14c5.29,4.42,11.94,7.59,20.36,9.13,7.94,1.04,12.18,.05,17.85-3.33,1.52-1.08,4.1-4.02,5.48-6.45,1.44-1.99,3.53-2.98,6.24-3.02l46.77-3.15c10.49-.88,20.94-1.32,31.34-1.31,8.33-.2,18.95,.03,31.34,.59l24.17,.59,38.44,.92,1.05,80.67-15.77-1.31-15.64-1.31c-13.06-1.15-27.03-1.64-41.52-1.77-16.68-.13-34.87,.92-54,2.69l-48.68,3.68c-1.86,.95-4.21,.52-7.16-1.58-4.75-4.17-11.43-5.02-18.85-4.6-8.55,.92-15.16,3.48-20.36,7.23l.26,3.74c5.9-4.43,13.04-7.21,21.81-7.82,3.72-.19,7.21,.06,10.31,1.05,2.3,.79,4.4,1.94,6.11,3.81,2.81,1.61,5.48,2.31,7.88,1.38l38.63-2.89c25.66-2.5,48.79-3.67,69.24-3.42,16.82,.32,34.79,1.42,53.67,3.15l22.73,1.84c.94-.26,1.43-.8,1.58-1.54l1.17-9.03-9.33-8.47c-.3-.36-.43-.71-.44-1.07l.13-34.8c.08-.85,.5-1.31,1.15-1.51l6.31-.59c.78-.23,1.31-.7,1.46-1.51l-2.48-27.43c-.15-.9-.61-1.44-1.49-1.51l-78.08-2.12c-14.03-.5-28.87-.27-44.22,.4l-5.87,.31-34.73,2.28-18.53,1.23c-3.18,.58-5.7,2.02-7.31,4.6-3.52,6.2-8.94,8.92-16.07,8.54-6.53-.18-12.31-1.85-17.43-4.82-2.81-1.52-5.05-3.4-7.51-5.58Z"/>
    <path class="cls-1" d="M225.45,65.95c.05-.75,.31-1.37,1.32-1.58h2.23c.57,.32,.97,.74,1.12,1.31l1.49,21.22c.03,.96-.2,1.66-.84,1.97l-4.27,.46c-.73-.04-1.43-.51-1.61-1.53l.55-21.86Z"/>
    <path class="cls-1" d="M231.83,142.32c-.04,1.03-.44,1.63-1.36,1.63h-3.96c-.84-.04-1.25-.62-1.25-1.72l.51-6.82c.28-.62,.69-.82,1.54-.97l3.3,2.87,1.22,5.01Z"/>
    <g>
      <line class="cls-1" x1="17.57" y1="41.22" x2="17.06" y2="8.63"/>
      <line class="cls-1" x1="54.67" y1="8.2" x2="55.04" y2="46.47"/>
      <line class="cls-1" x1="73.39" y1="7.99" x2="73.84" y2="45.25"/>
      <line class="cls-1" x1="90.59" y1="7.79" x2="90.94" y2="44.1"/>
      <line class="cls-1" x1="106.25" y1="7.61" x2="106.7" y2="43.17"/>
      <line class="cls-1" x1="121.73" y1="7.44" x2="122.36" y2="42.54"/>
      <line class="cls-1" x1="137.39" y1="7.26" x2="137.92" y2="42.3"/>
      <line class="cls-1" x1="153.22" y1="7.08" x2="153.58" y2="42.75"/>
      <line class="cls-1" x1="168.62" y1="6.9" x2="169.33" y2="42.75"/>
      <line class="cls-1" x1="200.2" y1="6.54" x2="200.56" y2="43.96"/>
      <line class="cls-1" x1="215.68" y1="6.37" x2="216.13" y2="44.35"/>
      <line class="cls-1" x1="231.26" y1="6.19" x2="231.61" y2="44.73"/>
      <line class="cls-1" x1="246.91" y1="6.01" x2="247.45" y2="44.51"/>
      <line class="cls-1" x1="262.49" y1="5.83" x2="263.11" y2="44.29"/>
      <line class="cls-1" x1="278.15" y1="5.65" x2="278.68" y2="44.07"/>
      <line class="cls-1" x1="293.72" y1="5.48" x2="294.43" y2="43.84"/>
      <line class="cls-1" x1="309.64" y1="5.29" x2="310" y2="43.61"/>
      <line class="cls-1" x1="325.12" y1="5.12" x2="325.66" y2="43.38"/>
      <line class="cls-1" x1="340.7" y1="4.94" x2="341.24" y2="43.15"/>
      <line class="cls-1" x1="356.35" y1="4.76" x2="356.89" y2="42.92"/>
      <line class="cls-1" x1="372.01" y1="4.06" x2="372.65" y2="42.17"/>
      <line class="cls-1" x1="387.58" y1="4.24" x2="388.21" y2="42.34"/>
      <line class="cls-1" x1="403.15" y1="4.41" x2="403.78" y2="42.52"/>
      <line class="cls-1" x1="418.72" y1="3.89" x2="419.35" y2="42"/>
      <line class="cls-1" x1="434.29" y1="3.89" x2="434.92" y2="42"/>
      <path class="cls-1" d="M183.57,43.54l-26.89-.7c-23.44-.84-46.24-.52-68.15,1.43l-32.15,2.2-9.91,.66c-2.79,1.25-7.31-2.1-10.13-4.17l-.39-34.55"/>
    </g>
    <path class="cls-1" d="M16,41.48c-5.73,1.11-10.81,3.45-15.42,6.67v4c7.82-6.17,16.93-9.13,27.68-8.05,4.11,.27,7.92,1.52,11.12,4.81,1.8,1,3.64,1.52,5.52,1.58l49.4-3.24c21.94-2.3,47.59-2.03,74.67-.79l41.3,1.05c17.75,.49,35.26,.5,52.52,0l123.89-1.75,58.34-.79c11.43-.19,17.16,1.88,24.61,6.39l47.65,25.14,14.01,7.45c8.62,5.31,17.33,9.9,26.19,13.14l3.5,1.14c5.82,1.78,10.04-.58,13.31-5.43,3.05-6.25,7.31-12.47,12.44-18.66,.53-.57,.32-1.49-.13-1.99l-1.26-1.11c-5.35,6.3-10.03,12.59-13.15,18.87l-1.71,2.58c-2.4,2.52-5.26,3.36-8.54,2.69-7.5-2.61-14.15-5.62-20.11-8.96l-36.72-19.69-35.63-18.86c-5.18-2.79-11.43-4.8-18.75-6l-52.78,.65-100.29,1.52-30.74,.51c-24.61,.42-52.2,.4-82.06-.78l-.44-36.85"/>
    <path class="cls-1" d="M20.72,44.02c-12.34,6.82-13.53,23.83-.89,31.38-6.83-1.27-13.17-4.42-18.92-9.78l-.33-13.47c5.29-4.47,12.39-7.36,20.14-8.13Z"/>
    <path class="cls-1" d="M17.34,56.85c2.27-8.41,12.22-10.08,17.74-5.49,4.99,4.47,5.48,10.71,1.38,15.77-3.68,4.66-11.27,5.65-15.74,1.18-3.94-3.65-4.27-7.09-3.38-11.46Z"/>
    <path class="cls-1" d="M21.81,143.54c-11.77,6.98-13.28,23.44-1.06,31.26-6.98-1.78-13.03-4.73-17.82-9.27l-.71-14.38c5.83-4.49,12.48-6.67,19.59-7.61Z"/>
    <path class="cls-1" d="M18.06,208.77h15.7l-.36-30.6c-4.69,1.16-9.92,.78-15.56-.79l.21,31.39Z"/>
    <polygon class="cls-1" points="65.02 202.4 64.56 164.26 80.14 163.13 80.65 201.08 80.67 202.4 65.02 202.4 80.67 202.4 81.06 241.78 65.5 243.45 65.02 202.4"/>
    <polygon class="cls-1" points="96.37 201.08 95.77 161.99 80.14 163.13 80.65 201.08 96.37 201.08"/>
    <polygon class="cls-1" points="96.35 200.03 111.87 200.03 111.46 160.66 95.77 161.99 96.35 200.03"/>
    <polygon class="cls-1" points="127.57 199.26 111.87 199.44 111.46 160.66 127.04 159.71 127.57 199.26"/>
    <polygon class="cls-1" points="127.04 159.71 142.62 159.21 143.08 198.98 127.57 198.98 127.04 159.71"/>
    <polygon class="cls-1" points="158.78 200.03 174.28 200.03 173.89 159.71 158.32 159.39 158.78 200.03"/>
    <polygon class="cls-1" points="190.05 201.89 205.75 201.89 205.44 162.07 189.6 160.8 190.05 201.89"/>
    <polygon class="cls-1" points="206.14 241.8 190.57 241.06 190.05 201.89 205.75 201.89 205.76 202.86 206.14 241.8"/>
    <polyline class="cls-1" points="220.63 202.86 221.05 242.6 206.14 241.8 205.76 202.86"/>
    <polygon class="cls-1" points="143.08 198.98 143.6 238.98 127.97 238.87 127.57 198.98 143.08 198.98"/>
    <polygon class="cls-1" points="96.37 201.08 80.65 201.08 81.06 241.78 96.63 240.27 96.37 201.08"/>
    <path class="cls-1" d="M45.06,238.46l-.33-29.69h20.36l.4,34.68-10.38,1.11c-1.67,.31-2.93-.26-3.88-1.5-1.98-2.17-4.04-3.65-6.18-4.6Z"/>
    <path class="cls-1" d="M24.83,237.54l-.39-28.77h20.3l.33,29.69c-5.88-2.03-12.6-2.38-20.23-.92Z"/>
    <path class="cls-1" d="M6.37,208.77l3.61,35.34c4.08-2.9,9.03-5.08,14.85-6.57l-.39-28.77H6.37Z"/>
    <path class="cls-1" d="M32.32,304.88l18.76-.23-.47-34.99c-5.59,4.68-11.77,6.6-18.67,5.25l.38,29.97Z"/>
    <polygon class="cls-1" points="69.83 298.24 85.4 298.05 85 260.48 69.33 262.11 69.83 298.24"/>
    <polygon class="cls-1" points="101 293.78 116.6 293.51 116.21 258.3 100.56 259.06 101 293.78"/>
    <polygon class="cls-1" points="101 293.78 116.6 293.51 116.65 258.07 100.56 259.06 101 293.78"/>
    <polygon class="cls-1" points="132.21 290.13 147.84 289.8 147.51 258.04 131.84 257.97 132.21 290.13"/>
    <polygon class="cls-1" points="163.48 287.14 182.29 286.95 182.23 259.75 163.08 258.8 163.48 287.14"/>
    <polygon class="cls-1" points="197.91 300.01 197.93 260.54 182.23 259.75 182.29 309.33 197.91 300.01"/>
    <polygon class="cls-1" points="230.62 277.97 197.93 278.54 197.93 260.54 229.39 261.82 230.62 277.97"/>
    <path class="cls-1" d="M197.91,300.01c3.39-2.24,6.79-4.26,11.33-4.77l22.31-2.48-.92-14.79-32.69,.56-.02,21.47Z"/>
    <path class="cls-1" d="M163.48,287.14l.33,32.26c1.87-.69,4.32-1.91,7.09-3.41l11.39-6.66v-22.38l-18.81,.2Z"/>
    <path class="cls-1" d="M147.83,289.28l15.67-.26,.31,30.38c-3.34,1.29-9.39,2.49-15.56,3.69l-.42-33.82Z"/>
    <polygon class="cls-1" points="132.21 290.13 147.84 289.8 148.25 323.09 132.63 326.34 132.21 290.13"/>
    <polygon class="cls-1" points="85.37 295.71 101 295.42 101.4 331.75 85.86 335.38 85.37 295.71"/>
    <path class="cls-1" d="M52.57,304.62l.44,34.31c2.22,.64,4.04,1.58,6.1,2.51,1.29,1.51,3.97,1.46,4.79,.59l6.32-2-.39-35.77-17.25,.36Z"/>
    <path class="cls-1" d="M33.92,304.88l18.66-.26,.44,34.05c-6.33-1.1-12.59-.89-18.79,.7l-.31-34.49Z"/>
    <polygon class="cls-1" points="85.37 355.46 100.07 351.69 100.57 386.93 85.68 389.51 85.37 355.46"/>
    <path class="cls-1" d="M85.37,355.46l.31,34.05-7.21,1.4-7.52,4.76-3.86-26.44c-.25-1.82-.76-4.36-1.16-4.77,.82-3.12,1.74-3.57,4.72-4.37l14.73-4.62Z"/>
    <path class="cls-1" d="M38.95,407.82l13.73-1.05,2.63-1.71-.28-29.67c-4.97,1.5-10.44,1.49-16.38,.06l.3,32.37Z"/>
    <path class="cls-1" d="M26.8,408.68l12.15-.85-.3-32.37c-2.88-.64-5.73-1.57-8.54-2.8l-7.53-4.6,4.23,40.62Z"/>
    <path class="cls-1" d="M131.38,346.08l.33,31.92-15.57,5.19-.47-34.79c5.22-.93,10.45-1.7,15.7-2.32Z"/>
    <polygon class="cls-1" points="137.36 376.03 148.86 368.34 148.25 342.5 131.38 346.08 131.71 378 137.36 376.03"/>
    <path class="cls-1" d="M319.15,320.6l24.83,48.2c5.74-2.83,10.9-6.67,15.43-11.59l6.61-6.95-36.97-34.12-9.9,4.46Z"/>
    <path class="cls-1" d="M310.75,324.39l4.39,51.22c7.7-.26,15.09-1.51,22.11-3.95l6.74-2.86-24.83-48.2-8.41,3.79Z"/>
    <path class="cls-1" d="M295.16,327.89l4.11,49.07,15.87-1.35-4.39-51.22c-2.28,.81-8.81,2.06-15.59,3.5Z"/>
    <polygon class="cls-1" points="283.66 378.42 299.27 376.97 295.16 327.89 279.55 331.07 283.66 378.42"/>
    <polygon class="cls-1" points="264.42 337.19 268.15 379.86 283.66 378.42 279.55 331.07 279.21 331.14 264.42 337.19"/>
    <polygon class="cls-1" points="249.3 343.38 252.59 381.24 268.15 379.86 264.42 337.19 249.3 343.38"/>
    <polygon class="cls-1" points="237.21 383.44 233.8 345.18 248.97 343.51 249.3 343.38 252.59 381.24 237.21 383.44"/>
    <path class="cls-1" d="M237.21,383.44l-3.41-38.27,15.17-1.67,.32-.13,3.3,37.86c-5.25,.62-10.12,1.45-15.38,2.21Z"/>
    <path class="cls-1" d="M218.21,347.02l3.52,39.92c4.95-1.4,10.11-2.56,15.48-3.5l-3.41-38.27-15.59,1.84Z"/>
    <polygon class="cls-1" points="206.14 391.6 202.58 348.4 205.38 345.49 218.21 347.02 221.73 386.94 206.14 391.6"/>
    <path class="cls-1" d="M188.46,398.97l-7.97-27.64,22.09-22.93,3.57,43.21-12.44,5.17c-1.97,1.06-3.79,1.89-5.25,2.19Z"/>
    <path class="cls-1" d="M115.67,451.18l-2.93-39.8,6.18-3.56,30.88-9.5,30.68-26.99,7.97,27.64h-6.48c-6.66-1.72-9.48-2.37-14.1-1.27-6.87,2.24-15.28,8.33-20.69,15.27-2.3,2.65-4.52,6.07-6.69,10.08-1.31,2.51-1.37,5.43,1.41,7.24,6.8,4.54,13.65,7.38,20.56,8.25,7.99,.98,13.38,.42,20.09-2.3,4.77-2.5,7.67-6.65,9.58-11.65l1.84,20.21-78.31,6.37Z"/>
    <rect class="cls-1" x="487.86" y="5.56" width="54.31" height="17.34"/>
    <rect class="cls-1" x="461.93" y="6.72" width="16.99" height="34.05"/>
    <polyline class="cls-1" points="487.16 28.42 518.34 28.42 518.34 45.33 487.16 45.33 487.16 28.2"/>
    <polygon class="cls-1" points="756.41 .13 760.02 36.23 744.67 37.09 742.22 .13 756.41 .13"/>
    <polygon class="cls-1" points="728.91 37.97 726.28 .13 742.22 .13 744.67 37.09 728.91 37.97"/>
    <polygon class="cls-1" points="713.1 38.76 710.89 .53 726.28 .13 728.91 37.97 713.1 38.76"/>
    <polygon class="cls-1" points="697.59 39.54 713.1 38.76 710.89 .53 695.16 .72 697.59 39.54"/>
    <polygon class="cls-1" points="679.66 .98 681.89 40.79 697.59 39.54 695.16 .72 679.66 .98"/>
    <polygon class="cls-1" points="666.32 41.65 681.89 40.79 679.66 .98 663.96 1.15 666.32 41.65"/>
    <polygon class="cls-1" points="648.26 1.15 650.75 42.57 666.32 41.65 663.96 1.15 648.26 1.15"/>
    <path class="cls-1" d="M645.42,1.15h2.84l2.5,41.42-11.96,.72c-10.62,.49-22.47,4.75-35.54,12.74-.98,.26-1.83-.05-2.56-.79l-2.97-4.18,11.84-7.92,25.62-23.52,10.23-18.47Z"/>
    <path class="cls-1" d="M593.4,52.77l5.58,4.57c2.72,1.61,5.63,1.48,8.74-.33,7.96-4.78,17.2-8.41,28.12-10.51l35.61-1.91,74.63-4.4,14.33-1.06-.39-2.91-55.26,2.95-25.7,1.77-41.31,2.4c-12.88,1.38-23.71,6.25-34.49,12.68-.89,.25-1.75,.01-2.56-.79l-2.97-4.18-4.32,1.71Z"/>
    <path class="cls-1" d="M761.74,51.94l.34,3.19-18.44,1.07-8.41,.53-15.24,.94,1.17,19.64,1.08,18.33,2.18,36.64,1.26,20.97,38.78-2.28-.08,3.2-39.61,2.38c-1.32,.12-2.06-.46-2.2-1.74l-5.85-98.85c.14-.8,.59-1.25,1.3-1.43l15.32-.84,28.4-1.74Z"/>
    <polygon class="cls-1" points="763.86 71.03 720.95 73.66 720 57.66 762.09 55.13 763.86 71.03"/>
    <polygon class="cls-1" points="765.48 86.93 721.88 89.52 720.95 73.66 763.86 71.03 765.48 86.93"/>
    <polygon class="cls-1" points="765.26 102.92 722.83 105.46 721.88 89.52 765.48 86.93 765.26 102.92"/>
    <polygon class="cls-1" points="765.04 118.9 723.78 121.4 722.83 105.46 765.26 102.92 765.04 118.9"/>
    <polygon class="cls-1" points="764.82 134.93 724.74 137.34 723.78 121.4 765.04 118.9 764.82 134.93"/>
    <polygon class="cls-1" points="735 152.7 764.47 150.96 764.82 134.93 724.74 137.34 725.69 153.24 735 152.7"/>
    <path class="cls-1" d="M584.67,149.84v10.51s-1.77,3.74-1.77,3.74l67.4-3.02,57.88-3.48c1.16-.06,1.83-.59,1.97-1.64l-5.85-98.93q-.07-1.58-1.77-1.58l-56,3.42-6.93,.26c-15.74,2.65-29.76,9.65-41.87,21.48-10.15,10.08-17.28,21.74-21.46,34.95,1.84,1.18,2.2,1.13,3.55,2.36,1.31,1.54,1.25,2.23,1.84,3.42l1.97,8.93c.03,.89,.12,1.39,0,1.81,1.17-.57,2.58-.77,4.21-.66-.42-.16-.78-.7-1.06-1.54l-2.23-10.91c.14-4.91,1.27-9.85,3.48-14.85,3.46-10.94,9.46-19.51,17.41-26.28,10-8.16,20.8-13.18,32.32-15.37l63.39-3.68,5.72,95.72-117.92,6.24c-1.05,.14-1.4-.35-1.38-1.18l.33-9.92c.13-.49,.35-1.28,.85-1.81-1.54,.38-3.11,.29-4.7-.22,.41,.61,.57,1.6,.64,2.22Z"/>
    <path class="cls-1" d="M578.59,138.41c.49-2.68,1.91-4.62,4.17-5.88,2.35-1.44,4.98-1.54,7.95,0,3.28,1.87,4.23,4.92,3.97,8.41-.38,2.73-1.48,4.86-3.68,6.04-3.23,1.67-6.29,1.28-9.26-.36-2.53-1.64-3.71-4.43-3.15-8.21Z"/>
    <polygon class="cls-1" points="618.19 111.94 597 113.12 599.93 160.17 621.05 159.05 618.19 111.94"/>
    <polygon class="cls-1" points="633.78 111.02 618.19 111.94 621.05 159.05 636.63 158.22 633.78 111.02"/>
    <polygon class="cls-1" points="649.46 110.01 633.78 111.02 636.63 158.22 652.27 157.4 649.46 110.01"/>
    <polygon class="cls-1" points="665.05 109.05 649.46 110.01 652.27 157.4 667.9 156.57 665.05 109.05"/>
    <polygon class="cls-1" points="698.6 139.05 666.96 140.93 667.9 156.57 706.86 154.51 705.9 138.57 698.6 139.05"/>
    <polygon class="cls-1" points="701.71 122.76 666 124.9 666.96 140.93 705.9 138.57 704.95 122.54 701.71 122.76"/>
    <polygon class="cls-1" points="701.71 106.9 665.05 109.05 666 124.9 704.95 122.54 704 106.73 701.71 106.9"/>
    <polygon class="cls-1" points="664.05 92.97 665.05 109.05 704 106.73 703.04 90.65 664.05 92.97"/>
    <polygon class="cls-1" points="663.17 77.03 664.05 92.97 703.04 90.65 702.09 74.71 663.17 77.03"/>
    <polygon class="cls-1" points="662.4 63.13 663.17 77.03 702.09 74.71 701.14 58.79 662.23 61.05 662.4 63.13"/>
    <polygon class="cls-1" points="646.55 61.96 649.46 110.01 665.05 109.05 662.23 61.05 646.55 61.96"/>
    <path class="cls-1" d="M631.24,67.04l2.54,43.98,15.68-1.01-2.91-48.05-8.81,.51c-2.42,.48-4.67,1.01-6.71,1.62l.21,2.95Z"/>
    <path class="cls-1" d="M615.87,73.28l2.32,38.66,15.59-.92-2.75-46.93c-5.64,1.74-10.77,3.92-15.29,6.6l.13,2.59Z"/>
    <path class="cls-1" d="M595.59,88.61l1.4,24.51,21.2-1.18-2.45-41.25c-7.33,4.1-14.55,10.05-20.15,17.92Z"/>
    <path class="cls-1" d="M597.69,124.25l2.24,35.92-10.99,.58c-.81,.23-1.26-.18-1.38-1.18l.33-9.92c.08-.55,.36-1.15,.85-1.81,2.82-.52,4.69-2.31,5.63-5.34,.9-3.04,.22-5.81-1.64-8.38-1.11-1.26-2.76-2.14-4.9-2.7-.45-.18-.78-.74-1.06-1.54l-2.04-9.94c-.75-4.89,.87-10.36,3.82-17.42,1.64-4.92,4.06-9.53,7.04-13.9l2.1,35.64Z"/>
    <path class="cls-1" d="M578.45,164.27c-1.25,.27-1.89-.41-2.2-1.62l-1.99-33.72,1.99-13.38c2.62,1.12,4.41,2.78,5.11,5.16l2.12,8.97c.16,1.13,.19,1.74,.13,2.4-2.69,1.3-4.44,3.26-4.97,6.06-.47,3.26,.1,5.67,1.66,7.27,1.11,1.09,2.34,1.86,3.72,2.22,.53,1.19,.7,1.58,.64,2.51v10.23s-1.77,3.74-1.77,3.74l-4.44,.18Z"/>
    <path class="cls-1" d="M582.89,212.54c2.65-.26,4.5,.76,5.3,3.46,.55,1.77-.14,4.17-1.62,5.08-2.82,1.67-4.86,1.28-6.92-.92-1.23-1.93-.85-3.93-.39-5.17,.6-1.24,2.24-2.39,3.64-2.45Z"/>
    <path class="cls-1" d="M585.04,178.24c-2-.99-4.36-.57-5.74,.74-1.01,1.07-1.7,2.65-.91,4.87,.65,1.54,1.41,2.29,3.04,2.64,4.24,.85,5.93-2.53,5.93-4.32-.04-1.92-.89-3.16-2.32-3.94Z"/>
    <path class="cls-1" d="M580.59,191.94l.46,17.97c.16,1.67,.59,2.35,1.84,2.63-1.41,.19-2.56,.86-3.42,2.09-.71-.62-1.19-1.45-1.42-2.52l-.23-3.48-.33-17.15,.56-4.84,.91-1.7c.79,.95,1.61,1.5,2.47,1.56l-.84,5.43Z"/>
    <path class="cls-1" d="M590.68,221.71l12.38,.72,57.79-2.72,35.56-2.19,18.13-1.14,19.09-1.14,29.96-1.93v-3.24l-82.6,5.26-77.78,3.85-11.3-.53-3.54-.88c-.13,1.2-.62,2.22-1.48,3.04l3.78,.88"/>
    <path class="cls-1" d="M764.17,166.99l-54.56,3.28-72.13,4.14-37.28,1.71-15.01,2.22c1.5,1.02,2.24,2.3,2.16,3.85,.48-.8,1.78-1.24,3.68-1.43l9.95-1.41c44.23-1.93,91.63-4.65,140.75-7.78l22.43-1.38v-3.19Z"/>
    <path class="cls-1" d="M603.42,222.43l-24.9,1.29c-1.16,.2-1.96-.25-2.23-1.61l-.95-42.97c-.04-1.29,.74-1.92,2.33-1.87l23.03-1.17,2.73,46.33"/>
    <polygon class="cls-1" points="764.17 172.77 763.59 210.08 745.94 211.21 743.62 171.44 764.17 170.18 764.17 172.77"/>
    <polygon class="cls-1" points="728.14 174.97 728.02 172.42 743.62 171.44 745.94 211.21 730.27 212.2 728.14 174.97"/>
    <polygon class="cls-1" points="712.57 176.78 714.74 213.19 730.27 212.2 728.02 172.42 712.37 173.39 712.57 176.78"/>
    <polygon class="cls-1" points="696.94 177.07 699.21 214.18 714.74 213.19 712.37 173.39 696.81 174.33 696.94 177.07"/>
    <polygon class="cls-1" points="681.27 177.24 683.5 215.18 699.21 214.18 696.81 174.33 681.14 175.24 681.27 177.24"/>
    <polygon class="cls-1" points="665.7 178.55 667.96 215.99 683.5 215.18 681.14 175.24 665.57 176.12 665.7 178.55"/>
    <polygon class="cls-1" points="650.03 179.01 652.37 216.76 667.96 215.99 665.57 176.12 649.97 176.96 650.03 179.01"/>
    <polygon class="cls-1" points="634.46 180.61 636.7 217.53 652.37 216.76 649.97 176.96 634.31 177.77 634.46 180.61"/>
    <polygon class="cls-1" points="618.76 180 621.04 218.31 636.7 217.53 634.31 177.77 618.65 178.53 618.76 180"/>
    <path class="cls-9" d="M411.83,481l-42.22,3.5-2.15-31.01,14.02-29.65,22.29-21.15,21.9-58.95,18.57-21.98,6.13-31.18c10.98-18.37,22.33-36.23,34.16-53.43v-33.11s12.79-28.03,12.79-28.03v-2.98l-11.74,7.18-50.45,80.23-6.94,8.57-1.21-41.07c11.44-18.17,24.43-37.22,38.69-56.99l2.39-.74,27.5-32.41,14.36-15.24-2.63-16.29c1.49-.79,4.55,1.75,8.93,3.85l4.73,2.8,14.89,11.91c2.13,1.1,2.56,2.88,1.93,5.08l-1.93,3.5-2.1,19.97c-7.82,20.96-18.57,40.64-26.63,57.99l-3.94,30.57-13.58,27.94-2.63,9.28-5.96,23.47-14.89,32.2-21.55,19.7-3.33,30.54-18.48,31.07-14.63,11.39,3.68,53.43Z"/>
    <path class="cls-1" d="M601.55,464.97c-10.71-1.91-14.22-7.42-16.55-15.5v-32.58s0-3.97,0-3.97l1.31-9.15c.51-9.07,2.89-21.56,5.78-34.97,1.81-8.36,1.4-17.9-.26-28.11l-7.16-61.38c-1.84-17.78,6.51-22.84,25.09-26.72l63-3.09,90.83-6.04v-2.89c-58.5,3.88-113,7.22-153.64,8.67-18.57,2.6-30.24,10.66-28.38,29.43,.79,14.15,4.29,39.87,7.8,67.01,.76,6.52,.92,12.64,.28,18.2l-4.68,25.62c-1.4,5.87-2.24,15.09-2.94,25.1l-.46,34.36c.77,7.9,2.97,14.74,7.39,16.98l12.58-.95Z"/>
    <path class="cls-1" d="M531.83,470.84l13.66-1.23c5.64-4.27,8.63-13.13,10.16-24.53v-28.91c-.32-9.3,.85-19.35,3.15-29.96l2.98-18.04c1.86-8.1,2.63-18.04-1.05-34.51-.32-2.33-2.53-26.09-4.73-42.22-.29-8.85-.52-16.06-.7-21.55-1.38-9.21-4.22-17.32-8.5-24.35-5-8.2-7.71-15.22-9.55-25.75l-.7-37.64,.53-7.84,4.03-46.21c.3-2.22-.34-4.54-3.06-5.58l-10.08-8.37c-3.76-3.15-7.36-5.12-13.84-8.72-6.8-4.38-12.79-3.53-17.69,4.31l.26,2.04,1.14,2.72c2.89-8.15,8.54-9.9,13.37-7.1l9.76,5.53,15.64,12.38c1.32,.99,1.8,2.48,1.18,4.62l-2.63,34.16-2.28,16.99,1.23,35.67c.64,8.16,2.41,15.86,5.96,22.84,6.5,10.18,10.86,20.6,12.09,31.36-.73,11.89,.51,25.01,2.98,38.89l3.68,31.88c1.43,10.6,1.23,20.34-.88,29.08-3.17,16.51-5.27,32.04-5.61,44.32l-.53,30.13c-.84,11.61-7.52,20.12-19.97,25.58Z"/>
    <path class="cls-1" d="M494.31,139.3c3.77-4.4,9.9-10.6,6.14-18.56l-2.61-6.22c1.9-5.54,5.08-8.24,9.46-8.23l2.63,16.29-15.62,16.72Z"/>
    <path class="cls-1" d="M505.12,227h23.91l11.04,12.6c6.32,9.68,10.43,19.78,11.96,30.37-.26,13.85,.54,26.99,2.96,39.06l4.55,39.9c.37,6.71,.18,12.92-.86,18.36-3.16,14.13-5.16,29.81-6.3,46.63l-.57,31.35c-1.27,12.72-8.49,20.81-19.97,25.58l-120,10.16-3.68-53.43,14.63-11.39,18.48-31.07,3.33-30.54,21.55-19.7,14.89-32.2,8.4-32.11,13.76-28.59,1.93-14.97Z"/>
    <path class="cls-1" d="M327.68,76.86l-78.3,.95s3.46,27.03,2.86,45.3c-.65,19.97-7.31,56.22-6.41,89.85,.77,28.84,4.68,77.55,4.68,77.55,0,0,7.69-.16,19.45-1.72,6.42-.85,14.06-1.43,22.31-4.24,24.24-8.28,34.41-19.42,34.41-19.42,0,0-3.17-23.84-2.45-62.26,.72-38.42,4.92-44.25,6-74.64s-2.55-51.36-2.55-51.36Z"/>
  </g>
  <g id="zona_central" data-name="zona central">
    <path class="cls-1" d="M346.81,76.85s2.52,35.68,2.7,48c.18,12.32-4.86,42.26-5.58,57.31-.72,15.06-1.44,44.09-.72,49.83,.37,2.97,.65,6.37,.83,8.96,.1,1.37,1.8,1.93,2.69,.88,1.28-1.52,3.13-3.5,5.66-5.79,5.94-5.38,60.66-37.21,61.74-37.57s10.44-6.15,14.76-9.71,19.28-25.24,23.86-32.95c3.81-6.42,24.85-44.81,31.78-57.46,1.22-2.23,.38-5.02-1.87-6.2l-28.5-15.04c-2.64-1.4-5.6-2.1-8.59-2.04l-98.76,1.79Z"/>
    <rect class="cls-3" x="487.86" y="5.56" width="54.31" height="17.34"/>
    <rect class="cls-3" x="461.93" y="6.72" width="16.99" height="34.05"/>
    <polyline class="cls-6" points="487.16 28.42 518.34 28.42 518.34 45.33 487.16 45.33 487.16 28.2"/>
  </g>
  <g id="comercial">
    <path id="lotecc_0" class="cls-4" d="M120.15,506.58l-84.26,12.96c-.63-25.1-2.43-50.02-5.62-74.73l29.07-14.43,31.99-6.67,21.41-12.33,7.41,95.2Z"/>
    <polygon id="lotecc_1" class="cls-4" points="145.02 503.78 120.15 506.58 115.67 451.18 140.78 449.14 145.02 503.78"/>
    <polygon id="lotecc_2" class="cls-4" points="169.9 501.5 145.02 503.78 140.78 449.14 166.02 447.08 169.9 501.5"/>
    <polygon id="lotecc_3" class="cls-4" points="194.78 499.4 169.9 501.5 166.02 447.08 190.73 445.07 194.78 499.4"/>
    <polygon id="lotecc_4" class="cls-4" points="219.65 497.3 194.78 499.4 190.73 445.07 215.62 443.08 219.65 497.3"/>
    <polygon id="lotecc_5" class="cls-4" points="244.7 495.19 219.65 497.3 215.62 443.08 240.67 440.89 244.7 495.19"/>
    <polygon id="lotecc_6" class="cls-4" points="269.75 493.27 244.7 495.19 240.67 440.89 265.73 439.18 269.75 493.27"/>
    <polygon id="lotecc_7" class="cls-4" points="294.63 490.99 269.75 493.27 265.73 439.18 290.64 436.79 294.63 490.99"/>
    <polygon id="lotecc_8" class="cls-4" points="319.68 488.71 294.63 490.99 290.64 436.79 315.43 434.77 319.68 488.71"/>
    <polygon id="lotecc_9" class="cls-4" points="344.56 486.96 319.68 488.71 315.43 434.77 340.35 432.7 344.56 486.96"/>
    <polygon id="lotecc_10" class="cls-4" points="369.61 484.51 344.56 486.96 340.35 432.7 378.72 429.54 367.46 453.5 369.61 484.51"/>
    <path id="lotecc_11" class="cls-4" d="M505.12,227h23.91l11.04,12.6c6.32,9.68,10.43,19.78,11.96,30.37-.26,13.85,.54,26.99,2.96,39.06l4.55,39.9c.37,6.71,.18,12.92-.86,18.36-3.16,14.13-5.16,29.81-6.3,46.63l-.57,31.35c-1.27,12.72-8.49,20.81-19.97,25.58l-120,10.16-3.68-53.43,14.63-11.39,18.48-31.07,3.33-30.54,21.55-19.7,14.89-32.2,8.4-32.11,13.76-28.59,1.93-14.97Z"/>
  </g>
  <g id="zona_13" data-name="zona 13">
    <path id="lote_233" data-name="lote 233" class="cls-2" d="M434.5,3.91c1.8-.14,3.6-.05,5.4-.1,.48-.01,.98,.14,1.44-.11,2.96,0,5.92,0,8.88,0-.01,.22-.03,.44-.03,.66,.04,2.07,.03,4.14,.1,6.22,.08,2.27,.05,4.54,.11,6.82,.08,2.75,.06,5.5,.13,8.25,.08,3.03,.09,6.06,.13,9.09,.01,1.12,.02,2.23,.04,3.35,0,.21-.09,.44,.12,.62v3c-4.19,.04-8.38,.05-12.56,.14-1.25,.03-2.5,.11-3.76,.02,0-12.65,0-25.29,0-37.94Z"/>
    <path id="lote_232" data-name="lote 232" class="cls-5" d="M419.27,42.04c0-.18,.02-.36,.02-.54,0-12.3,0-24.6,0-36.9,0-.18-.01-.36-.02-.54,2.75-.18,5.5-.07,8.25-.13,2.11-.05,4.22-.06,6.33-.09,.22,0,.43,.03,.65,.05,0,12.65,0,25.29,0,37.94-1.29,.12-2.58,.07-3.88,.09-3.78,.06-7.57,.15-11.35,.11Z"/>
    <path id="lote_231" data-name="lote 231" class="cls-5" d="M403.32,4.26c5.32-.12,10.63-.18,15.95-.18,0,.18,.02,.36,.02,.54,0,12.3,0,24.6,0,36.9,0,.18-.01,.36-.02,.54-2.69,.04-5.39,.09-8.08,.13-2.63,.04-5.27,.07-7.9,.11,0-.12-.02-.24-.02-.36,0-12.38,0-24.76,0-37.13,0-.18,.03-.36,.04-.53Z"/>
    <path id="lote_230" data-name="lote 230" class="cls-5" d="M403.32,4.26c-.01,.18-.04,.36-.04,.53,0,12.38,0,24.76,0,37.13,0,.12,.01,.24,.02,.36-4.15,.04-8.3,.09-12.45,.13-.97,.01-1.94,.18-2.92,.04,.02-.18,.04-.36,.04-.53,0-12.38,0-24.76,0-37.13,0-.12-.01-.24-.02-.36,2.67-.2,5.34-.06,8.01-.13,2.23-.05,4.47-.06,6.7-.09,.22,0,.44,.03,.65,.04Z"/>
    <path id="lote_229" data-name="lote 229" class="cls-5" d="M372,4.62c5.32-.12,10.63-.18,15.95-.18,0,.12,.02,.24,.02,.36,0,12.38,0,24.76,0,37.13,0,.18-.03,.36-.04,.53-.8,.03-1.59,.06-2.39,.07-3.79,.05-7.59,.08-11.38,.13-.72,.01-1.43,.1-2.15,.04-.01-.22-.04-.44-.04-.65,0-12.26,0-24.52,0-36.78,0-.22,.03-.44,.04-.65Z"/>
    <path id="lote_228" data-name="lote 228" class="cls-5" d="M372,4.62c-.01,.22-.04,.44-.04,.65,0,12.26,0,24.52,0,36.78,0,.22,.03,.44,.04,.65-.88,.02-1.75,.06-2.63,.07-3.79,.05-7.57,.09-11.36,.11-.44,0-.86,.2-1.3,.05,0-.1,.03-.2,.03-.3,0-12.61,0-25.23,0-37.84,.53-.12,1.07-.1,1.61-.11,2.94,0,5.88,.02,8.81-.05,1.62-.04,3.23-.09,4.84-.03Z"/>
    <path id="lote_227" data-name="lote 227" class="cls-5" d="M340.69,4.98c.64-.03,1.27-.07,1.91-.08,2.94-.03,5.87-.01,8.81-.08,1.78-.04,3.55-.04,5.33-.03,0,12.61,0,25.23,0,37.84,0,.1-.02,.2-.03,.3-1.22,.03-2.43,.06-3.65,.08-2.39,.03-4.79,.04-7.18,.07-1.73,.02-3.47,.06-5.2,.09,0-.18-.03-.36-.03-.54,0-12.37,0-24.75,0-37.12,0-.18,.02-.36,.03-.54Z"/>
    <path id="lote_226" data-name="lote 226" class="cls-5" d="M325.44,43.36c0-.18,.02-.36,.02-.54,0-12.38,0-24.76,0-37.14,0-.18-.01-.36-.02-.54,.22-.13,.46-.1,.7-.1,1.64-.01,3.28-.02,4.91-.03,3.06-.03,6.11-.06,9.17-.08,.16,0,.32,.03,.47,.05,0,.18-.03,.36-.03,.54,0,12.37,0,24.75,0,37.12,0,.18,.02,.36,.03,.54-1.52,.03-3.03,.07-4.55,.08-3.57,.03-7.14,.17-10.71,.11Z"/>
    <path id="lote_225" data-name="lote 225" class="cls-5" d="M309.49,5.33c.22-.03,.43-.07,.65-.07,2.95-.03,5.9-.05,8.85-.07,2.15-.02,4.3-.03,6.45-.04,0,.18,.02,.36,.02,.54,0,12.38,0,24.76,0,37.14,0,.18-.01,.36-.02,.54-5.32,.14-10.65,.21-15.98,.24,0-.12-.02-.24-.02-.36,0-12.46,0-24.92,0-37.37,0-.18,.03-.36,.04-.53Z"/>
    <path id="lote_224" data-name="lote 224" class="cls-5" d="M309.49,5.33c-.01,.18-.04,.36-.04,.53,0,12.46,0,24.92,0,37.37,0,.12,.01,.24,.02,.36-2.74,.17-5.49,.06-8.24,.14-2.37,.08-4.74,.08-7.1,.09,0-.16,.02-.32,.02-.48,0-12.47,0-24.95,0-37.42,0-.16,0-.32-.01-.48,.14-.02,.27-.05,.41-.05,2.53-.01,5.07-.02,7.6-.04,2.23-.02,4.47-.06,6.7-.08,.22,0,.44,.03,.65,.04Z"/>
    <path id="lote_223" data-name="lote 223" class="cls-5" d="M278.15,5.65c.12-.01,.24-.03,.36-.03,3.21-.02,6.42-.04,9.63-.07,1.99-.02,3.99-.06,5.98-.09,0,.16,.01,.32,.01,.48,0,12.47,0,24.95,0,37.42,0,.16-.01,.32-.02,.48-3.07,.04-6.14,.09-9.21,.13-2.25,.03-4.5,.07-6.75,.1,0-12.81,0-25.62,0-38.42Z"/>
    <path id="lote_222" data-name="lote 222" class="cls-5" d="M278.15,5.65c0,12.81,0,25.62,0,38.42-2.23,.05-4.46,.1-6.7,.13-2.85,.04-5.7,.07-8.56,.1,0-11.45,0-22.9,0-34.35,0-1.38,0-2.75,0-4.13,.16-.11,.35-.06,.52-.06,2.85-.01,5.71,.02,8.56-.05,2.05-.05,4.11-.06,6.16-.07Z"/>
    <path id="lote_221" data-name="lote 221" class="cls-5" d="M246.94,5.99c1.83-.05,3.67-.01,5.5-.06,3.15-.08,6.3-.06,9.46-.07,.34,0,.67-.13,1.01-.03,0,1.38,0,2.75,0,4.13,0,11.45,0,22.9,0,34.35-1.5,.07-2.99,.02-4.49,.07-2.5,.08-4.99,.03-7.49,.08-1.32,.03-2.63,.07-3.95,.03-.01-.24-.04-.48-.04-.71,0-12.38,0-24.76,0-37.14,0-.22,.01-.44,.02-.66Z"/>
    <path id="lote_219" data-name="lote 219" class="cls-5" d="M215.64,6.36c1.71-.07,3.43-.02,5.14-.06,3.17-.08,6.34-.06,9.51-.07,.44,0,.87-.14,1.31-.03,0,12.59,0,25.17,0,37.76,0,.26-.02,.52-.03,.78-1.89-.05-3.77-.1-5.66-.14-.89-.02-1.79-.05-2.68-.07-2.13-.04-4.26-.08-6.39-.12-.4,0-.79-.05-1.19-.08,0-12.65,0-25.31,0-37.96Z"/>
    <path id="lote_218" data-name="lote 218" class="cls-5" d="M200.28,43.96c0-.16,.02-.32,.02-.48,0-12.16,0-24.31,0-36.47,0-.16,0-.32-.01-.48,.14-.02,.27-.05,.41-.05,2.81-.01,5.63,.04,8.43-.06,2.17-.07,4.34-.02,6.51-.08,0,12.65,0,25.31,0,37.96-3.07,0-6.13-.09-9.2-.22-.88-.04-1.76-.02-2.63-.04-1.17-.03-2.35-.06-3.52-.1Z"/>
    <path id="lote_217" data-name="lote 217" class="cls-5" d="M184.32,6.71c1.63-.07,3.27-.02,4.9-.06,3.17-.08,6.34-.05,9.51-.07,.52,0,1.03-.02,1.55-.04,0,.16,.01,.32,.01,.48,0,12.16,0,24.31,0,36.47,0,.16-.01,.32-.02,.48-2.79-.08-5.57-.16-8.36-.22-1.29-.03-2.59-.03-3.88-.06-1.23-.03-2.47-.09-3.7-.14,0-.1-.03-.2-.03-.3,0-12.17,0-24.35,0-36.52Z"/>
    <path id="lote_220" data-name="lote 220" class="cls-5" d="M231.57,44.73c0-.26,.03-.52,.03-.78,0-12.59,0-25.17,0-37.76,.16-.11,.35-.06,.52-.06,2.79-.01,5.59,.04,8.37-.05,2.15-.07,4.3-.02,6.45-.09,0,.22-.02,.44-.02,.66,0,12.38,0,24.76,0,37.14,0,.24,.03,.48,.04,.71-.44,.02-.87,.07-1.31,.07-4,.04-8.01,.08-12.01,.12-.69,0-1.38,.18-2.08,.04Z"/>
    <path id="lote_216" data-name="lote 216" class="cls-5" d="M169.08,43.15c0-11.83,0-23.65,0-35.48,0-.26-.02-.52-.03-.78,1.3-.02,2.59-.05,3.89-.07,3.79-.04,7.59-.08,11.38-.12,0,12.17,0,24.35,0,36.52,0,.1,.02,.2,.03,.3-1.37,.16-2.74-.07-4.12-.06-2.25,.01-4.5-.03-6.75-.15-1.47-.08-2.94,.03-4.4-.17Z"/>
    <path id="lote_215" data-name="lote 215" class="cls-5" d="M153.11,7.07c1.51-.05,3.02-.02,4.54-.06,3.13-.07,6.25-.05,9.38-.07,.67,0,1.35-.13,2.02-.04,0,.26,.03,.52,.03,.78,0,11.83,0,23.65,0,35.48-1.81-.03-3.63-.06-5.44-.1-.88-.02-1.75-.07-2.63-.1-2.63-.07-5.27-.13-7.9-.2,0-.18-.02-.36-.02-.54,0-11.54,0-23.08,0-34.62,0-.18,.01-.36,.02-.54Z"/>
    <path id="lote_214" data-name="lote 214" class="cls-5" d="M137.75,42.28c0-11.57,0-23.15,0-34.72,0-.1-.02-.2-.03-.3,1.26-.03,2.51-.06,3.77-.08,3.87-.04,7.74-.08,11.61-.11,0,.18-.02,.36-.02,.54,0,11.54,0,23.08,0,34.62,0,.18,.01,.36,.02,.54-1.71-.05-3.43-.1-5.14-.14-3.13-.08-6.26-.16-9.39-.24-.28,0-.55-.07-.83-.1Z"/>
    <path id="lote_213" data-name="lote 213" class="cls-5" d="M121.8,7.43c1.4-.07,2.79-.03,4.19-.06,3.15-.07,6.31-.05,9.47-.07,.76,0,1.51-.12,2.27-.04,0,.1,.03,.2,.03,.3,0,11.57,0,23.15,0,34.72-1.45,.07-2.91,.05-4.36,.06-3.86,.03-7.73,.16-11.59,.22,0-1.18,0-2.35,0-3.53,0-10.53,0-21.06,0-31.59Z"/>
    <path id="lote_212" data-name="lote 212" class="cls-5" d="M121.8,7.43c0,10.53,0,21.06,0,31.59,0,1.18,0,2.35,0,3.53-.61,.15-1.23,.06-1.84,.09-2.43,.1-4.86,.15-7.28,.26-1.93,.08-3.85,.21-5.78,.32-.16,0-.32-.02-.47-.04,.02-.22,.04-.44,.04-.65,0-11.42,0-22.84,0-34.26,0-.22-.03-.44-.04-.65,1.7-.02,3.39-.06,5.09-.07,3.43-.04,6.86-.07,10.3-.1Z"/>
    <path id="lote_211" data-name="lote 211" class="cls-5" d="M90.61,44.14c-.01-.18-.04-.36-.04-.54,0-11.8,0-23.6,0-35.4,0-.14,.01-.28,.02-.42,1.51-.03,3.03-.06,4.54-.07,2.99-.03,5.98-.02,8.97-.07,.77-.01,1.55-.08,2.32-.04,.01,.22,.04,.44,.04,.65,0,11.42,0,22.84,0,34.26,0,.22-.03,.44-.04,.65-2.56,.14-5.11,.28-7.67,.44-2.71,.16-5.42,.35-8.14,.52Z"/>
    <path id="lote_210" data-name="lote 210" class="cls-5" d="M73.33,45.28c0-.16,.02-.32,.02-.48,0-12.12,0-24.23,0-36.35,0-.16,0-.32-.01-.48,.16-.02,.31-.05,.47-.05,3.03-.01,6.06,.04,9.09-.05,2.57-.08,5.14-.02,7.7-.09,0,.14-.02,.28-.02,.42,0,11.8,0,23.6,0,35.4,0,.18,.03,.36,.04,.54-2.01,.14-4.01,.28-6.02,.42-3,.2-6,.4-9,.6-.75,.05-1.51,.08-2.27,.12Z"/>
    <path id="lote_209" data-name="lote 209" class="cls-5" d="M55.09,46.47c0-12.65,0-25.31,0-37.96,0-.1,.01-.2,.02-.3,.81-.03,1.63-.07,2.45-.08,3.21-.03,6.42-.04,9.63-.07,2.05-.02,4.1-.06,6.15-.09,0,.16,.01,.32,.01,.48,0,12.12,0,24.23,0,36.35,0,.16-.01,.32-.02,.48-6.08,.4-12.16,.8-18.24,1.19Z"/>
    <path id="lote_208" data-name="lote 208" class="cls-5" d="M36.33,8.4c.1,0,.2-.02,.3-.03,4.49-.04,8.97-.08,13.46-.12,1.45-.01,2.91-.06,4.36-.08,.22,0,.44,.03,.65,.05,0,.1-.02,.2-.02,.3,0,12.65,0,25.31,0,37.96-2.85,.26-5.71,.37-8.57,.66-2.63,.27-5.11-.24-7.09-2.27-.88-.9-2.09-1.36-3.18-1.97,.15-.22,.08-.47,.08-.7,0-11.27,0-22.53,0-33.8Z"/>
    <path id="lote_207" data-name="lote 207" class="cls-5" d="M36.33,8.4c0,11.27,0,22.53,0,33.8,0,.23,.07,.48-.08,.7-1.96-.78-3.98-1.39-6.05-1.8-3.12-.61-6.24-.68-9.39-.28-1.1,.14-2.21,.26-3.31,.39,0-.16-.02-.32-.02-.48,0-10.56,0-21.13,0-31.69,0-.14,0-.28,.01-.42,1.62-.03,3.23-.06,4.85-.07,2.69-.03,5.39,.01,8.08-.07,1.97-.06,3.95,.02,5.92-.08Z"/>
    <path id="lote_206" data-name="lote 206" class="cls-6" d="M.12,8.73c3.13,0,6.27,.08,9.4-.03,2.65-.09,5.3-.04,7.96-.08,0,.14-.01,.28-.01,.42,0,10.56,0,21.13,0,31.69,0,.16,.02,.32,.02,.48-1.38,.29-2.77,.55-4.14,.89-2.53,.62-4.89,1.71-7.28,2.72-1.97,.83-3.63,2.13-5.35,3.35h-.12c-.09-1.59-.04-3.18-.09-4.78-.12-3.52,.03-7.05-.13-10.58-.08-1.73-.02-3.47-.03-5.21-.03-3.17-.06-6.34-.1-9.51,0-.17,.07-.37-.12-.49V8.73Z"/>
  </g>
  <g id="zona_12" data-name="zona 12">
    <polyline id="lote_205" data-name="lote 205" class="cls-6" points="222.89 63.72 223.42 104.01 207.7 104.01 207.26 63.35 222.89 63.72"/>
    <polyline id="lote_204" data-name="lote 204" class="cls-3" points="207.26 63.35 207.7 103.14 192.06 103.14 191.62 62.97 207.26 63.35"/>
    <polyline id="lote_203" data-name="lote 203" class="cls-3" points="191.62 62.97 192.06 102.35 176.38 102.35 175.99 62.59 191.62 62.97"/>
    <polyline id="lote_202" data-name="lote 202" class="cls-3" points="175.99 62.59 176.38 101.65 160.79 101.65 160.29 62.21 175.99 62.59"/>
    <polyline id="lote_201" data-name="lote 201" class="cls-3" points="160.29 62.21 160.79 100.99 145.16 100.99 144.68 61.66 160.29 62.21"/>
    <polyline id="lote_200" data-name="lote 200" class="cls-3" points="144.68 61.66 145.16 100.99 129.52 100.99 128.95 61.62 144.68 61.66"/>
    <polyline id="lote_199" data-name="lote 199" class="cls-3" points="128.95 61.62 129.52 100.99 113.89 100.99 113.4 61.94 128.95 61.62"/>
    <polyline id="lote_198" data-name="lote 198" class="cls-3" points="113.4 61.94 113.89 101.69 98.24 101.69 97.85 62.91 113.4 61.94"/>
    <polygon id="lote_197" data-name="lote 197" class="cls-3" points="98.25 102.7 82.6 102.7 82.13 63.98 97.85 62.91 98.25 102.7"/>
    <polygon id="lote_196" data-name="lote 196" class="cls-3" points="82.62 103.88 67.01 103.75 66.46 65.03 82.13 63.98 82.62 103.88"/>
    <polygon id="lote_195" data-name="lote 195" class="cls-3" points="67.02 105.02 51.37 105.02 50.84 66.08 66.46 65.03 67.02 105.02"/>
    <path id="lote_194" data-name="lote 194" class="cls-3" d="M34.22,109.7h17.21l-.59-43.62c-3.28,.03-5.6,1.53-7.06,4.33-2.41,4.01-5.81,6.43-9.93,7.71l.37,31.58Z"/>
    <path id="lote_193" data-name="lote 193" class="cls-3" d="M34.22,109.7H15.43l-.36-31.97v-.37c6.71,2.26,12.96,2.45,18.78,.75l.37,31.58Z"/>
    <path id="lote_192" data-name="lote 192" class="cls-6" d="M15.43,109.7l-.36-32.34c-5.12-1.59-9.87-4.05-14.16-7.61l.39,39.94H15.43Z"/>
    <path id="lote_191" data-name="lote 191" class="cls-6" d="M15.43,109.7H1.31l.66,37.71c4.1-2.79,8.59-4.99,13.79-6.12l-.33-31.59Z"/>
    <path id="lote_190" data-name="lote 190" class="cls-3" d="M34.22,109.7H15.43l.33,31.59c6.17-1.91,12.09-1.77,18.74-.39l-.28-31.2Z"/>
    <path id="lote_189" data-name="lote 189" class="cls-3" d="M51.43,109.7h-17.21l.28,31.2c2.59,1.03,5.09,2.47,7.48,4.41,1.64,1.3,3.63,1.66,5.88,1.25l3.89-.46-.33-36.4"/>
    <polyline id="lote_188" data-name="lote 188" class="cls-3" points="67.46 144.92 67.02 105.02 51.37 105.02 51.76 146.1 67.46 144.92"/>
    <polyline id="lote_187" data-name="lote 187" class="cls-3" points="83.1 143.73 82.62 103.88 67.01 103.75 67.46 144.92 83.1 143.73"/>
    <polygon id="lote_186" data-name="lote 186" class="cls-3" points="98.25 102.7 98.67 142.53 83.1 143.73 82.6 102.7 98.25 102.7"/>
    <polygon id="lote_185" data-name="lote 185" class="cls-3" points="113.89 101.69 98.24 101.69 98.67 142.53 114.37 141.26 113.89 101.69"/>
    <polygon id="lote_184" data-name="lote 184" class="cls-3" points="130 140.38 129.52 100.99 113.89 100.99 114.37 141.26 130 140.38"/>
    <polyline id="lote_183" data-name="lote 183" class="cls-3" points="145.51 139.99 145.44 119.89 145.16 100.99 129.52 100.99 130 140.38 145.51 139.99"/>
    <polyline id="lote_182" data-name="lote 182" class="cls-3" points="161.21 140.15 161.21 140.15 160.79 109.77 160.79 100.99 145.16 100.99 145.51 139.99 161.21 140.15"/>
    <polyline id="lote_181" data-name="lote 181" class="cls-3" points="176.91 140.7 176.38 101.65 160.79 101.65 161.21 140.15 176.91 140.7"/>
    <polyline id="lote_180" data-name="lote 180" class="cls-3" points="192.54 141.76 192.06 102.35 176.38 102.35 176.91 140.7 192.54 141.76"/>
    <polyline id="lote_179" data-name="lote 179" class="cls-3" points="208.18 143.08 207.7 103.14 192.06 103.14 192.54 141.76 208.18 143.08"/>
    <polyline id="lote_178" data-name="lote 178" class="cls-6" points="223.94 144.39 223.42 104.01 207.7 104.01 208.18 143.08 223.94 144.39"/>
  </g>
  <g id="zona_11" data-name="zona 11">
    <polygon id="lote_177" data-name="lote 177" class="cls-6" points="220.63 202.86 220.2 163.24 205.44 162.07 205.75 202.86 220.63 202.86"/>
    <polygon id="lote_176" data-name="lote 176" class="cls-3" points="205.44 162.07 205.75 201.89 190.05 201.89 189.6 160.8 205.44 162.07"/>
    <polygon id="lote_175" data-name="lote 175" class="cls-3" points="190.05 200.95 189.6 160.8 173.89 159.71 174.28 200.95 190.05 200.95"/>
    <polygon id="lote_174" data-name="lote 174" class="cls-3" points="174.28 200.03 173.89 159.71 158.32 159.39 158.78 200.03 174.28 200.03"/>
    <polygon id="lote_173" data-name="lote 173" class="cls-3" points="158.78 199.44 158.32 159.39 142.62 159.21 143.08 198.98 143.08 199.44 158.78 199.44"/>
    <polygon id="lote_172" data-name="lote 172" class="cls-3" points="143.08 198.98 142.62 159.21 127.04 159.71 127.57 198.98 143.08 198.98"/>
    <polygon id="lote_171" data-name="lote 171" class="cls-3" points="127.57 199.44 127.04 159.71 111.46 160.66 111.87 199.44 127.57 199.44"/>
    <polygon id="lote_170" data-name="lote 170" class="cls-3" points="111.87 200.03 111.46 160.66 95.77 161.99 96.35 200.03 111.87 200.03"/>
    <polygon id="lote_169" data-name="lote 169" class="cls-3" points="96.37 201.08 95.77 161.99 80.14 163.13 80.65 201.08 96.37 201.08"/>
    <polygon id="lote_168" data-name="lote 168" class="cls-3" points="80.67 202.4 80.14 163.13 64.56 164.26 65.02 202.4 80.67 202.4"/>
    <path id="lote_167" data-name="lote 167" class="cls-3" d="M65.1,208.77l-.54-44.51c-8.84,.54-14.75,.96-15.72,1.8l.56,42.71h15.7Z"/>
    <path id="lote_166" data-name="lote 166" class="cls-3" d="M48.84,166.06l.56,42.71h-15.64l-.36-30.6c5.26-1.48,9.09-4.39,11.75-8.49,.81-1.71,2.12-2.82,3.68-3.62Z"/>
    <path id="lote_165" data-name="lote 165" class="cls-3" d="M33.76,208.77l-.36-30.6c-5.3,.82-10.49,.61-15.56-.79l.21,31.39h15.7Z"/>
    <path id="lote_164" data-name="lote 164" class="cls-6" d="M18.06,208.77l-.21-31.39c-5.4-1.5-10.32-3.93-14.76-7.24l3.28,38.63h11.69Z"/>
    <path id="lote_163" data-name="lote 163" class="cls-6" d="M6.37,208.77l3.61,35.34c4.69-3.16,9.63-5.37,14.85-6.57l-.39-28.77H6.37Z"/>
    <path id="lote_162" data-name="lote 162" class="cls-3" d="M24.83,237.54l-.39-28.77h20.3l.33,29.69c-4.9-2.24-12.09-2.07-20.23-.92Z"/>
    <path id="lote_161" data-name="lote 161" class="cls-3" d="M44.73,208.77l.33,29.69,6.18,4.6c.94,1.08,1.97,1.7,3.15,1.58l11.11-1.19-.4-34.68h-20.36Z"/>
    <polygon id="lote_160" data-name="lote 160" class="cls-3" points="65.5 243.45 65.02 202.4 80.67 202.4 81.06 241.78 65.5 243.45"/>
    <polygon id="lote_159" data-name="lote 159" class="cls-3" points="81.06 241.78 80.65 201.08 96.37 201.08 96.63 240.27 81.06 241.78"/>
    <polygon id="lote_158" data-name="lote 158" class="cls-3" points="96.35 200.03 96.63 240.27 112.33 239.29 111.87 200.03 96.35 200.03"/>
    <polygon id="lote_157" data-name="lote 157" class="cls-3" points="111.87 199.44 112.33 239.29 127.97 238.87 127.57 199.44 111.87 199.44"/>
    <polygon id="lote_156" data-name="lote 156" class="cls-3" points="127.97 238.87 127.57 198.98 143.08 198.98 143.6 238.98 127.97 238.87"/>
    <polygon id="lote_155" data-name="lote 155" class="cls-3" points="143.08 199.44 143.6 238.98 159.23 239.56 158.78 199.44 143.08 199.44"/>
    <polygon id="lote_154" data-name="lote 154" class="cls-3" points="158.78 200.03 174.28 200.03 174.94 240.31 159.23 239.56 158.78 200.03"/>
    <polygon id="lote_153" data-name="lote 153" class="cls-3" points="174.28 200.95 174.94 240.31 190.57 241.06 190.05 200.95 174.28 200.95"/>
    <polygon id="lote_152" data-name="lote 152" class="cls-3" points="190.05 201.89 190.57 241.06 206.14 241.8 205.75 201.89 190.05 201.89"/>
    <polygon id="lote_151" data-name="lote 151" class="cls-6" points="221.05 242.6 220.63 202.86 205.75 202.86 206.14 241.8 221.05 242.6"/>
  </g>
  <g id="zona_10" data-name="zona 10">
    <polygon id="lote_150" data-name="lote 150" class="cls-6" points="229.41 262.08 230.62 277.97 197.93 278.54 197.93 260.54 229.41 262.08"/>
    <polygon id="lote_149" data-name="lote 149" class="cls-3" points="182.29 286.95 182.23 259.61 163.08 258.8 163.48 287.14 182.29 286.95"/>
    <polygon id="lote_148" data-name="lote 148" class="cls-3" points="163.08 258.8 163.51 289.01 147.83 289.28 147.51 258.04 163.08 258.8"/>
    <polygon id="lote_147" data-name="lote 147" class="cls-3" points="147.51 258.04 147.84 289.8 132.21 290.13 131.84 257.97 147.51 258.04"/>
    <polygon id="lote_146" data-name="lote 146" class="cls-3" points="131.84 257.97 132.24 291.77 116.6 292 116.21 258.3 131.84 257.97"/>
    <polygon id="lote_145" data-name="lote 145" class="cls-3" points="101 293.78 116.6 293.51 116.21 258.3 100.56 259.06 101 293.78"/>
    <polygon id="lote_144" data-name="lote 144" class="cls-3" points="100.56 259.06 101 295.42 85.37 295.71 85 260.48 100.56 259.06"/>
    <polygon id="lote_143" data-name="lote 143" class="cls-3" points="85 260.48 85.4 298.05 69.83 298.24 69.33 262.11 85 260.48"/>
    <path id="lote_142" data-name="lote 142" class="cls-3" d="M69.83,304.26l-18.76,.39-.47-34.99,3.81-5.03c.62-.74,1.46-1.17,2.48-1.31l12.44-1.21,.5,42.15Z"/>
    <path id="lote_141" data-name="lote 141" class="cls-3" d="M51.07,304.65l-18.76,.23-.38-29.97c7.74,.96,13.33-.44,18.67-5.25l.47,34.99Z"/>
    <path id="lote_140" data-name="lote 140" class="cls-6" d="M16.22,305.21l16.09-.33-.38-29.97c-8.17-1.37-14.95-3.69-19.55-7.47l3.84,37.77Z"/>
    <path id="lote_139" data-name="lote 139" class="cls-6" d="M20.42,346.05l-4.2-40.84,17.69-.33,.31,34.49c-5.39,1.6-9.91,3.89-13.8,6.68Z"/>
    <path id="lote_138" data-name="lote 138" class="cls-3" d="M34.22,339.37l-.31-34.49,18.66-.26,.44,34.05c-6.65-1.12-12.9-.85-18.79,.7Z"/>
    <path id="lote_137" data-name="lote 137" class="cls-3" d="M52.57,304.62l.44,34.05c1.81,.44,3.85,1.37,6.1,2.77,1.07,1.17,2.49,1.52,4.32,.82l6.79-2.23-.39-35.77-17.25,.36Z"/>
    <path id="lote_136" data-name="lote 136" class="cls-3" d="M70.22,340.03l-.39-41.78,15.57-.2,.46,37.34c-5.59,1.46-10.8,3.01-15.64,4.64Z"/>
    <path id="lote_135" data-name="lote 135" class="cls-3" d="M85.86,335.38l-.48-39.67,15.63-.29,.41,36.33c-5.09,1.19-10.27,2.4-15.55,3.64Z"/>
    <polygon id="lote_134" data-name="lote 134" class="cls-3" points="101 293.78 101.4 331.75 117.04 328.81 116.6 293.51 101 293.78"/>
    <polygon id="lote_133" data-name="lote 133" class="cls-3" points="117.04 328.81 116.6 292 132.24 291.77 132.63 326.34 128.28 327.13 117.04 328.81"/>
    <polygon id="lote_132" data-name="lote 132" class="cls-3" points="132.21 290.13 132.63 326.34 148.25 323.09 147.84 289.8 132.21 290.13"/>
    <polygon id="lote_131" data-name="lote 131" class="cls-3" points="147.83 289.28 148.25 323.09 163.81 319.4 163.51 289.01 147.83 289.28"/>
    <path id="lote_130" data-name="lote 130" class="cls-3" d="M163.81,319.4l-.33-32.26,18.81-.2v22.38l-11.82,6.91c-2.35,1.47-4.57,2.52-6.66,3.15Z"/>
    <polygon id="lote_129" data-name="lote 129" class="cls-2" points="197.93 260.54 197.91 300.01 182.29 309.33 182.23 259.75 197.93 260.54"/>
    <path id="lote_128" data-name="lote 128" class="cls-7" d="M231.54,292.76l-.92-14.79-32.69,.56-.02,21.47,4.39-2.65c4.25-3.16-6.43,1.33,3.15-1.29,4.63-1.36,15.29-2.34,26.09-3.31Z"/>
  </g>
  <g id="zona_9" data-name="zona 9">
    <path id="lote_126" data-name="lote 126" class="cls-2" d="M148.86,368.34l12.42-8.28,19.31-23.65,11.88-10.71c-12.44,7.55-21.08,12.63-32.9,14.37l-11.31,2.43,.6,25.84Z"/>
    <polygon id="lote_125" data-name="lote 125" class="cls-2" points="137.36 376.03 148.86 368.34 148.25 342.5 131.38 346.08 131.71 378 137.36 376.03"/>
    <path id="lote_124" data-name="lote 124" class="cls-2" d="M131.38,346.08l.33,31.92-15.57,5.19-.47-34.79c5.22-.93,10.45-1.7,15.7-2.32Z"/>
    <polygon id="lote_123" data-name="lote 123" class="cls-2" points="100.57 386.93 100.07 351.69 115.67 348.4 116.14 383.19 110.69 385.09 100.57 386.93"/>
    <polygon id="lote_122" data-name="lote 122" class="cls-2" points="85.37 355.46 100.07 351.69 100.57 386.93 85.68 389.51 85.37 355.46"/>
    <path id="lote_121" data-name="lote 121" class="cls-2" d="M85.37,355.46l.31,34.05-7.21,1.4-7.52,4.76-3.86-26.44c-.25-1.82-.76-4.36-1.16-4.77,.82-3.12,1.74-3.57,4.72-4.37l14.73-4.62Z"/>
    <path id="lote_120" data-name="lote 120" class="cls-2" d="M55.03,375.39l.28,29.67,15.64-9.39s-4.47-33.96-5.09-31.03c-2.66,5.25-6.02,9.26-10.82,10.75Z"/>
    <path id="lote_119" data-name="lote 119" class="cls-2" d="M38.95,407.82l13.73-1.05,2.63-1.71-.28-29.67c-4.97,1.5-10.44,1.49-16.38,.06l.3,32.37Z"/>
    <path id="lote_118" data-name="lote 118" class="cls-6" d="M26.8,408.68l12.15-.85-.3-32.37c-2.88-.64-5.73-1.57-8.54-2.8l-7.53-4.6,4.23,40.62Z"/>
  </g>
  <g id="zona_8" data-name="zona 8">
    <path id="lote_103" data-name="lote 103" class="cls-2" d="M215.62,443.08l-21.64,1.73-1.84-20.21c.73-3.85,1.84-6.53,5.34-8.5,4.16-2.07,9.64-4.32,15.74-6.65l2.39,33.63Z"/>
    <path id="lote_104" data-name="lote 104" class="cls-3" d="M231.13,441.72l-15.5,1.36-2.39-33.63c4.48-1.58,9.58-3.06,15.21-4.44l2.69,36.71Z"/>
    <path id="lote_105" data-name="lote 105" class="cls-3" d="M246.76,440.36l-15.64,1.36-2.69-36.71c4.69-1.17,9.89-2.25,15.51-3.24l2.81,38.6Z"/>
    <polygon id="lote_106" data-name="lote 106" class="cls-3" points="262.31 439.18 246.76 440.36 243.95 401.76 250.66 400.68 259.42 399.9 262.31 439.18"/>
    <polygon id="lote_107" data-name="lote 107" class="cls-3" points="277.9 437.82 262.31 439.18 259.42 399.9 275.1 398.49 277.9 437.82"/>
    <polygon id="lote_108" data-name="lote 108" class="cls-3" points="293.58 436.55 277.9 437.82 275.1 398.49 290.64 397.11 293.58 436.55"/>
    <polygon id="lote_109" data-name="lote 109" class="cls-3" points="309.13 435.28 293.58 436.55 290.64 397.11 306.19 395.75 309.13 435.28"/>
    <polygon id="lote_110" data-name="lote 110" class="cls-3" points="324.67 434.01 309.13 435.28 306.19 395.75 316.83 394.87 321.78 394.54 324.67 434.01"/>
    <path id="lote_111" data-name="lote 111" class="cls-3" d="M340.35,432.7l-15.68,1.31-2.9-39.47c4.94-.42,10.14-1.38,15.54-2.72l3.04,40.88Z"/>
    <path id="lote_112" data-name="lote 112" class="cls-3" d="M357.43,431.3l-17.08,1.4-3.04-40.88c5.39-1.62,10.97-3.95,16.67-6.71l3.45,46.18Z"/>
    <path id="lote_113" data-name="lote 113" class="cls-3" d="M378.72,429.54l-21.28,1.75-3.45-46.18c4.62-2.22,9.1-5.24,13.47-8.88l14.02,47.61-2.76,5.69Z"/>
    <path id="lote_114" data-name="lote 114" class="cls-2" d="M406.92,394.24l-3.15,8.45-22.29,21.15-14.02-47.61c3-2.62,6.08-5.92,9.24-9.72l30.23,27.73Z"/>
    <polygon id="lote_115" data-name="lote 115" class="cls-2" points="414.24 374.27 406.92 394.24 376.7 366.52 389.67 351.82 414.24 374.27"/>
    <polygon id="lote_116" data-name="lote 116" class="cls-2" points="422.78 351.41 414.24 374.27 389.67 351.82 404.65 334.87 422.78 351.41"/>
    <polygon id="lote_117" data-name="lote 117" class="cls-2" points="438.19 328.64 425.67 343.75 422.78 351.41 404.65 334.87 420.22 316.88 422.49 314.09 438.19 328.64"/>
  </g>
  <g id="zona_7" data-name="zona 7">
    <path id="lote_88" data-name="lote 88" class="cls-7" d="M400.22,311.04l-21.22-19.53,3.52-5.43,.39-9.81c9.31,.94,18.24,1.35,26.7,1.09l.38,11.04c.26,7.14-.79,12.91-4.17,16.25l-5.61,6.39"/>
    <polyline id="lote_89" data-name="lote 89" class="cls-2" points="386.66 326.56 400.22 311.04 379 291.5 372.11 302.14 363.3 304.95 386.66 326.56"/>
    <polygon id="lote_90" data-name="lote 90" class="cls-2" points="345.39 309.87 376.18 338.58 386.66 326.56 363.3 304.95 358.4 306.05 345.39 309.87"/>
    <polyline id="lote_91" data-name="lote 91" class="cls-2" points="366.02 350.26 376.18 338.58 345.39 309.87 338.43 311.95 329.05 316.14 366.02 350.26"/>
    <path id="lote_92" data-name="lote 92" class="cls-2" d="M319.15,320.6l24.83,48.2c5.74-2.83,10.9-6.67,15.43-11.59l6.61-6.95-36.97-34.12-9.9,4.46Z"/>
    <path id="lote_93" data-name="lote 93" class="cls-2" d="M310.75,324.39l4.39,51.22c7.7-.26,15.09-1.51,22.11-3.95l6.74-2.86-24.83-48.2-8.41,3.79Z"/>
    <path id="lote_94" data-name="lote 94" class="cls-2" d="M295.16,327.89l4.11,49.07,15.87-1.35-4.39-51.22c-2.28,.81-8.81,2.06-15.59,3.5Z"/>
    <polygon id="lote_95" data-name="lote 95" class="cls-2" points="283.66 378.42 299.27 376.97 295.16 327.89 279.55 331.07 283.66 378.42"/>
    <polygon id="lote_96" data-name="lote 96" class="cls-2" points="264.42 337.19 268.15 379.86 283.66 378.42 279.55 331.07 279.21 331.14 264.42 337.19"/>
    <polygon id="lote_97" data-name="lote 97" class="cls-2" points="249.3 343.38 252.59 381.24 268.15 379.86 264.42 337.19 249.3 343.38"/>
    <polygon id="lote_98" data-name="lote 98" class="cls-2" points="237.21 383.44 233.8 345.18 248.97 343.51 249.3 343.38 252.59 381.24 237.21 383.44"/>
    <path id="lote_99" data-name="lote 99" class="cls-2" d="M218.21,347.02l3.52,39.92c4.95-1.4,10.11-2.56,15.48-3.5l-3.41-38.27-15.59,1.84Z"/>
    <polygon id="lote_100" data-name="lote 100" class="cls-2" points="206.14 391.6 202.58 348.4 205.38 345.49 218.21 347.02 221.73 386.94 206.14 391.6"/>
    <path id="lote_101" data-name="lote 101" class="cls-2" d="M188.46,398.97l-7.97-27.64,22.09-22.93,3.57,43.21-12.44,5.17c-1.97,1.06-3.79,1.89-5.25,2.19Z"/>
  </g>
  <g id="zona_6" data-name="zona 6">
    <path id="lote_84" data-name="lote 84" class="cls-6" d="M315.18,116.69c-.08-5.59-.16-11.19-.25-16.78-.08-4.97-.16-9.95-.24-14.92-.04-2.66-.08-5.31-.12-7.97,1.5-.01,3-.02,4.49-.04,2.67-.03,5.35-.06,8.02-.12,.45,0,.64,.12,.7,.57,.28,2.27,.61,4.54,.87,6.81,.26,2.23,.48,4.47,.69,6.71,.15,1.57,.28,3.13,.37,4.71,.19,3.5,.39,7,.52,10.51,.13,3.47,.09,6.95,.14,10.42-3.45,.05-6.9,.08-10.35,.16-1.41,.03-2.83,.1-4.24,.09-.21,0-.45,.08-.61-.14Z"/>
    <path id="lote_83" data-name="lote 83" class="cls-3" d="M315.18,116.69c-5.37,.08-10.75,.16-16.12,.24-.04-1.62-.08-3.23-.12-4.85-.06-2.47-.02-4.95-.11-7.42-.1-2.83-.08-5.67-.14-8.5-.05-2.15-.04-4.31-.1-6.46-.11-4.15-.12-8.3-.17-12.45,2.93-.15,5.86-.09,8.79-.14,2.45-.04,4.9-.05,7.35-.08,.04,2.66,.08,5.31,.12,7.97,.08,4.97,.16,9.95,.24,14.92,.09,5.59,.17,11.19,.25,16.78Z"/>
    <path id="lote_82" data-name="lote 82" class="cls-3" d="M298.43,77.25c.05,4.15,.06,8.3,.17,12.45,.06,2.16,.05,4.31,.1,6.46,.06,2.83,.04,5.67,.14,8.5,.08,2.47,.05,4.95,.11,7.42,.04,1.62,.08,3.23,.12,4.85-.28,0-.56,.02-.84,.02-2.39,.05-4.78,.09-7.17,.14-2.32-.05-4.65,.06-6.97,.09-.22,0-.44,0-.65,0-.05-2.61,.06-5.22-.1-7.84-.15-2.51-.06-5.02-.1-7.53-.07-3.79-.16-7.58-.17-11.37,0-1.19-.04-2.39-.08-3.58-.1-3.15,0-6.3-.14-9.45,2.18-.02,4.36-.04,6.53-.08,3.02-.04,6.03-.13,9.05-.08Z"/>
    <path id="lote_81" data-name="lote 81" class="cls-3" d="M282.85,77.41c.13,3.15,.04,6.3,.14,9.45,.04,1.19,.08,2.39,.08,3.58,0,3.79,.1,7.58,.17,11.37,.04,2.51-.05,5.03,.1,7.53,.16,2.61,.04,5.22,.1,7.84-3.86,.06-7.73,.12-11.59,.18-1.17,.02-2.35,.04-3.52,.06-.04-3.77-.03-7.55-.16-11.32-.09-2.46,0-4.91-.11-7.36-.13-2.61,0-5.23-.12-7.84-.11-2.4,0-4.79-.12-7.18-.1-2.04-.06-4.07-.09-6.1,4.45-.05,8.89-.11,13.34-.14,.6,0,1.19-.18,1.79-.06Z"/>
    <path id="lote_80" data-name="lote 80" class="cls-6" d="M252.35,117.67c-.04-1.94-.05-3.87-.13-5.81-.13-3.11-.28-6.21-.48-9.32-.2-3.1-.44-6.2-.72-9.3-.32-3.53-.7-7.06-1.07-10.58-.15-1.46-.33-2.93-.54-4.39-.09-.59,.3-.45,.58-.45,3.79-.12,7.59-.07,11.38-.15,2.12-.04,4.23-.07,6.35-.08,.04,2.03,0,4.07,.09,6.1,.12,2.39,0,4.79,.12,7.18,.12,2.61,0,5.23,.12,7.84,.12,2.45,.03,4.91,.11,7.36,.13,3.77,.11,7.55,.16,11.32-5.32,.08-10.65,.17-15.97,.25Z"/>
    <path id="lote_79" data-name="lote 79" class="cls-3" d="M252.35,117.67c5.32-.08,10.65-.17,15.97-.25,1.17-.02,2.35-.04,3.52-.06,3.86-.06,7.73-.12,11.59-.18,.22,0,.44,0,.65,0,2.32-.03,4.64-.15,6.97-.09,.02,1.44,.05,2.88,.07,4.32,.07,4.04,.14,8.07,.21,12.11-.79,.19-1.6,.05-2.39,.13-.14,0-.28-.02-.42-.02-3.93,.07-7.86,.14-11.79,.21-4.99,.08-9.98,.16-14.97,.24-3.41,.05-6.83,.1-10.24,.15,.13-1.77,.24-3.54,.38-5.31,.28-3.5,.4-7.01,.39-10.53,0-.24-.06-.48,.05-.71Z"/>
    <path id="lote_78" data-name="lote 78" class="cls-3" d="M288.95,133.65c.01,5.06,.08,10.13,.24,15.19-.67,.01-1.33,.02-2,.04-.18,0-.4-.08-.54,.14-3.59,.05-7.19,.09-10.78,.15-2.22,.03-4.43,.08-6.65,.12-5.27,.08-10.54,.15-15.81,.25-1.16,.02-2.31,.07-3.47,.05,.18-1.82,.36-3.64,.54-5.46,.18-1.74,.37-3.48,.55-5.22,.17-1.56,.33-3.12,.49-4.68,3.41-.05,6.83-.09,10.24-.15,4.99-.08,9.98-.16,14.97-.24,3.93-.07,7.86-.14,11.79-.21,.14,0,.28,.01,.42,.02Z"/>
    <path id="lote_77" data-name="lote 77" class="cls-3" d="M286.66,149.01c0,3.53,.01,7.07,.02,10.6,0,2.06,0,4.11,0,6.17-.24,.02-.48,.04-.72,.06-1.14-.04-2.27,.03-3.41,.05-4.71,.09-9.42,.15-14.12,.22-2.17,.03-4.35,.09-6.52,.12-4.59,.06-9.18,.12-13.77,.18,.22-2.3,.43-4.61,.67-6.91,.34-3.22,.7-6.43,1.05-9.64,.01-.09,.06-.18,.09-.27,1.16,.02,2.31-.03,3.47-.05,5.27-.1,10.54-.17,15.81-.25,2.22-.03,4.43-.08,6.65-.12,3.59-.05,7.19-.1,10.78-.15Z"/>
    <path id="lote_76" data-name="lote 76" class="cls-3" d="M285.95,165.84c.25,1.89,.05,3.79,.13,5.68,.14,3.29,.1,6.58,.13,9.87-.58,.09-1.18-.1-1.74,.13-2.48-.01-4.95,0-7.42,.08-1.98,.06-3.95,.05-5.93,.07-5.35,.08-10.7,.16-16.05,.24-2.45,.04-4.91,.08-7.36,.12-.32,0-.64,.05-.95,.07,.13-1.73,.24-3.46,.38-5.18,.13-1.63,.29-3.25,.44-4.88,.18-1.88,.38-3.76,.56-5.64,4.59-.06,9.18-.11,13.77-.18,2.17-.03,4.35-.08,6.52-.12,4.71-.07,9.42-.13,14.12-.22,1.14-.02,2.27-.09,3.41-.05Z"/>
    <path id="lote_75" data-name="lote 75" class="cls-3" d="M284.46,181.52c.02,1.46,.05,2.92,.07,4.37,.04,2.88,.06,5.75,.13,8.63,.03,1.06,.06,2.11,.06,3.17-.03,0-.06,.01-.08,.03-1.06,.02-2.11,.05-3.17,.07-5.05,.08-10.1,.16-15.15,.24-2.46,.04-4.91,.09-7.37,.12-4.35,.06-8.7,.11-13.06,.17,.03-3.36,.23-6.7,.42-10.05,.12-2.05,.28-4.1,.42-6.15,.32-.02,.64-.06,.95-.07,2.45-.04,4.91-.08,7.36-.12,5.35-.08,10.7-.16,16.05-.24,1.98-.03,3.95-.01,5.93-.07,2.47-.08,4.95-.1,7.42-.08Z"/>
    <path id="lote_74" data-name="lote 74" class="cls-3" d="M284.87,213.34c-2.62,.04-5.23,.09-7.85,.13-5.23,.08-10.46,.16-15.69,.24-2.34,.04-4.67,.07-7.01,.12-2.81,.06-5.63,.12-8.44,.18-.2-4.28-.12-8.56-.1-12.84,0-.95,.07-1.91,.11-2.86,4.35-.05,8.7-.11,13.06-.17,2.46-.03,4.91-.08,7.37-.12,5.05-.08,10.1-.16,15.15-.24,1.06-.02,2.11-.04,3.17-.07,.2,2.65,0,5.31,.14,7.96,.13,2.56,.05,5.11,.09,7.66Z"/>
    <path id="lote_73" data-name="lote 73" class="cls-3" d="M284.91,229.07v-15.68s-.02-.04-.04-.06c-2.62,.04-5.23,.09-7.85,.13-5.23,.08-10.46,.16-15.69,.24-2.34,.04-4.67,.07-7.01,.12-2.81,.06-5.63,.12-8.44,.18,.03,1.17,.03,2.34,.08,3.51,.1,2.12,.15,4.24,.25,6.36,.09,1.94,.13,3.88,.29,5.82,5.27-.08,10.53-.16,15.8-.24,2.53-.04,5.07-.08,7.6-.12,4.75-.08,9.49-.16,14.24-.24,.16,0,.32,0,.48,.01,.11,0,.2-.02,.28-.05h0Z"/>
    <path id="lote_72" data-name="lote 72" class="cls-3" d="M246.51,229.71c5.27-.08,10.53-.16,15.8-.24,2.53-.04,5.07-.08,7.6-.12,4.75-.08,9.49-.16,14.24-.24,.16,0,.32,0,.48,.01,.17,5.12,.27,10.25,.25,15.37-1.66,.04-3.31,.08-4.97,.11-2.41,.05-4.83,.05-7.24,.11-5.27,.12-10.53,.17-15.8,.25-3.17,.05-6.34,.1-9.52,.15-.09-1.55-.19-3.1-.27-4.64-.12-2.22-.23-4.45-.37-6.67-.09-1.37-.19-2.73-.2-4.1Z"/>
    <path id="lote_71" data-name="lote 71" class="cls-3" d="M285.21,258.53c-3.71,.05-7.42,.06-11.13,.17-2.43,.07-4.86,.03-7.3,.13-2.75,.05-5.51,.09-8.26,.14-2,.03-3.99,.05-5.99,.08-1.42,.02-2.83,.06-4.25,.09-.21-1.3-.21-2.62-.3-3.93-.23-3.26-.42-6.52-.63-9.78,0-.1,0-.2,0-.3,3.17-.05,6.34-.11,9.52-.15,5.27-.08,10.53-.13,15.8-.25,2.41-.06,4.83-.06,7.24-.11,1.66-.03,3.31-.08,4.97-.11,.04,0,.08,.02,.12,.03,.08,4.53,.15,9.06,.22,13.6,0,.14,0,.28-.02,.42Z"/>
    <path id="lote_70" data-name="lote 70" class="cls-7" d="M266.93,289.13c-1.34,.16-2.68,.35-4.03,.48-2.12,.21-4.24,.43-6.37,.57-1.87,.12-3.74,.28-5.62,.29-.33,0-.44-.11-.47-.45-.15-2.39-.33-4.77-.5-7.16-.24-3.26-.48-6.52-.72-9.78-.17-2.31-.32-4.61-.49-6.92-.18-2.35-.38-4.69-.46-7.04,1.42-.03,2.83-.06,4.25-.09,2-.03,3.99-.05,5.99-.08,2.75-.04,5.51-.09,8.26-.14,.03,2.09,.07,4.19,.08,6.28,.02,4.21,0,8.43,.02,12.64,0,3.79,.03,7.59,.05,11.38Z"/>
    <path id="lote_69" data-name="lote 69" class="cls-2" d="M266.93,289.13c-.02-3.79-.04-7.59-.05-11.38-.01-4.21,0-8.43-.02-12.64,0-2.09-.05-4.19-.08-6.28,2.43-.1,4.86-.06,7.3-.13,3.71-.11,7.42-.12,11.13-.17,.01,1.32,.03,2.64,.04,3.95,.04,2.83,.03,5.67,.13,8.5,.09,2.46,.02,4.91,.12,7.36,.11,2.67,.06,5.35,.12,8.02-1.83,.48-3.69,.8-5.56,1.08-2.2,.33-4.41,.62-6.62,.9-2.17,.28-4.34,.52-6.51,.78Z"/>
    <path id="lote_68" data-name="lote 68" class="cls-2" d="M285,244.52c2.07-.01,4.15,.04,6.22-.05,2.55-.11,5.1-.02,7.64-.12,1.29-.05,2.58-.07,3.88-.07,.05,2.51,0,5.03,.11,7.54,.1,2.59,.02,5.19,.12,7.78,.09,2.41,.04,4.83,.11,7.24,.09,2.79,.04,5.59,.13,8.38,.05,1.64,.05,3.27,.07,4.91-1.49,.82-3.08,1.41-4.65,2.04-3.93,1.57-7.89,3.02-12.02,3.99-.33,.08-.66,.14-.99,.2-.06-2.67-.01-5.35-.12-8.02-.1-2.45-.03-4.91-.12-7.36-.1-2.83-.1-5.67-.13-8.5-.02-1.32-.03-2.64-.04-3.95,0-.14,.02-.28,.02-.42-.07-4.53-.15-9.06-.22-13.6Z"/>
    <path id="lote_67" data-name="lote 67" class="cls-7" d="M303.28,280.15c-.02-1.64-.02-3.28-.07-4.91-.09-2.79-.04-5.59-.13-8.38-.08-2.42-.02-4.83-.11-7.24-.1-2.59-.02-5.19-.12-7.78-.1-2.52-.06-5.03-.11-7.54,3.49-.05,6.97-.07,10.46-.17,2.75-.08,5.5-.04,8.25-.13,1.15-.04,2.31-.04,3.46-.08,.13,2.05,.26,4.1,.4,6.15,.2,2.83,.39,5.65,.69,8.47,.21,2.02,.41,4.05,.63,6.07,.04,.39-.06,.67-.35,.95-3.17,3.07-6.74,5.63-10.46,7.99-3.85,2.44-7.88,4.55-12.03,6.45-.16,.07-.34,.11-.51,.17Z"/>
    <path id="lote_66" data-name="lote 66" class="cls-3" d="M284.91,229.07c-.08,.03-.17,.04-.28,.05,.17,5.12,.27,10.25,.25,15.37,.04,0,.08,.02,.12,.03,2.07-.01,4.15,.04,6.22-.05,2.55-.11,5.1-.02,7.64-.12,1.29-.05,2.58-.07,3.88-.07,3.49-.05,6.97-.07,10.46-.17,2.75-.08,5.5-.04,8.25-.13,1.15-.04,2.31-.04,3.46-.08-.1-2.11-.22-4.22-.3-6.33-.11-2.82-.2-5.64-.29-8.46h-39.4v-.03Z"/>
    <rect id="lote_65" data-name="lote 65" class="cls-3" x="284.91" y="213.39" width="39.2" height="15.68"/>
    <path id="lote_64" data-name="lote 64" class="cls-3" d="M324.12,213.39c.02-2.14,.05-4.29,.07-6.43,.01-1.4,.03-2.8,.05-4.2,.03-1.92,.15-3.83,.09-5.75-2.79,.04-5.59,.03-8.38,.14-2.25,.09-4.51,.01-6.76,.11-2.45,.11-4.91,.02-7.36,.12-2.29,.1-4.59,.02-6.88,.12-2.39,.11-4.79,.03-7.18,.12-1.02,.04-2.03,.07-3.05,.06-.03,0-.06,.01-.08,.03,.2,2.65,0,5.31,.14,7.96,.13,2.56,.05,5.11,.09,7.66,.02,.02,.03,.04,.04,.06h39.2Z"/>
    <path id="lote_63" data-name="lote 63" class="cls-3" d="M324.33,197.02c-2.79,.04-5.59,.03-8.38,.14-2.25,.09-4.51,.01-6.76,.11-2.45,.11-4.91,.02-7.36,.12-2.29,.1-4.59,.02-6.88,.12-2.39,.11-4.79,.03-7.18,.12-1.02,.04-2.03,.07-3.05,.06,0-1.06-.04-2.11-.06-3.17-.07-2.88-.09-5.75-.13-8.63-.02-1.46-.05-2.92-.07-4.37,.57-.23,1.17-.04,1.74-.13,2.13,0,4.27,0,6.4-.09,2.47-.1,4.95-.02,7.42-.12,2.57-.1,5.15-.02,7.72-.12,2.43-.1,4.87-.04,7.3-.12,3.37-.11,6.75-.11,10.12-.15-.14,2.26-.28,4.53-.42,6.79-.06,1.09-.11,2.19-.16,3.28-.09,2.05-.18,4.1-.26,6.15Z"/>
    <path id="lote_62" data-name="lote 62" class="cls-3" d="M285.95,165.84c.24-.02,.48-.04,.72-.06,2.42,.07,4.83-.05,7.24-.08,1.66-.02,3.32,.01,4.97-.05,2.75-.11,5.51-.02,8.26-.13,2.44-.09,4.87-.02,7.31-.11,2.69-.11,5.39-.03,8.08-.13,1.4-.05,2.79-.06,4.19-.07-.17,1.6-.35,3.21-.52,4.81-.27,2.66-.53,5.31-.79,7.97-.09,.93-.17,1.87-.25,2.8-3.37,.04-6.75,.04-10.12,.15-2.43,.08-4.87,.02-7.3,.12-2.57,.11-5.15,.02-7.72,.12-2.47,.1-4.95,.02-7.42,.12-2.14,.09-4.27,.08-6.4,.09-.02-3.29,.02-6.58-.13-9.87-.08-1.89,.12-3.79-.13-5.68Z"/>
    <path id="lote_61" data-name="lote 61" class="cls-3" d="M328.8,148.27c-.13,2.05-.42,4.08-.67,6.11-.28,2.37-.6,4.74-.9,7.1-.16,1.24-.33,2.48-.49,3.73-1.4,.01-2.79,.02-4.19,.07-2.69,.1-5.39,.02-8.08,.13-2.43,.1-4.87,.02-7.31,.11-2.75,.1-5.51,.02-8.26,.13-1.66,.06-3.32,.03-4.97,.05-2.41,.04-4.83,.15-7.24,.08,0-2.06,0-4.11,0-6.17,0-3.53-.01-7.07-.02-10.6,.14-.22,.35-.13,.54-.14,.67-.02,1.33-.03,2-.04,1.06,.03,2.11-.02,3.17-.05,2.75-.09,5.51-.01,8.27-.12,2.69-.11,5.39-.01,8.09-.12,2.73-.11,5.47-.04,8.21-.12,3.95-.11,7.91-.11,11.87-.16Z"/>
    <path id="lote_60" data-name="lote 60" class="cls-3" d="M288.95,133.65c.79-.08,1.6,.06,2.39-.13,2,0,4,.09,5.99-.03,2.51-.14,5.03,.03,7.54-.12,2.49-.15,4.99,.03,7.48-.12,2.49-.15,4.99,.03,7.48-.12,2.55-.15,5.11,0,7.66-.12,.83-.04,1.67-.06,2.5-.1-.02,2.41-.24,4.81-.41,7.22-.18,2.52-.45,5.04-.68,7.56-.02,.2-.07,.39-.1,.58-3.96,.05-7.91,.04-11.87,.15-2.74,.08-5.47,.01-8.21,.12-2.7,.1-5.4,.01-8.09,.12-2.76,.11-5.51,.03-8.27,.12-1.06,.03-2.11,.08-3.17,.05-.17-5.06-.23-10.12-.24-15.19Z"/>
    <path id="lote_59" data-name="lote 59" class="cls-3" d="M330.46,122.36c-.16,.12-.1,.29-.11,.44-.05,2.04-.08,4.07-.14,6.11-.04,1.33-.14,2.67-.22,4-.83,.04-1.67,.06-2.5,.1-2.55,.12-5.1-.03-7.66,.12-2.49,.15-4.98-.03-7.48,.12-2.49,.15-4.98-.03-7.48,.12-2.51,.15-5.02-.03-7.54,.12-1.99,.11-3.99,.02-5.99,.03-.07-4.04-.14-8.07-.21-12.11-.02-1.44-.05-2.88-.07-4.32,2.39-.05,4.78-.09,7.17-.14,.28,0,.56-.01,.84-.02,5.37-.08,10.75-.16,16.12-.24,.16,.22,.4,.14,.61,.14,1.41,.01,2.83-.06,4.24-.09,3.45-.08,6.9-.11,10.35-.16l.04-.02,.03,.03v5.76Z"/>
  </g>
  <g id="zona_5" data-name="zona 5">
    <path id="lote_58" data-name="lote 58" class="cls-3" d="M444.61,75.06c.71,0,1.41,0,2.12,0,2.82,.15,5.47,.93,7.94,2.3,1.63,.9,3.32,1.69,4.91,2.65,0,0,0,0,0,0-.65-.05-1.09-.61-1.71-.72,0,1.25-.01,2.48,0,3.71,.03,3.17,.08,6.35,.12,9.52,.04,3.23,.08,6.47,.12,9.7,.06,5.51,.14,11.02,.18,16.53,0,1.16,.13,2.31,.02,3.47-4.76,.05-9.52,.11-14.28,.16-.22,0-.44-.01-.66-.02-.05-4.57-.1-9.15-.15-13.72-.04-3.21-.08-6.43-.12-9.64-.04-3.17-.08-6.35-.12-9.52-.04-3.17-.08-6.35-.12-9.52-.02-1.44-.07-2.87-.07-4.31,0-.41-.17-.45-.5-.44"/>
    <path id="lote_57" data-name="lote 57" class="cls-3" d="M443.38,122.35c-3.23,.2-6.46,.06-9.69,.15-2.09,.06-4.19,.1-6.28,.07-.02-.84-.04-1.68-.05-2.51-.04-3.23-.08-6.47-.12-9.7-.04-3.15-.08-6.31-.12-9.46-.04-3.69-.08-7.39-.12-11.08-.02-1.76-.04-3.51-.06-5.27-.03-2.85-.06-5.71-.11-8.56,0-.33,.08-.45,.43-.45,.86,0,1.71-.03,2.57-.07,.84-.04,1.7,.12,2.53-.11,.23-.22,.5-.09,.75-.08,1.01,.17,2.02,.07,3.03,.07,2.06,0,4.11-.03,6.16-.13,.33-.02,.5,.03,.5,.44,0,1.44,.05,2.87,.07,4.31,.04,3.17,.08,6.35,.12,9.52,.04,3.17,.08,6.35,.12,9.52,.04,3.21,.08,6.43,.12,9.64,.05,4.57,.1,9.14,.15,13.72Z"/>
    <path id="lote_56" data-name="lote 56" class="cls-3" d="M427.25,75.52c-.34,0-.43,.12-.43,.45,.05,2.85,.08,5.71,.11,8.56,.02,1.76,.04,3.51,.06,5.27,.04,3.69,.08,7.39,.12,11.08,.04,3.15,.08,6.31,.12,9.46,.04,3.23,.08,6.47,.12,9.7,.01,.84,.04,1.68,.05,2.51-1.84,.02-3.67,.04-5.51,.07-2.65,.04-5.31,.08-7.96,.12-.62-.02-1.24-.04-1.87-.05,0,0,0,.01,0,.01-.05-4.89-.1-9.79-.16-14.68-.03-2.66-.08-5.31-.12-7.97-.05-3.7-.08-7.39-.12-11.09-.04-3.16-.08-6.31-.12-9.47-.02-1.12-.06-2.23-.07-3.35,0-.28-.07-.39-.37-.37"/>
    <path id="lote_55" data-name="lote 55" class="cls-3" d="M408.93,122.86c-.98-.01-1.95-.04-2.93-.03-3.3,.03-6.59,.08-9.89,.12-.07-4.27-.14-8.54-.2-12.81-.05-3.19-.08-6.39-.12-9.58-.04-3.67-.08-7.35-.12-11.02-.02-1.82-.05-3.63-.06-5.45-.02-2.71-.14-5.43-.07-8.14,.38-.06,.76-.05,1.14,0,.85,.22,1.71,.18,2.56,0,.76-.22,1.54-.18,2.29-.11,.55,.05,1.11,.06,1.66,.11,.23,0,.47,.03,.7,0,.65-.07,1.31,.13,1.94-.12,.76-.22,1.54-.18,2.29-.11,.55,.05,1.11,.06,1.66,.11,.44,0,.88,.02,1.32,0,.29-.02,.37,.09,.37,.37,0,1.12,.05,2.23,.07,3.35,.04,3.16,.08,6.31,.12,9.47,.04,3.7,.08,7.39,.12,11.09,.03,2.66,.09,5.31,.12,7.97,.06,4.89,.11,9.79,.16,14.68-1.04,.19-2.09,.04-3.14,.13Z"/>
    <path id="lote_54" data-name="lote 54" class="cls-3" d="M393.09,76.02c.82-.01,1.63-.06,2.45-.09-.06,2.71,.05,5.43,.07,8.14,.01,1.82,.04,3.63,.06,5.45,.04,3.67,.08,7.35,.12,11.02,.04,3.19,.07,6.39,.12,9.58,.06,4.27,.13,8.54,.2,12.81-5.04,.06-10.08,.11-15.12,.17-.14-2.19-.1-4.39-.13-6.58-.06-4.51-.1-9.02-.15-13.54-.04-3.15-.08-6.31-.12-9.46-.04-3.21-.08-6.43-.12-9.64-.03-2.32-.08-4.63-.08-6.95,0-.46-.13-.58-.57-.56"/>
    <path id="lote_53" data-name="lote 53" class="cls-3" d="M364.95,123.31c-.05-4.4-.09-8.79-.14-13.19-.05-4.3-.1-8.59-.15-12.89-.04-3.58-.08-7.15-.12-10.73-.04-3.1-.07-6.19-.13-9.29,0-.44,.1-.59,.56-.58,.42,.01,.86,.14,1.26-.09,1.35-.19,2.7-.19,4.06-.13,.85,.22,1.69,.16,2.54,0,1.35-.19,2.7-.19,4.06-.13,.14,.23,.36,.12,.54,.12,.8,0,1.6,0,2.4-.04,.44-.03,.57,.1,.57,.56,0,2.32,.05,4.63,.08,6.95,.04,3.21,.08,6.43,.12,9.64,.04,3.15,.08,6.31,.12,9.46,.05,4.51,.09,9.02,.15,13.54,.03,2.19,0,4.39,.13,6.58-2.1,.04-4.19,.08-6.29,.1-3.25,.04-6.51,.07-9.76,.1Z"/>
    <path id="lote_52" data-name="lote 52" class="cls-6" d="M364.95,123.31c-3.29,.05-6.59,.1-9.88,.15-1.86,.03-3.71,.06-5.57,.09-.11-2.65-.18-5.31-.32-7.96-.32-6.04-.66-12.08-1.03-18.12-.31-5.2-.66-10.4-.99-15.6-.09-1.43-.16-2.87-.32-4.3-.08-.65,.16-.75,.7-.75,1.6,0,3.2-.05,4.79-.07,4.45-.07,8.91-.15,13.36-.22,.18,0,.36,0,.54,.01-.41,.23-.85,.1-1.26,.09-.46-.01-.57,.14-.56,.58,.06,3.1,.09,6.19,.13,9.29,.04,3.58,.08,7.15,.12,10.73,.05,4.3,.11,8.59,.15,12.89,.05,4.4,.09,8.79,.14,13.19Z"/>
    <path id="lote_51" data-name="lote 51" class="cls-3" d="M409.09,139.48c-1.23,.02-2.45,.03-3.68,.06-.61,.01-1.22,.04-1.84,.07-.22,0-.44-.03-.66-.02-2.98,.04-5.95,.08-8.93,.12-3.14,.04-6.27,.08-9.41,.12-4.5,.05-8.99,.1-13.49,.16-2.48,.03-4.96,.06-7.43,.09-5.05,.06-10.11,.12-15.16,.18,.16-1.75,.32-3.49,.49-5.24,.36-3.81,.58-7.63,.52-11.46,1.86-.03,3.71-.06,5.57-.09,3.29-.05,6.59-.1,9.88-.15,3.25-.03,6.51-.06,9.76-.1,2.1-.03,4.19-.07,6.29-.1,5.04-.06,10.08-.11,15.12-.17,3.3-.04,6.59-.08,9.89-.12,.98,0,1.95,.02,2.93,.03,.05,4.9,.1,9.81,.16,14.71,0,.64,.11,1.27,0,1.91Z"/>
    <path id="lote_50" data-name="lote 50" class="cls-3" d="M348.5,140.25c5.05-.06,10.11-.12,15.16-.18,2.48-.03,4.96-.06,7.43-.09,4.5-.05,8.99-.1,13.49-.16,3.14-.04,6.27-.08,9.41-.12,2.98-.04,5.95-.08,8.93-.12,.22,0,.44,.02,.66,.02,.03,2.71,.05,5.43,.08,8.14,.03,2.69,.08,5.39,.12,8.08-3.08,.05-6.15,.1-9.23,.15-.5-.1-.99,.07-1.49,.07-3.19,.05-6.39-.02-9.59,.1-3.21,.13-6.43-.01-9.65,.12-3.13,.13-6.27,0-9.4,.12-3.21,.13-6.43,0-9.64,.12-2.73,.1-5.48,.04-8.21,.04,.21-1.8,.43-3.6,.64-5.4,.22-1.9,.45-3.8,.67-5.7,.2-1.74,.41-3.48,.61-5.22Z"/>
    <path id="lote_49" data-name="lote 49" class="cls-3" d="M346.58,156.56c2.74,0,5.48,.06,8.21-.04,3.22-.12,6.43,.01,9.64-.12,3.14-.13,6.27,0,9.4-.12,3.22-.13,6.43,0,9.65-.12,3.2-.13,6.39-.05,9.59-.1,.5,0,.99-.17,1.49-.07,.05,4.94,.1,9.88,.15,14.81,0,.24,.05,.47,.07,.71-1.48,.02-2.95,.03-4.43,.07-1.49,.04-2.99-.03-4.47,.14-.21-.1-.43-.06-.65-.06-1.82,.03-3.64,.06-5.45,.09-3.22,.04-6.43,.08-9.65,.12-3.18,.04-6.35,.08-9.53,.12-5.28,.06-10.55,.11-15.83,.17,.12-1.27,.23-2.54,.38-3.8,.21-1.88,.46-3.75,.69-5.63,.25-2.05,.5-4.11,.75-6.16Z"/>
    <path id="lote_48" data-name="lote 48" class="cls-3" d="M343.67,187.34c.19-4.86,.52-9.7,1-14.54,.02-.22,.07-.43,.1-.65,5.28-.06,10.55-.11,15.83-.17,3.18-.04,6.35-.08,9.53-.12,3.22-.04,6.43-.08,9.65-.12,1.82-.02,3.64-.06,5.45-.09,.22,0,.44-.04,.65,.06,0,.22-.01,.44-.01,.66,0,4.77,0,9.55,0,14.32-.24,0-.48,.02-.72,.02-13.5,0-26.99,0-40.49,0-.86,0-.82,0-.84,.85"/>
    <path id="lote_47" data-name="lote 47" class="cls-3" d="M359.89,202.46c0-.14-.01-.28,0-.42,.04-.36-.09-.5-.47-.49-.52,0-1.03,.08-1.55,.1-2.59,.07-5.19-.02-7.78,.11-1.91,.09-3.83,.07-5.75,.02-.64-.01-1.02,.09-.99,.81-.09-.15,.1-.39-.15-.49-.04-.59-.06-1.18,.04-1.76,.31-.08,.16-.33,.16-.5,.07-2.15,.13-4.31,.2-6.46,.06-1.93,.15-3.87,.2-5.8,.02-.85-.01-.85,.84-.85,13.5,0,26.99,0,40.49,0,.24,0,.48-.01,.72-.02,0,4.84,0,9.68,0,14.52-.12-.01-.24-.04-.35-.04-4.03,.07-8.07,.15-12.1,.21-4.15,.06-8.31,.11-12.46,.16-.98,.01-.98,0-.98,.95"/>
    <path id="lote_46" data-name="lote 46" class="cls-7" d="M343.36,202.58c-.03-.71,.35-.82,.99-.81,1.92,.04,3.84,.07,5.75-.02,2.59-.13,5.19-.04,7.78-.11,.52-.01,1.03-.09,1.55-.1,.38,0,.51,.14,.47,.49-.01,.14,0,.28,0,.42,0,9.09,0,18.18,0,27.26,0,.43,.05,.86-.23,1.24,0,0-.02,0-.02,0-.81,.22-1.47,.67-2.02,1.31,0,0-.02,.02-.02,.02-.19-.04-.35-.03-.34,.22,0,0-.02,.01-.02,.01-.19-.04-.35-.03-.34,.23,0,0-.02,.01-.02,.01-.19-.04-.35-.03-.34,.22l-.02,.02c-.64,.17-1.17,.49-1.54,1.06h-.02c-.43,.02-.71,.27-.93,.61,0,0-.02,.02-.02,.02-.34,.08-.64,.19-.7,.6-.14,.08-.28,.15-.42,.23-.13,.17-.5,.12-.44,.48,0,0,0,0,0,0-.58,.26-1,.68-1.33,1.21,0,0,0-.01,0-.01-.22-.01-.34,.06-.25,.31-.1,.17-.24,.31-.41,.41-.19-.15-.23,.04-.31,.13l.02-.02c-.08,0-.14,.05-.13,.14l.02-.02c-.09,0-.14,.05-.14,.14l.02-.02c-.09,0-.14,.05-.14,.14l.02-.02c-.09,0-.14,.05-.14,.14l.02-.02c-.09,0-.14,.05-.14,.14l.02-.02c-.09,0-.13,.05-.14,.13,0,0,.02-.02,.02-.02-.1,.08-.28,.13-.13,.31-.1,.17-.24,.31-.41,.41-.61,.13-.78,.72-1.15,1.09,0,0,.02-.02,.02-.02-.09,0-.14,.05-.14,.14,0,0,.01-.02,.01-.02-.11,.08-.28,.13-.13,.31v.04s-.05,0-.05,0c-.4,0-.48,.37-.67,.61,0,0,.02-.02,.02-.02-.11,.05-.24,.09-.13,.26,0,0,0,0,0,0-.15-.06-.19-.02-.13,.13,0,0,0,0,0,0-.59,.26-1.2,.31-1.82,.12,0,0,.01,.01,.01,.01-.68-.75-.68-1.66-.65-2.59-.06-.18-.12-.37-.18-.55,.03-.04,.1-.08,.1-.12-.15-1.55-.3-3.11-.45-4.66,0-.13-.01-.26-.02-.38-.44-3.07-.49-6.16-.49-9.25,0-5.01-.01-10.02,.12-15.03,.06-2.31,.12-4.63,.18-6.94Z"/>
    <path id="lote_45" data-name="lote 45" class="cls-2" d="M360,230.77c-.12-.29-.03-.58-.03-.87,0-9.13,0-18.27,0-27.4,0-.95,0-.94,.98-.95,4.15-.05,8.31-.1,12.46-.16,4.03-.06,8.07-.14,12.1-.21,.12,0,.24,.03,.35,.04,0,4.29,0,8.58,0,12.87,0,.65,0,.63,.56,.33,.63-.33,1.17-.83,1.88-1.01h0c-1.8,1.1-3.6,2.19-5.4,3.28-7.68,4.62-15.37,9.22-22.91,14.08Z"/>
    <path id="lote_44" data-name="lote 44" class="cls-2" d="M385.86,186.69c0-4.77,0-9.55,0-14.32,0-.22,0-.44,.01-.66,1.49-.17,2.98-.1,4.47-.14,1.47-.04,2.95-.05,4.43-.07,2.8-.03,5.6-.06,8.4-.09,.24,0,.47,.03,.71,.04,0,10.9,0,21.81,0,32.71-.46,.25-.94,.47-1.34,.81-.52,.22-1,.49-1.44,.84-.52,.22-1,.49-1.44,.84-.52,.21-.99,.51-1.45,.83-.2,.11-.47,.14-.56,.4-.57,.13-1.01,.48-1.47,.81-.72,.33-1.4,.73-2.04,1.2-.22,.09-.48,.12-.57,.4-.58,.11-1.01,.49-1.48,.79-.21,.1-.45,.16-.58,.38-.74,.31-1.41,.71-2.04,1.2-.24,.05-.46,.14-.6,.36-.24,.06-.48,.11-.59,.38-.71,.18-1.25,.68-1.88,1.01-.56,.3-.56,.31-.56-.33,0-4.29,0-8.58,0-12.87,0-4.84,0-9.68,0-14.52Z"/>
    <path id="lote_43" data-name="lote 43" class="cls-2" d="M403.89,171.46c2.05-.05,4.11-.11,6.16-.14,5.29-.07,10.58-.11,15.88-.17,3.14-.03,6.27-.08,9.41-.12,2.26-.03,4.51-.06,6.77-.08,.21,0,.44-.09,.62,.11-3.06,4.34-6.19,8.63-9.42,12.84-2.47,3.23-5.39,5.91-8.77,8.15-3.16,2.09-6.27,4.27-9.62,6.05-3.7,1.97-7.28,4.13-10.93,6.18-.03-.03-.06-.06-.09-.09,0-10.9,0-21.81,0-32.71Z"/>
    <path id="lote_42" data-name="lote 42" class="cls-2" d="M403.79,155.83c2.98,.05,5.95-.05,8.92-.08,1.78-.02,3.55-.04,5.33-.06,3.69-.04,7.39-.08,11.08-.12,3.21-.04,6.43-.08,9.64-.12,4.61-.06,9.22-.13,13.83-.2,.14,0,.28,.02,.42,.03-.52,1.15-1.24,2.18-1.91,3.23-2.58,4.08-5.29,8.08-8.05,12.04-.11,.16-.22,.33-.33,.49-.18-.2-.41-.11-.62-.11-2.26,.02-4.51,.05-6.77,.08-3.14,.04-6.27,.08-9.41,.12-5.29,.06-10.58,.1-15.88,.17-2.05,.03-4.11,.09-6.16,.14-.24-.01-.47-.04-.71-.04-2.8,.03-5.6,.06-8.4,.09-.02-.24-.07-.47-.07-.71-.05-4.94-.1-9.88-.15-14.81,3.08-.05,6.15-.1,9.23-.15Z"/>
    <path id="lote_41" data-name="lote 41" class="cls-2" d="M409.09,139.48c2.3,.08,4.59-.07,6.89-.07,1.78,0,3.56-.04,5.33-.06,3.7-.04,7.39-.08,11.09-.12,3.16-.04,6.31-.08,9.47-.12,3.22-.04,6.43-.08,9.65-.12,3.16-.04,6.31-.08,9.47-.12,.42,0,.84-.03,1.26-.05-.56,1.3-1.32,2.5-2.01,3.73-2.27,4.08-4.56,8.14-6.85,12.21-.11,.19-.18,.4-.37,.53-.14-.01-.28-.03-.42-.03-4.61,.06-9.22,.13-13.83,.2-3.21,.04-6.43,.08-9.64,.12-3.69,.04-7.39,.08-11.08,.12-1.78,.02-3.55,.03-5.33,.06-2.97,.04-5.95,.13-8.92,.08-.04-2.69-.09-5.39-.12-8.08-.03-2.71-.06-5.43-.08-8.14,.61-.02,1.22-.06,1.84-.07,1.23-.03,2.45-.04,3.68-.06Z"/>
    <path id="lote_40" data-name="lote 40" class="cls-2" d="M471.46,122.03c-.06,.56-.44,.97-.69,1.43-2.73,4.98-5.48,9.95-8.22,14.93-.08,.15-.13,.34-.31,.43-.42,.02-.84,.05-1.26,.05-3.16,.04-6.31,.08-9.47,.12-3.22,.04-6.43,.08-9.65,.12-3.16,.04-6.31,.08-9.47,.12-3.7,.04-7.39,.08-11.09,.12-1.78,.02-3.56,.06-5.33,.06-2.3,0-4.59,.14-6.89,.07,.11-.64,0-1.27,0-1.91-.06-4.9-.11-9.81-.16-14.71,1.04-.09,2.1,.06,3.14-.13,0,0,0-.01,0-.01,.62,.19,1.24,.1,1.87,.05,2.65-.04,5.31-.08,7.96-.12,1.84-.03,3.67-.05,5.51-.07,2.09,.03,4.19-.02,6.28-.07,3.23-.09,6.46,.05,9.69-.15,.22,0,.44,.02,.66,.02,4.76-.05,9.52-.11,14.28-.16,4.38-.15,8.77-.02,13.15-.21v.03Z"/>
    <path id="lote_39" data-name="lote 39" class="cls-7" d="M483.23,92.6c.05,.1,.11,.18,.24,.12,.07,.35,.39,.49,.6,.72,1.08,1.64,1.24,3.32,.25,5.07-.03,.06,0,.15-.01,.22-.4,.35-.63,.8-.72,1.32-.59,.72-1.03,1.52-1.32,2.4-.39,.36-.63,.8-.72,1.32-.4,.35-.62,.8-.72,1.32-.37,.26-.53,.65-.6,1.08-.39,.36-.63,.8-.72,1.32-.4,.35-.63,.8-.72,1.32-.37,.26-.53,.65-.6,1.08-.39,.36-.63,.8-.72,1.32-.59,.71-1.02,1.52-1.32,2.4-.4,.35-.62,.8-.72,1.32-.36,.27-.53,.65-.6,1.08-.39,.36-.63,.8-.72,1.32-.59,.72-1.03,1.52-1.32,2.4-.61,.66-.92,1.49-1.32,2.27-4.38,.19-8.77,.06-13.15,.21,.11-1.16-.02-2.31-.02-3.47-.04-5.51-.11-11.02-.18-16.53-.04-3.23-.08-6.47-.12-9.7-.04-3.17-.08-6.35-.12-9.52-.01-1.23,0-2.46,0-3.71,.62,.11,1.06,.67,1.71,.72,0,.02-.03,.05-.03,.05,1.4,.81,2.81,1.59,4.29,2.25,.01,0,.04-.01,.06-.02,0,.02-.03,.05-.03,.05,1.4,.81,2.81,1.59,4.29,2.25,.01,0,.04-.01,.06-.02,1.37,.9,2.8,1.68,4.32,2.28,.6,.51,1.29,.85,2.04,1.08,.68,.55,1.44,.94,2.28,1.2,.6,.51,1.29,.85,2.04,1.08,.68,.55,1.44,.94,2.28,1.2,.52,.48,1.13,.77,1.8,.96-.04,.2,.12,.2,.24,.24Z"/>
  </g>
  <g id="zona_4" data-name="zona 4">
    <polygon id="lote_38" data-name="lote 38" class="cls-3" points="646.55 61.96 649.46 110.01 665.05 109.05 662.23 61.05 646.55 61.96"/>
    <path id="lote_37" data-name="lote 37" class="cls-3" d="M631.24,67.04l2.54,43.98,15.68-1.01-2.91-48.05-8.81,.51c-2.42,.48-4.67,1.01-6.71,1.62l.21,2.95Z"/>
    <path id="lote_36" data-name="lote 36" class="cls-3" d="M615.87,73.28l2.32,38.66,15.59-.92-2.75-46.93c-5.64,1.74-10.77,3.92-15.29,6.6l.13,2.59Z"/>
    <path id="lote_35" data-name="lote 35" class="cls-3" d="M595.59,88.61l1.4,24.51,21.2-1.18-2.45-41.25c-7.33,4.1-14.55,10.05-20.15,17.92Z"/>
    <polygon id="lote_34" data-name="lote 34" class="cls-3" points="618.19 111.94 597 113.12 599.93 160.17 621.05 159.05 618.19 111.94"/>
    <polygon id="lote_33" data-name="lote 33" class="cls-3" points="633.78 111.02 618.19 111.94 621.05 159.05 636.63 158.22 633.78 111.02"/>
    <polygon id="lote_32" data-name="lote 32" class="cls-3" points="649.46 110.01 633.78 111.02 636.63 158.22 652.27 157.4 649.46 110.01"/>
    <polygon id="lote_31" data-name="lote 31" class="cls-3" points="665.05 109.05 649.46 110.01 652.27 157.4 667.9 156.57 665.05 109.05"/>
    <polygon id="lote_30" data-name="lote 30" class="cls-6" points="698.6 139.05 666.96 140.93 667.9 156.57 706.86 154.51 705.9 138.57 698.6 139.05"/>
    <polygon id="lote_29" data-name="lote 29" class="cls-3" points="701.71 122.76 666 124.9 666.96 140.93 705.9 138.57 704.95 122.54 701.71 122.76"/>
    <polygon id="lote_28" data-name="lote 28" class="cls-3" points="701.71 106.9 665.05 109.05 666 124.9 704.95 122.54 704 106.73 701.71 106.9"/>
    <polygon id="lote_27" data-name="lote 27" class="cls-3" points="664.05 92.97 665.05 109.05 704 106.73 703.04 90.65 664.05 92.97"/>
    <polygon id="lote_26" data-name="lote 26" class="cls-3" points="663.17 77.03 664.05 92.97 703.04 90.65 702.09 74.71 663.17 77.03"/>
    <polygon id="lote_25" data-name="lote 25" class="cls-6" points="662.4 63.13 663.17 77.03 702.09 74.71 701.14 58.79 662.23 61.05 662.4 63.13"/>
  </g>
  <g id="zona_3" data-name="zona 3">
    <polygon id="lote_24" data-name="lote 24" class="cls-2" points="601.6 185.45 603.21 219.19 621.04 218.31 618.65 178.53 600.99 179.34 601.6 185.45"/>
    <polygon id="lote_23" data-name="lote 23" class="cls-3" points="618.76 180 621.04 218.31 636.7 217.53 634.31 177.77 618.65 178.53 618.76 180"/>
    <polygon id="lote_22" data-name="lote 22" class="cls-3" points="634.46 180.61 636.7 217.53 652.37 216.76 649.97 176.96 634.31 177.77 634.46 180.61"/>
    <polygon id="lote_21" data-name="lote 21" class="cls-3" points="650.03 179.01 652.37 216.76 667.96 215.99 665.57 176.12 649.97 176.96 650.03 179.01"/>
    <polygon id="lote_20" data-name="lote 20" class="cls-3" points="665.7 178.55 667.96 215.99 683.5 215.18 681.14 175.24 665.57 176.12 665.7 178.55"/>
    <polygon id="lote_19" data-name="lote 19" class="cls-3" points="681.27 177.24 683.5 215.18 699.21 214.18 696.81 174.33 681.14 175.24 681.27 177.24"/>
    <polygon id="lote_18" data-name="lote 18" class="cls-3" points="696.94 177.07 699.21 214.18 714.74 213.19 712.37 173.39 696.81 174.33 696.94 177.07"/>
    <polygon id="lote_17" data-name="lote 17" class="cls-3" points="712.57 176.78 714.74 213.19 730.27 212.2 728.02 172.42 712.37 173.39 712.57 176.78"/>
    <polygon id="lote_16" data-name="lote 16" class="cls-3" points="728.14 174.97 728.02 172.42 743.62 171.44 745.94 211.21 730.27 212.2 728.14 174.97"/>
    <polygon id="lote15" class="cls-3" points="764.17 172.77 763.59 210.08 745.94 211.21 743.62 171.44 764.17 170.18 764.17 172.77"/>
  </g>
  <g id="zona_2" data-name="zona 2">
    <polygon id="lote_14" data-name="lote 14" class="cls-6" points="735 152.7 764.47 150.96 764.82 134.93 724.74 137.34 725.69 153.24 735 152.7"/>
    <polygon id="lote_13" data-name="lote 13" class="cls-3" points="764.82 134.93 724.74 137.34 723.78 121.4 765.04 118.9 764.82 134.93"/>
    <polygon id="lote_12" data-name="lote 12" class="cls-3" points="765.04 118.9 723.78 121.4 722.83 105.46 765.26 102.92 765.04 118.9"/>
    <polygon id="lote_11" data-name="lote 11" class="cls-3" points="765.26 102.92 722.83 105.46 721.88 89.52 765.48 86.93 765.26 102.92"/>
    <polygon id="lote_10" data-name="lote 10" class="cls-3" points="765.48 86.93 721.88 89.52 720.95 73.66 763.86 71.03 765.48 86.93"/>
    <polygon id="lote_9" data-name="lote 9" class="cls-6" points="763.86 71.03 720.95 73.66 720 57.66 762.09 55.13 763.86 71.03"/>
  </g>
  <g id="zona_1" data-name="zona 1">
    <polygon id="lote_8" data-name="lote 8" class="cls-5" points="756.41 .13 760.02 36.23 744.67 37.09 742.22 .13 756.41 .13"/>
    <polygon id="lote_7" data-name="lote 7" class="cls-5" points="728.91 37.97 726.28 .13 742.22 .13 744.67 37.09 728.91 37.97"/>
    <polygon id="lote_6" data-name="lote 6" class="cls-5" points="713.1 38.76 710.89 .53 726.28 .13 728.91 37.97 713.1 38.76"/>
    <polygon id="lote_5" data-name="lote 5" class="cls-5" points="697.59 39.54 713.1 38.76 710.89 .53 695.16 .72 697.59 39.54"/>
    <polygon id="lote_4" data-name="lote 4" class="cls-5" points="679.66 .98 681.89 40.79 697.59 39.54 695.16 .72 679.66 .98"/>
    <polygon id="lote_3" data-name="lote 3" class="cls-5" points="666.32 41.65 681.89 40.79 679.66 .98 663.96 1.15 666.32 41.65"/>
    <polygon id="lote_2" data-name="lote 2" class="cls-5" points="648.26 1.15 650.75 42.57 666.32 41.65 663.96 1.15 648.26 1.15"/>
    <path id="lote_1" data-name="lote 1" class="cls-7" d="M645.42,1.15h2.84l2.5,41.42-11.96,.72c-10.62,.49-22.47,4.75-35.54,12.74-.98,.26-1.83-.05-2.56-.79l-2.97-4.18,11.84-7.92,25.62-23.52,10.23-18.47Z"/>
  </g>
</svg>